<?xml version="1.0" encoding="UTF-8" standalone="no"?>
<!-- Generator: Adobe Illustrator 16.0.0, SVG Export Plug-In . SVG Version: 6.00 Build 0)  -->

<svg
   xmlns:dc="http://purl.org/dc/elements/1.1/"
   xmlns:cc="http://creativecommons.org/ns#"
   xmlns:rdf="http://www.w3.org/1999/02/22-rdf-syntax-ns#"
   xmlns:svg="http://www.w3.org/2000/svg"
   xmlns="http://www.w3.org/2000/svg"
   xmlns:xlink="http://www.w3.org/1999/xlink"
   xmlns:sodipodi="http://sodipodi.sourceforge.net/DTD/sodipodi-0.dtd"
   xmlns:inkscape="http://www.inkscape.org/namespaces/inkscape"
   version="1.1"
   id="Layer_1"
   x="0px"
   y="0px"
   width="126px"
   height="126px"
   viewBox="0 0 126 126"
   enable-background="new 0 0 126 126"
   xml:space="preserve"
   inkscape:version="0.91 r13725"
   sodipodi:docname="ambit-flaticon-collection.svg"><metadata
     id="metadata3080"><rdf:RDF><cc:Work
         rdf:about=""><dc:format>image/svg+xml</dc:format><dc:type
           rdf:resource="http://purl.org/dc/dcmitype/StillImage" /><dc:title /></cc:Work></rdf:RDF></metadata><defs
     id="defs3078"><linearGradient
       id="linearGradient4381"><stop
         style="stop-color:#000000;stop-opacity:1;"
         offset="0"
         id="stop4383" /><stop
         style="stop-color:#000000;stop-opacity:0;"
         offset="1"
         id="stop4385" /></linearGradient><linearGradient
       inkscape:collect="always"
       xlink:href="#linearGradient8385"
       id="linearGradient1403"
       gradientUnits="userSpaceOnUse"
       gradientTransform="matrix(0.99884,0,0,0.998699,156.7836,-139.1912)"
       x1="-642.33075"
       y1="395.76303"
       x2="-570.35742"
       y2="537.68951" /><linearGradient
       id="linearGradient8385"><stop
         style="stop-color:#000000;stop-opacity:1;"
         offset="0"
         id="stop8387" /><stop
         style="stop-color:#ffffff;stop-opacity:1;"
         offset="1"
         id="stop8389" /></linearGradient><linearGradient
       y2="376.52051"
       x2="-578.36444"
       y1="535.61951"
       x1="-564.26062"
       gradientTransform="matrix(0.99884,0,0,0.998699,156.7836,-139.1912)"
       gradientUnits="userSpaceOnUse"
       id="linearGradient3068"
       xlink:href="#linearGradient8385"
       inkscape:collect="always" /><linearGradient
       id="linearGradient3329"><stop
         style="stop-color:#c3c3c3;stop-opacity:1;"
         offset="0"
         id="stop3331" /><stop
         style="stop-color:#191919;stop-opacity:1;"
         offset="1"
         id="stop3333" /></linearGradient><linearGradient
       y2="376.52051"
       x2="-578.36444"
       y1="535.61951"
       x1="-564.26062"
       gradientTransform="matrix(0.99884,0,0,0.998699,156.7836,-139.1912)"
       gradientUnits="userSpaceOnUse"
       id="linearGradient3338"
       xlink:href="#linearGradient8385"
       inkscape:collect="always" /><linearGradient
       inkscape:collect="always"
       xlink:href="#linearGradient8385"
       id="linearGradient3397"
       gradientUnits="userSpaceOnUse"
       gradientTransform="matrix(0.99884,0,0,0.998699,156.7836,-139.1912)"
       x1="-642.33075"
       y1="395.76303"
       x2="-570.35742"
       y2="537.68951" /><linearGradient
       inkscape:collect="always"
       xlink:href="#linearGradient8385"
       id="linearGradient3399"
       gradientUnits="userSpaceOnUse"
       gradientTransform="matrix(0.99884,0,0,0.998699,156.7836,-139.1912)"
       x1="-564.26062"
       y1="535.61951"
       x2="-578.36444"
       y2="376.52051" /><linearGradient
       inkscape:collect="always"
       xlink:href="#linearGradient4300"
       id="linearGradient4310"
       x1="23.725128"
       y1="75.783478"
       x2="125.33395"
       y2="75.783478"
       gradientUnits="userSpaceOnUse" /><linearGradient
       inkscape:collect="always"
       id="linearGradient4300"><stop
         style="stop-color:#888888;stop-opacity:1;"
         offset="0"
         id="stop4302" /><stop
         style="stop-color:#888888;stop-opacity:0;"
         offset="1"
         id="stop4304" /></linearGradient><radialGradient
       inkscape:collect="always"
       xlink:href="#linearGradient3329"
       id="radialGradient4455"
       gradientUnits="userSpaceOnUse"
       gradientTransform="matrix(-1.0355257,-0.83098844,0.76715913,-0.9559867,-689.49434,640.62578)"
       cx="-176.17107"
       cy="406.01376"
       fx="-176.17107"
       fy="406.01376"
       r="27.337517" /><linearGradient
       inkscape:collect="always"
       xlink:href="#linearGradient3329"
       id="linearGradient4457"
       gradientUnits="userSpaceOnUse"
       gradientTransform="matrix(0.79710401,0.60384204,-0.60384204,0.79710401,265.6411,330.50634)"
       x1="-350.8826"
       y1="289.8606"
       x2="-348.39575"
       y2="289.83533" /><radialGradient
       inkscape:collect="always"
       xlink:href="#linearGradient3329"
       id="radialGradient4459"
       gradientUnits="userSpaceOnUse"
       gradientTransform="matrix(-1.0355257,-0.83098844,0.76715913,-0.9559867,-689.49434,640.62578)"
       cx="-171.27342"
       cy="406.72177"
       fx="-171.27342"
       fy="406.72177"
       r="27.337517" /><linearGradient
       inkscape:collect="always"
       xlink:href="#linearGradient3329"
       id="linearGradient4461"
       gradientUnits="userSpaceOnUse"
       gradientTransform="matrix(0.41655669,-0.90910975,0.90910975,0.41655669,-362.73332,-73.41199)"
       x1="-350.8826"
       y1="289.8606"
       x2="-348.39575"
       y2="289.83533" /><radialGradient
       inkscape:collect="always"
       xlink:href="#linearGradient3329"
       id="radialGradient4463"
       gradientUnits="userSpaceOnUse"
       gradientTransform="matrix(-1.0355257,-0.83098844,0.76715913,-0.9559867,-689.49434,640.62578)"
       cx="-176.17107"
       cy="406.01376"
       fx="-176.17107"
       fy="406.01376"
       r="27.337517" /><linearGradient
       inkscape:collect="always"
       xlink:href="#linearGradient3329"
       id="linearGradient4465"
       gradientUnits="userSpaceOnUse"
       x1="-350.8826"
       y1="289.8606"
       x2="-348.39575"
       y2="289.83533" /><radialGradient
       inkscape:collect="always"
       xlink:href="#linearGradient3329"
       id="radialGradient4467"
       gradientUnits="userSpaceOnUse"
       gradientTransform="matrix(-1.0339027,-0.83300688,1.0523875,-1.3061933,-805.44284,783.04178)"
       cx="-185.64648"
       cy="418.16946"
       fx="-185.64648"
       fy="418.16946"
       r="27.337517" /><radialGradient
       inkscape:collect="always"
       xlink:href="#linearGradient3329"
       id="radialGradient4530"
       gradientUnits="userSpaceOnUse"
       gradientTransform="matrix(-1.0355257,-0.83098844,0.76715913,-0.9559867,-689.49434,640.62578)"
       cx="-176.17107"
       cy="406.01376"
       fx="-176.17107"
       fy="406.01376"
       r="27.337517" /><linearGradient
       inkscape:collect="always"
       xlink:href="#linearGradient3329"
       id="linearGradient4532"
       gradientUnits="userSpaceOnUse"
       gradientTransform="matrix(0.79710401,0.60384204,-0.60384204,0.79710401,265.6411,330.50634)"
       x1="-350.8826"
       y1="289.8606"
       x2="-348.39575"
       y2="289.83533" /><radialGradient
       inkscape:collect="always"
       xlink:href="#linearGradient3329"
       id="radialGradient4534"
       gradientUnits="userSpaceOnUse"
       gradientTransform="matrix(-1.0355257,-0.83098844,0.76715913,-0.9559867,-689.49434,640.62578)"
       cx="-171.27342"
       cy="406.72177"
       fx="-171.27342"
       fy="406.72177"
       r="27.337517" /><linearGradient
       inkscape:collect="always"
       xlink:href="#linearGradient3329"
       id="linearGradient4536"
       gradientUnits="userSpaceOnUse"
       gradientTransform="matrix(0.41655669,-0.90910975,0.90910975,0.41655669,-362.73332,-73.41199)"
       x1="-350.8826"
       y1="289.8606"
       x2="-348.39575"
       y2="289.83533" /><radialGradient
       inkscape:collect="always"
       xlink:href="#linearGradient3329"
       id="radialGradient4538"
       gradientUnits="userSpaceOnUse"
       gradientTransform="matrix(-1.0355257,-0.83098844,0.76715913,-0.9559867,-689.49434,640.62578)"
       cx="-176.17107"
       cy="406.01376"
       fx="-176.17107"
       fy="406.01376"
       r="27.337517" /><linearGradient
       inkscape:collect="always"
       xlink:href="#linearGradient3329"
       id="linearGradient4540"
       gradientUnits="userSpaceOnUse"
       x1="-350.8826"
       y1="289.8606"
       x2="-348.39575"
       y2="289.83533" /><radialGradient
       inkscape:collect="always"
       xlink:href="#linearGradient3329"
       id="radialGradient4542"
       gradientUnits="userSpaceOnUse"
       gradientTransform="matrix(-1.0339027,-0.83300688,1.0523875,-1.3061933,-805.44284,783.04178)"
       cx="-185.64648"
       cy="418.16946"
       fx="-185.64648"
       fy="418.16946"
       r="27.337517" /></defs><sodipodi:namedview
     pagecolor="#ffffff"
     bordercolor="#666666"
     borderopacity="1"
     objecttolerance="10"
     gridtolerance="10"
     guidetolerance="10"
     inkscape:pageopacity="0"
     inkscape:pageshadow="2"
     inkscape:window-width="1280"
     inkscape:window-height="987"
     id="namedview3076"
     showgrid="false"
     showguides="true"
     inkscape:guide-bbox="true"
     inkscape:zoom="2.8452382"
     inkscape:cx="-449.63674"
     inkscape:cy="-145.38155"
     inkscape:window-x="0"
     inkscape:window-y="0"
     inkscape:window-maximized="1"
     inkscape:current-layer="g4829" /><g
     id="g3089"
     inkscape:export-filename="/home/kerb/dev/icons/text3092.png"
     inkscape:export-xdpi="46.220001"
     inkscape:export-ydpi="46.220001"><path
       sodipodi:nodetypes="ccccccccssssssssccccssccc"
       d="M 99.98,36.45 C 99.974,35.982 99.826,35.52 99.505,35.155 L 79.838,12.69 C 79.834,12.684 79.828,12.682 79.822,12.676 79.705,12.545 79.57,12.437 79.426,12.342 79.383,12.314 79.34,12.289 79.295,12.264 79.168,12.196 79.037,12.14 78.9,12.099 78.863,12.088 78.83,12.073 78.793,12.063 78.643,12.028 78.49,12.006 78.334,12.006 l -48.334,0 c -2.205,0 -4,1.795 -4,4 l 0,94 c 0,2.206 1.795,4 4,4 l 66,0 c 2.207,0 4,-1.794 4,-4 l 0,-73.332 c 0,-0.075 -0.012,-0.15 -0.02,-0.224 z M 30,79.924 l 0,-63.917 46.334,0 0,20.466 c 0,1.104 0.895,2 2,2 l 17.666,0 0.002,41.451 z"
       id="path3064"
       inkscape:connector-curvature="0" /></g><text
     xml:space="preserve"
     style="font-size:35.96525955px;font-style:normal;font-weight:normal;line-height:125%;letter-spacing:-1.10000002px;word-spacing:0px;fill:#ffffff;fill-opacity:1;stroke:none;font-family:Sans"
     x="64.04351"
     y="105.77458"
     id="text3092"
     sodipodi:linespacing="125%"
     transform="scale(0.97596976,1.0246219)"
     inkscape:export-xdpi="46.220001"
     inkscape:export-ydpi="46.220001"><tspan
       sodipodi:role="line"
       id="tspan3094"
       x="63.493507"
       y="105.77458"
       style="font-size:31px;font-style:normal;font-variant:normal;font-weight:bold;font-stretch:normal;text-align:center;letter-spacing:-1.10000002px;text-anchor:middle;font-family:DejaVu Sans;-inkscape-font-specification:DejaVu Sans Bold">RDF</tspan></text>
<g
     id="g4860"><g
       id="g3174"
       transform="translate(87.470888,149.77918)"><g
         id="g3152"><path
           d="m 61.738,88.271 c -1.171,0 -1.929,0.104 -2.377,0.207 v 15.185 c 0.448,0.103 1.17,0.103 1.825,0.103 4.753,0.035 7.852,-2.582 7.852,-8.125 0.034,-4.822 -2.789,-7.37 -7.3,-7.37 z"
           id="path3154"
           inkscape:connector-curvature="0" /><path
           d="M 99.98,36.45 C 99.974,35.982 99.826,35.52 99.505,35.155 L 79.838,12.69 C 79.834,12.684 79.828,12.682 79.822,12.676 79.705,12.545 79.57,12.437 79.426,12.342 79.383,12.314 79.34,12.289 79.295,12.264 79.168,12.196 79.037,12.14 78.9,12.099 78.863,12.088 78.83,12.073 78.793,12.063 78.643,12.028 78.49,12.006 78.334,12.006 H 30 c -2.205,0 -4,1.795 -4,4 v 94 c 0,2.206 1.795,4 4,4 h 66 c 2.207,0 4,-1.794 4,-4 V 36.674 c 0,-0.075 -0.012,-0.15 -0.02,-0.224 z m -58.801,71.517 c -2.651,0 -5.269,-0.688 -6.577,-1.412 l 1.067,-4.338 c 1.412,0.723 3.582,1.446 5.819,1.446 2.41,0 3.684,-0.998 3.684,-2.514 0,-1.446 -1.102,-2.272 -3.891,-3.271 -3.856,-1.343 -6.37,-3.478 -6.37,-6.853 0,-3.96 3.307,-6.988 8.78,-6.988 2.618,0 4.545,0.551 5.922,1.17 l -1.169,4.236 c -0.931,-0.448 -2.583,-1.104 -4.856,-1.104 -2.272,0 -3.374,1.033 -3.374,2.239 0,1.48 1.309,2.134 4.306,3.271 4.095,1.515 6.024,3.649 6.024,6.921 0,3.89 -2.996,7.197 -9.365,7.197 z m 29.58,-3.098 c -2.444,2.029 -6.163,2.994 -10.708,2.994 -2.72,0 -4.648,-0.172 -5.956,-0.344 V 84.726 c 1.927,-0.311 4.441,-0.483 7.092,-0.483 4.407,0 7.267,0.793 9.505,2.479 2.41,1.791 3.924,4.648 3.924,8.746 -0.001,4.441 -1.619,7.507 -3.857,9.401 z M 92.25,88.72 h -8.919 v 5.302 h 8.334 v 4.27 h -8.334 v 9.331 H 78.064 V 84.415 H 92.25 V 88.72 z M 30,79.924 V 16.007 h 46.334 v 20.466 c 0,1.104 0.895,2 2,2 H 96 l 0.002,41.451 H 30 z"
           id="path3156"
           inkscape:connector-curvature="0" /></g><g
         id="g3158"><polygon
           points="57.199,34.544 57.431,34.544 58.181,20.919 56.449,20.919 "
           id="polygon3160" /><polygon
           points="47.159,52.121 46.996,51.957 36.831,61.062 38.056,62.286 "
           id="polygon3162" /><polygon
           points="65.657,62.287 65.426,62.286 64.676,75.912 66.408,75.912 "
           id="polygon3164" /><path
           d="m 87.882,63.334 -5.385,-3.56 v -9.391 l -8.228,-4.749 v -9.299 l -8.728,-5.038 -8.228,4.749 -8.228,-4.749 -8.21,4.739 -5.35,-3.536 -0.551,0.834 5.385,3.56 v 9.521 l 8.228,4.75 v 9.298 l 0.051,0.029 -4.115,4.502 0.738,0.674 4.263,-4.664 7.791,4.497 8.228,-4.75 8.228,4.75 8.315,-4.8 5.246,3.468 0.55,-0.835 z M 73.27,36.914 v 8.721 l -7.728,4.461 -7.728,-4.461 v -8.721 l 7.728,-4.462 7.728,4.462 z m -31.911,0 7.728,-4.462 7.728,4.462 v 8.721 l -7.903,4.562 -7.552,-4.36 v -8.923 z m 8.228,22.97 v -8.72 l 7.728,-4.461 7.728,4.461 v 8.72 l -7.728,4.462 -7.728,-4.462 z m 31.91,0 -7.728,4.462 -7.728,-4.462 v -8.72 l 7.903,-4.563 7.552,4.36 v 8.923 z"
           id="path3166"
           inkscape:connector-curvature="0" /></g></g></g><g
     id="g4878"><g
       transform="translate(268.65323,148.61669)"
       id="g3226"
       inkscape:export-filename="/home/kerb/dev/icons/text3092.png"
       inkscape:export-xdpi="46.220001"
       inkscape:export-ydpi="46.220001"><path
         sodipodi:nodetypes="ccccccccssssssssccccssccc"
         d="M 99.98,36.45 C 99.974,35.982 99.826,35.52 99.505,35.155 L 79.838,12.69 C 79.834,12.684 79.828,12.682 79.822,12.676 79.705,12.545 79.57,12.437 79.426,12.342 79.383,12.314 79.34,12.289 79.295,12.264 79.168,12.196 79.037,12.14 78.9,12.099 78.863,12.088 78.83,12.073 78.793,12.063 78.643,12.028 78.49,12.006 78.334,12.006 l -48.334,0 c -2.205,0 -4,1.795 -4,4 l 0,94 c 0,2.206 1.795,4 4,4 l 66,0 c 2.207,0 4,-1.794 4,-4 l 0,-73.332 c 0,-0.075 -0.012,-0.15 -0.02,-0.224 z M 30,79.924 l 0,-63.917 46.334,0 0,20.466 c 0,1.104 0.895,2 2,2 l 17.666,0 0.002,41.451 z"
         id="path3228"
         inkscape:connector-curvature="0" /></g><g
       transform="translate(268.65323,148.61669)"
       id="g3230"
       inkscape:export-filename="/home/kerb/dev/icons/text3092.png"
       inkscape:export-xdpi="46.220001"
       inkscape:export-ydpi="46.220001"><polygon
         points="56.449,20.919 57.199,34.544 57.431,34.544 58.181,20.919 "
         id="polygon3232" /><polygon
         points="38.056,62.286 47.159,52.121 46.996,51.957 36.831,61.062 "
         id="polygon3234" /><polygon
         points="66.408,75.912 65.657,62.287 65.426,62.286 64.676,75.912 "
         id="polygon3236" /><path
         inkscape:connector-curvature="0"
         d="m 87.882,63.334 -5.385,-3.56 v -9.391 l -8.228,-4.749 v -9.299 l -8.728,-5.038 -8.228,4.749 -8.228,-4.749 -8.21,4.739 -5.35,-3.536 -0.551,0.834 5.385,3.56 v 9.521 l 8.228,4.75 v 9.298 l 0.051,0.029 -4.115,4.502 0.738,0.674 4.263,-4.664 7.791,4.497 8.228,-4.75 8.228,4.75 8.315,-4.8 5.246,3.468 0.55,-0.835 z M 73.27,36.914 v 8.721 l -7.728,4.461 -7.728,-4.461 v -8.721 l 7.728,-4.462 7.728,4.462 z m -31.911,0 7.728,-4.462 7.728,4.462 v 8.721 l -7.903,4.562 -7.552,-4.36 v -8.923 z m 8.228,22.97 v -8.72 l 7.728,-4.461 7.728,4.461 v 8.72 l -7.728,4.462 -7.728,-4.462 z m 31.91,0 -7.728,4.462 -7.728,-4.462 v -8.72 l 7.903,-4.563 7.552,4.36 v 8.923 z"
         id="path3238" /></g><text
       xml:space="preserve"
       style="font-size:34.14974213px;font-style:normal;font-weight:normal;line-height:125%;letter-spacing:0px;word-spacing:0px;fill:#ffffff;fill-opacity:1;stroke:none;font-family:Sans"
       x="310.57932"
       y="270.76712"
       id="text3240"
       sodipodi:linespacing="125%"
       transform="scale(1.0671794,0.93704957)"
       inkscape:export-xdpi="46.220001"
       inkscape:export-ydpi="46.220001"><tspan
         sodipodi:role="line"
         id="tspan3242"
         x="309.82932"
         y="270.76712"
         style="font-size:24px;font-style:normal;font-variant:normal;font-weight:bold;font-stretch:normal;text-align:center;letter-spacing:-1.5px;text-anchor:middle;font-family:DejaVu Sans;-inkscape-font-specification:DejaVu Sans Bold">InChI</tspan></text>
</g><g
     id="g4835"
     inkscape:export-filename="/home/kerb/dev/icons/ambit-flaticon/json.png"
     inkscape:export-xdpi="46.220001"
     inkscape:export-ydpi="46.220001"><g
       inkscape:export-ydpi="46.220001"
       inkscape:export-xdpi="46.220001"
       inkscape:export-filename="/home/kerb/dev/icons/text3093.png"
       id="g3383"
       transform="matrix(0.33986109,0,0,0.33986109,105.60421,84.42017)"><path
         inkscape:connector-curvature="0"
         id="path3385"
         style="color:#000000;fill:url(#linearGradient3397);fill-opacity:1;fill-rule:evenodd;stroke:none;stroke-width:0.5;marker:none;visibility:visible;display:inline;overflow:visible"
         d="m -452.35954,368.75213 c 23.21169,9.13191 53.06862,-13.63189 53.06862,-50.58675 0,-43.88609 -27.62085,-68.41369 -53.09762,-68.41369 -40.89242,0 -79.8356,33.79608 -79.8356,80.03589 0,51.396 44.64038,79.86497 79.8356,79.86497 -7.96447,-1.14675 -51.64906,-6.83395 -52.00578,-67.96677 -0.23987,-41.3466 30.63043,-57.86551 51.94813,-50.59905 0.47743,0.17707 23.51392,9.26451 23.51392,38.95053 0,29.55992 -23.42727,38.71487 -23.42727,38.71487 z"
         sodipodi:nodetypes="cssscccsc" /><path
         id="path3387"
         style="color:#000000;fill:url(#linearGradient3399);fill-opacity:1;fill-rule:evenodd;stroke:none;stroke-width:0.5;marker:none;visibility:visible;display:inline;overflow:visible"
         d="m -452.40087,291.05337 c -23.39005,-8.06188 -52.04302,11.21581 -52.04302,49.82881 0,63.04798 46.72055,68.77037 52.38416,68.77037 40.89242,0 79.83559,-33.79608 79.83559,-80.03589 0,-51.396 -44.64038,-79.86497 -79.83559,-79.86497 9.74811,-1.35 52.54087,10.54991 52.54087,69.0368 0,38.14117 -31.95286,58.90496 -52.73547,50.03344 -0.47743,-0.17707 -23.51392,-9.26451 -23.51392,-38.95053 0,-29.55992 23.36738,-38.81803 23.36738,-38.81803 z"
         sodipodi:nodetypes="cssscccsc"
         inkscape:connector-curvature="0" /></g><g
       transform="translate(-110.59268,148.36816)"
       id="g3389"
       inkscape:export-filename="/home/kerb/dev/icons/text3093.png"
       inkscape:export-xdpi="46.220001"
       inkscape:export-ydpi="46.220001"><path
         sodipodi:nodetypes="ccccccccssssssssccccssccc"
         d="M 99.98,36.45 C 99.974,35.982 99.826,35.52 99.505,35.155 L 79.838,12.69 C 79.834,12.684 79.828,12.682 79.822,12.676 79.705,12.545 79.57,12.437 79.426,12.342 79.383,12.314 79.34,12.289 79.295,12.264 79.168,12.196 79.037,12.14 78.9,12.099 78.863,12.088 78.83,12.073 78.793,12.063 78.643,12.028 78.49,12.006 78.334,12.006 l -48.334,0 c -2.205,0 -4,1.795 -4,4 l 0,94 c 0,2.206 1.795,4 4,4 l 66,0 c 2.207,0 4,-1.794 4,-4 l 0,-73.332 c 0,-0.075 -0.012,-0.15 -0.02,-0.224 z M 30,79.924 l 0,-63.917 46.334,0 0,20.466 c 0,1.104 0.895,2 2,2 l 17.666,0 0.002,41.451 z"
         id="path3391"
         inkscape:connector-curvature="0" /></g><text
       inkscape:export-filename="/home/kerb/dev/icons/text3093.png"
       xml:space="preserve"
       style="font-size:34.14974213px;font-style:normal;font-weight:normal;line-height:125%;letter-spacing:0px;word-spacing:0px;fill:#ffffff;fill-opacity:1;stroke:none;font-family:Sans"
       x="-42.929893"
       y="268.64539"
       id="text3393"
       sodipodi:linespacing="125%"
       transform="scale(1.0671794,0.93704957)"
       inkscape:export-xdpi="46.220001"
       inkscape:export-ydpi="46.220001"><tspan
         sodipodi:role="line"
         id="tspan3395"
         x="-43.679893"
         y="268.64539"
         style="font-size:24px;font-style:normal;font-variant:normal;font-weight:bold;font-stretch:normal;text-align:center;letter-spacing:-1.5px;text-anchor:middle;font-family:DejaVu Sans;-inkscape-font-specification:DejaVu Sans Bold">JSON</tspan></text>
</g><g
     id="g4844"
     inkscape:export-filename="/home/kerb/dev/icons/ambit-flaticon/arff.png"
     inkscape:export-xdpi="46.220001"
     inkscape:export-ydpi="46.220001"><g
       transform="translate(-12.674667,148.61669)"
       id="g4858"
       inkscape:export-filename="/home/kerb/dev/icons/text3094.png"
       inkscape:export-xdpi="46.220001"
       inkscape:export-ydpi="46.220001"><path
         sodipodi:nodetypes="ccccccccssssssssccccssccc"
         d="M 99.98,36.45 C 99.974,35.982 99.826,35.52 99.505,35.155 L 79.838,12.69 C 79.834,12.684 79.828,12.682 79.822,12.676 79.705,12.545 79.57,12.437 79.426,12.342 79.383,12.314 79.34,12.289 79.295,12.264 79.168,12.196 79.037,12.14 78.9,12.099 78.863,12.088 78.83,12.073 78.793,12.063 78.643,12.028 78.49,12.006 78.334,12.006 l -48.334,0 c -2.205,0 -4,1.795 -4,4 l 0,94 c 0,2.206 1.795,4 4,4 l 66,0 c 2.207,0 4,-1.794 4,-4 l 0,-73.332 c 0,-0.075 -0.012,-0.15 -0.02,-0.224 z M 30,79.924 l 0,-63.917 46.334,0 0,20.466 c 0,1.104 0.895,2 2,2 l 17.666,0 0.002,41.451 z"
         id="path4860"
         inkscape:connector-curvature="0" /></g><text
       inkscape:export-filename="/home/kerb/dev/icons/text3094.png"
       xml:space="preserve"
       style="font-size:35.96525955px;font-style:normal;font-weight:normal;line-height:125%;letter-spacing:-1.57974517px;word-spacing:0px;fill:#ffffff;fill-opacity:1;stroke:none;font-family:Sans"
       x="52.07534"
       y="248.11031"
       id="text4862"
       sodipodi:linespacing="125%"
       transform="scale(0.97596976,1.0246219)"
       inkscape:export-xdpi="46.220001"
       inkscape:export-ydpi="46.220001"><tspan
         sodipodi:role="line"
         id="tspan4864"
         x="51.525337"
         y="248.11031"
         style="font-size:25.27592278px;font-style:normal;font-variant:normal;font-weight:bold;font-stretch:normal;text-align:center;letter-spacing:-1.10000002px;text-anchor:middle;font-family:DejaVu Sans;-inkscape-font-specification:DejaVu Sans Bold">ARFF</tspan></text>
<path
       inkscape:export-ydpi="46.220001"
       inkscape:export-xdpi="46.220001"
       inkscape:export-filename="/home/kerb/dev/icons/text3094.png"
       style="fill:#000000;fill-opacity:1;stroke:none"
       d="m 28.25851,181.0814 c -1.746288,1.52038 -4.135574,1.92248 -6.230729,2.68124 -2.339163,1.04397 -0.147559,3.79249 1.909421,2.78663 2.380602,0.62766 7.554983,0.007 7.631214,3.16424 -1.739607,1.99925 -2.2461,4.59713 -1.44245,7.16538 0.316784,2.65511 1.936565,5.05806 3.880396,6.79291 2.070071,1.3911 4.071915,2.93093 6.333117,4.00383 3.832677,0.83515 1.075615,4.38947 -0.06552,6.40903 -2.314572,2.22051 1.654192,6.87691 2.902364,2.97779 0.429274,-1.84837 -0.03412,-4.10791 2.523071,-4.12761 0.320904,-3.29044 4.263565,-2.34597 5.071813,0.21926 0.506404,2.11283 -0.216079,5.18452 -1.711406,6.60961 -2.439162,0.25588 -7.201599,0.30235 -7.071767,3.61408 1.277254,1.89519 4.032458,2.46022 6.019413,1.35184 1.956044,-1.17468 4.174586,-1.92284 5.72983,-3.64862 1.090307,-1.70131 -0.693071,-3.81771 0.612114,-5.60199 0.280033,-3.47341 3.936974,-2.17812 6.227381,-2.81841 1.830122,-1.34369 3.505178,-3.47816 5.84982,-4.03688 2.76329,0.15598 5.596942,0.91022 7.663617,2.85898 1.507867,1.20712 5.183512,4.287 5.041005,0.42024 -0.288102,-2.95467 -3.736076,-4.04987 -5.213954,-6.35496 -1.207282,-1.82401 -2.497853,-3.58531 -2.872527,-5.77743 -0.838456,-2.00277 -2.057371,-4.15081 -3.995775,-5.21399 -2.203422,-1.85057 -5.085439,-2.57318 -7.163539,-4.56096 -2.320933,-0.40852 -4.090565,-1.97831 -6.185072,-2.91072 -2.103566,-1.0947 -4.638386,-1.62619 -7.013444,-1.49368 -3.373661,0.75707 -4.741389,-2.62997 -6.713871,-4.51507 -1.359151,-2.13079 -4.014382,-2.73192 -6.392288,-2.38867 -2.105485,-0.11867 -3.490599,1.60267 -5.32224,2.39393 z"
       id="path4866"
       inkscape:connector-curvature="0" /></g><g
     id="g4871"
     inkscape:export-filename="/home/kerb/dev/icons/ambit-flaticon/export/inchi.png"
     inkscape:export-xdpi="46.220001"
     inkscape:export-ydpi="46.220001"><path
       inkscape:export-ydpi="46.220001"
       inkscape:export-xdpi="46.220001"
       inkscape:export-filename="/home/kerb/dev/icons/ambit-flaticon/inchi.png"
       inkscape:connector-curvature="0"
       style="fill:#000000"
       d="m 226.90364,221.91884 c 0.27038,-0.61042 1.36894,-3.12282 2.44124,-5.58311 1.37467,-3.15405 2.05435,-4.50065 2.30471,-4.56611 0.22794,-0.0596 0.35506,-0.26953 0.35506,-0.58633 0,-0.27141 0.17655,-0.94135 0.39231,-1.48876 0.36428,-0.92418 0.36773,-0.98503 0.0482,-0.85158 -2.46852,1.0311 -3.00043,1.13316 -5.94158,1.14005 -2.62592,0.006 -3.03494,-0.0404 -4.39658,-0.50015 -5.58125,-1.88453 -9.29608,-6.76844 -9.55436,-12.5612 -0.10426,-2.33813 0.12447,-3.84778 0.8698,-5.74095 1.98704,-5.04721 6.62943,-8.46926 11.96296,-8.81827 l 1.7771,-0.11629 3.04836,-2.85808 3.04835,-2.8581 3.23306,-0.009 3.23305,-0.009 0,0.48255 0,0.48254 -2.2197,0 c -1.22085,0 -2.21972,0.0772 -2.21972,0.17147 0,0.0943 1.05152,1.45082 2.3367,3.01447 2.17687,2.64856 2.32031,2.87359 2.09729,3.29028 -0.40455,0.75595 -1.37386,1.84154 -2.13943,2.39612 l -0.72892,0.52802 0.79043,1.04211 c 1.31977,1.73997 2.6624,5.1351 2.6624,6.73239 0,0.24977 0.0369,0.41734 0.0818,0.37236 0.0449,-0.045 0.17707,-2.90405 0.29356,-6.35351 0.11648,-3.44946 0.26154,-6.99241 0.32235,-7.87324 l 0.11054,-1.60149 1.09172,0.0574 1.09173,0.0574 0.42288,6.65913 c 0.23257,3.66252 0.44973,7.00656 0.48259,7.4312 0.0577,0.74635 0.071,0.72706 0.40046,-0.57906 0.39887,-1.58158 1.41509,-3.80614 2.30445,-5.04454 0.57938,-0.80677 0.60119,-0.88919 0.28259,-1.06749 -1.17426,-0.65716 -2.97741,-2.85673 -2.70423,-3.29876 0.0813,-0.13155 1.12827,-1.43843 2.3266,-2.90417 1.19833,-1.46574 2.17879,-2.7471 2.17879,-2.84747 0,-0.10413 -0.95389,-0.18251 -2.21972,-0.18251 l -2.2197,0 0,-0.48254 0,-0.48254 3.20275,0 3.20275,0 2.99188,2.79875 2.99189,2.79877 1.47783,0.003 c 2.13186,0.005 3.92438,0.44184 6.01376,1.46612 1.55925,0.76439 2.09429,1.16223 3.57506,2.65825 1.91457,1.93431 2.82085,3.4231 3.59714,5.90922 0.64932,2.07952 0.64914,5.64537 -3.8e-4,7.71392 -1.24551,3.96646 -3.65973,6.82755 -7.2683,8.61371 -2.33101,1.15379 -4.01811,1.49115 -6.90039,1.37983 l -2.26796,-0.0876 0,0.84097 0,0.84098 1.44763,0 c 0.7962,0 1.44763,0.0518 1.44763,0.11505 0,0.0633 -0.13947,0.59485 -0.30995,1.18127 -0.36051,1.24012 -0.33461,1.32549 1.0709,3.52913 0.50783,0.7962 1.11515,1.82548 1.34959,2.2873 0.56078,1.10459 0.56929,2.6052 0.0209,3.68017 l -0.40541,0.79466 -4.96463,-0.0515 -4.96467,-0.0515 -0.43429,-0.86123 c -0.66208,-1.31293 -0.58546,-2.38939 0.26922,-3.78256 2.41836,-3.94209 2.49784,-4.18757 1.90224,-5.8757 -0.15925,-0.45133 -0.28954,-0.85312 -0.28954,-0.89285 0,-0.0397 0.70211,-0.0722 1.56023,-0.0722 1.16235,0 1.53975,-0.0615 1.47989,-0.24127 -0.0612,-0.18367 -1.36625,-0.25354 -5.46624,-0.29266 -2.96225,-0.0283 -5.48891,-0.0119 -5.61479,0.0364 -0.29526,0.1133 -0.0987,0.88352 0.22553,0.88352 0.13551,0 0.28943,0.10857 0.34204,0.24127 0.0526,0.1327 1.06079,2.57817 2.24037,5.43437 1.17958,2.8562 2.14469,5.26651 2.14469,5.35625 0,0.0897 -4.9064,0.16316 -10.9031,0.16316 l -10.90309,0 0.49163,-1.10985 z m 9.92647,-1.97844 c 0,-1.52504 -0.0412,-1.73739 -0.33778,-1.73905 -1.24339,-0.007 -3.60327,-1.92505 -4.11728,-3.34653 -0.14021,-0.38773 -0.30941,-0.70496 -0.37601,-0.70496 -0.0667,0 -0.43311,0.76001 -0.81447,1.68891 -0.38137,0.9289 -1.08577,2.62263 -1.56535,3.76385 l -0.87199,2.07495 4.04144,0 4.04144,0 0,-1.73717 z m 9.26486,1.57626 c 0,-0.0885 -0.61626,-1.63023 -1.36946,-3.42607 -0.75322,-1.79584 -1.43938,-3.43889 -1.52482,-3.65121 -0.15533,-0.38603 -0.15533,-0.38603 -0.28753,0 -0.78432,2.29014 -1.93451,3.36587 -3.94213,3.68691 l -0.78979,0.12629 0,1.71249 0,1.7125 3.95687,0 c 2.17628,0 3.95686,-0.0724 3.95686,-0.16091 z m 6.6428,-1.30717 c 0.25242,-0.0969 0.28475,-0.33721 0.18821,-1.39938 -0.0799,-0.87897 -0.0217,-1.64679 0.18476,-2.44054 0.16572,-0.63696 0.36149,-1.75212 0.43503,-2.47813 0.13305,-1.31323 0.13136,-1.31969 -0.32896,-1.25462 -0.4263,0.0603 -0.47263,0.17663 -0.58897,1.47955 -0.11133,1.24695 -0.22787,1.56696 -0.98567,2.70658 -1.11334,1.67431 -1.46075,2.37434 -1.35553,2.73141 0.047,0.15924 0.11915,0.3981 0.16049,0.53081 0.0787,0.25225 1.72446,0.34158 2.29064,0.12432 z m 6.48635,-0.27638 c 0.28403,-0.53073 0.1064,-1.00168 -0.99221,-2.63148 -0.94351,-1.39962 -1.31459,-2.45943 -1.3232,-3.77908 -0.004,-0.64478 -0.0582,-0.72382 -0.4939,-0.72382 -0.47629,0 -0.48612,0.0267 -0.37247,1.01335 0.0642,0.55734 0.28584,1.7687 0.49249,2.69192 0.29116,1.30066 0.33405,1.86415 0.19055,2.50285 -0.2464,1.09664 -0.0341,1.31959 1.25705,1.31959 0.84001,0 1.07021,-0.0729 1.24169,-0.39333 z M 237.7952,214.6324 c 0,-2.18754 -0.0464,-2.60574 -0.28952,-2.60574 -0.24307,0 -0.28954,0.4182 -0.28954,2.60574 0,2.18754 0.0464,2.60575 0.28954,2.60575 0.24306,0 0.28952,-0.41821 0.28952,-2.60575 z m -9.16835,-5.48471 0.57904,-0.13105 -0.64479,-0.61546 c -1.22133,-1.16575 -2.96463,-1.21318 -4.26839,-0.11614 -0.72601,0.61089 -0.73785,0.79798 -0.057,0.90111 0.85508,0.12954 3.7613,0.10407 4.39117,-0.0385 z m 32.29169,-0.3019 c 0.22219,-0.2267 -1.15521,-1.25335 -1.97928,-1.47525 -0.9405,-0.25325 -1.94924,0.007 -2.79863,0.72155 -0.72572,0.61064 -0.73718,0.79447 -0.0569,0.91358 0.76271,0.13355 4.67403,0.004 4.83486,-0.15988 z m -38.17875,-0.19246 c 0,-0.0506 -0.75377,-0.83233 -1.67503,-1.73716 -1.67415,-1.64427 -1.67558,-1.64515 -2.69087,-1.64515 -0.5587,0 -1.06478,0.0792 -1.12459,0.176 -0.0598,0.0968 0.43447,0.58659 1.09845,1.08841 1.61424,1.22 4.39204,2.5595 4.39204,2.1179 z m 9.37159,-0.65491 c 1.50874,-0.73466 3.56062,-2.20461 3.56062,-2.5508 0,-0.0971 -0.5973,-0.1766 -1.32734,-0.1766 l -1.32735,0 -1.51967,1.55483 c -0.83583,0.85515 -1.54862,1.63687 -1.58401,1.73716 -0.13261,0.3758 0.71221,0.15877 2.19775,-0.56459 z m 32.0308,-0.322 c 1.3303,-0.66298 3.1848,-2.07238 3.1848,-2.42042 0,-0.0979 -0.47981,-0.178 -1.06626,-0.178 l -1.06626,0 -1.78076,1.76976 c -1.54751,1.53795 -1.70491,1.75222 -1.20171,1.63589 0.31848,-0.0736 1.18707,-0.43688 1.93019,-0.80723 z m -40.35649,-0.0718 c 0.31817,-0.35157 0.30844,-0.40758 -0.20955,-1.20636 -0.29876,-0.46072 -0.63088,-0.90149 -0.73803,-0.97948 -0.27752,-0.202 -2.17768,-0.18178 -2.30519,0.0245 -0.13034,0.2109 2.31393,2.53001 2.66657,2.53001 0.13889,0 0.40269,-0.16591 0.5862,-0.36869 z m 7.02361,-0.84834 c 0.66341,-0.66936 1.14586,-1.27737 1.0721,-1.35112 -0.0737,-0.0738 -0.72654,-0.1341 -1.45064,-0.1341 l -1.31652,0 -0.48498,0.76824 c -0.26673,0.42253 -0.48382,0.8351 -0.48243,0.91683 0.002,0.13979 1.13326,0.97923 1.35417,1.00519 0.0561,0.007 0.64488,-0.53567 1.3083,-1.20504 z m 25.0977,0.45767 0.64364,-0.55065 -0.52453,-0.79263 -0.52454,-0.79263 -1.42198,0 c -0.78209,0 -1.42199,0.0628 -1.42199,0.13957 0,0.16426 2.35397,2.56634 2.50365,2.55484 0.0562,-0.004 0.39174,-0.25564 0.74575,-0.5585 z m 6.95857,-0.57059 c 0.64906,-0.62531 1.1801,-1.23332 1.1801,-1.35112 0,-0.1327 -0.43301,-0.2142 -1.13799,-0.2142 l -1.13799,0 -0.62336,0.97142 c -0.60184,0.9379 -0.6115,0.98453 -0.27973,1.35113 0.18899,0.20884 0.45056,0.3797 0.58126,0.3797 0.13069,0 0.76867,-0.51162 1.41771,-1.13693 z m -9.04987,0.79311 c 0,-0.083 -0.50195,-0.64752 -1.11545,-1.25462 l -1.11545,-1.10381 -1.31336,0 c -1.58851,0 -1.59291,0.14117 -0.042,1.34742 1.08841,0.84651 1.23829,0.89734 3.34497,1.13464 0.1327,0.0149 0.24127,-0.0407 0.24127,-0.12363 z m -28.02612,-0.86964 c 0.13807,-0.11062 0.22493,-0.42571 0.19302,-0.7002 -0.0539,-0.46422 -0.1355,-0.5031 -1.16787,-0.55695 -1.27826,-0.0667 -1.36143,0.0777 -0.61141,1.06098 0.50785,0.66582 0.93426,0.71856 1.58626,0.19617 z m 22.48403,-0.77066 c -1.46937,-1.53021 -2.45892,-3.07308 -3.17111,-4.94439 l -0.55863,-1.46777 0.094,1.35112 c 0.0516,0.74312 0.14787,2.11114 0.21382,3.04004 0.066,0.9289 0.0738,1.68891 0.0174,1.68891 -0.0564,0 -0.6372,-1.66781 -1.29076,-3.70624 -0.7589,-2.36703 -1.24182,-3.605 -1.33647,-3.42607 -0.0816,0.15409 -0.56133,1.80018 -1.06626,3.65798 -0.50491,1.8578 -0.96095,3.42125 -1.01342,3.47433 -0.0525,0.0531 -0.0428,-1.46694 0.0215,-3.37782 l 0.11688,-3.47433 -0.34398,1.15958 c -0.52288,1.76276 -1.41332,3.52494 -2.51502,4.97725 l -0.99479,1.31138 0.62601,-0.10578 c 0.34429,-0.0582 2.88431,0.14537 5.64446,0.4523 2.76016,0.30694 5.40139,0.56786 5.8694,0.57981 l 0.85092,0.0217 -1.16387,-1.21205 z m -20.10687,-0.38686 c -0.0927,-0.0926 -0.41788,-0.13993 -0.72275,-0.10509 -0.44953,0.0514 -0.56635,0.16885 -0.61802,0.62146 -0.0996,0.87229 0.35799,0.99937 0.97947,0.27202 0.30159,-0.35297 0.45719,-0.69249 0.3613,-0.78839 z m 32.30113,0.68552 c 0.26924,-0.3962 0.48951,-0.7914 0.48951,-0.87821 0,-0.0868 -0.49944,-0.1318 -1.10986,-0.1 -1.08936,0.0568 -1.11094,0.0691 -1.16887,0.66552 -0.0499,0.5147 0.0238,0.63784 0.48255,0.80509 0.78718,0.28701 0.77353,0.29216 1.30667,-0.49244 z m -2.63481,-0.29297 c -0.0552,-0.57271 -0.12349,-0.63253 -0.7843,-0.68722 -0.39809,-0.0329 -0.72382,0.0205 -0.72382,0.11874 0,0.3719 0.81601,1.19579 1.18435,1.19579 0.31726,0 0.37371,-0.1094 0.32377,-0.62731 z m -38.79401,-1.0616 c -0.036,-0.0796 -0.41244,-0.85899 -0.83641,-1.73193 l -0.77085,-1.58716 -1.49589,-0.005 c -0.82274,-0.003 -1.49589,0.065 -1.49589,0.15089 0,0.24588 1.33465,2.40293 1.78441,2.88391 0.33937,0.36296 0.60926,0.43429 1.64313,0.43429 0.6804,0 1.20756,-0.0651 1.1715,-0.14476 z m 3.46574,-0.0965 c -0.0387,-0.1327 -0.2796,-0.91442 -0.53539,-1.73716 l -0.46506,-1.49589 -1.71149,0 c -1.68519,0 -1.70949,0.007 -1.57999,0.43429 0.15732,0.51947 0.74779,1.54977 1.38275,2.41272 0.43886,0.59644 0.52353,0.62731 1.72052,0.62731 0.91597,0 1.23979,-0.0657 1.18866,-0.24127 z m 3.41979,-1.49589 0,-1.64066 -1.88192,-0.0553 c -1.03505,-0.0304 -1.88144,0.013 -1.88085,0.0965 0.002,0.31297 0.42408,1.65866 0.78103,2.49137 l 0.3699,0.86296 1.30593,-0.0571 1.30591,-0.0572 0,-1.64065 z m 2.77615,1.47488 c 0.27773,-0.33463 0.98771,-2.38775 0.98771,-2.85623 0,-0.31411 -0.16966,-0.35581 -1.44763,-0.35581 l -1.44764,0 0,1.73716 0,1.73716 0.84495,0 c 0.47658,0 0.93984,-0.11434 1.06261,-0.26228 z m 4.62782,-1.04059 c 0.41915,-0.71658 0.82074,-1.50142 0.89241,-1.74408 l 0.13032,-0.44122 -1.96393,0.0552 -1.96392,0.0552 -0.43952,1.35113 c -0.24173,0.74312 -0.50325,1.50313 -0.58116,1.68891 -0.12849,0.30643 0.0118,0.33778 1.51103,0.33778 l 1.65269,0 0.76208,-1.30287 z m 3.31454,0.86858 c 0.51151,-0.5457 1.73117,-2.5353 1.73117,-2.82401 0,-0.14379 -0.56479,-0.21212 -1.6889,-0.20434 l -1.68892,0.0117 -0.77207,1.58071 c -0.42465,0.86939 -0.80103,1.64586 -0.83641,1.72548 -0.0355,0.0796 0.59094,0.14476 1.39186,0.14476 1.26084,0 1.51081,-0.0583 1.86327,-0.43429 z m 14.66338,0.14093 c 0,-0.0552 -0.20396,-0.42434 -0.45324,-0.82033 -0.24929,-0.39599 -0.63526,-1.13256 -0.85774,-1.63682 l -0.40447,-0.91683 -1.65151,0 c -1.27066,0 -1.65151,0.0611 -1.65151,0.26476 0,0.14562 0.43254,0.92734 0.9612,1.73716 l 0.96119,1.4724 1.54805,0 c 0.85141,0 1.54803,-0.0452 1.54803,-0.10034 z m 3.86036,-0.0793 c 0,-0.0988 -0.23091,-0.88054 -0.51314,-1.73716 l -0.51313,-1.5575 -1.8996,0 c -1.17845,0 -1.89957,0.0757 -1.89957,0.19944 0,0.26396 0.91588,2.07336 1.38902,2.74409 0.35478,0.50297 0.45469,0.5308 1.90541,0.5308 0.84206,0 1.53101,-0.0808 1.53101,-0.17967 z m 2.66152,-1.60575 0.0558,-1.68891 -1.56466,0 c -1.39737,0 -1.5546,0.0361 -1.47047,0.33778 0.0517,0.18578 0.15447,0.55493 0.22812,0.82033 0.0736,0.2654 0.31022,0.89937 0.52569,1.40882 l 0.39177,0.92628 0.88901,-0.0577 0.889,-0.0577 0.0558,-1.68891 z m 3.85523,0.86858 c 0.21324,-0.50426 0.44108,-1.11227 0.50632,-1.35113 0.0652,-0.23886 0.16788,-0.608 0.22813,-0.82032 0.10436,-0.36773 0.0174,-0.38604 -1.83368,-0.38604 l -1.94319,0 0,1.60849 c 0,0.88466 0.058,1.66639 0.12868,1.73716 0.0707,0.0708 0.66808,0.12868 1.32736,0.12868 l 1.19868,0 0.3877,-0.91684 z m 3.1817,0.57906 c 0.32373,-0.36406 1.68963,-2.79557 1.68963,-3.00782 0,-0.0708 -0.76795,-0.12873 -1.70658,-0.12873 l -1.70657,0 -0.51313,1.5575 c -0.28223,0.85662 -0.51314,1.63834 -0.51314,1.73716 0,0.0988 0.55111,0.17967 1.2247,0.17967 0.92328,0 1.29864,-0.0831 1.52509,-0.33778 z m 4.34363,-1.29205 c 0.55734,-0.84332 1.01335,-1.60332 1.01335,-1.6889 0,-0.0856 -0.67316,-0.15521 -1.49591,-0.15473 l -1.49588,9.7e-4 -0.82033,1.60623 c -0.45118,0.88343 -0.82032,1.66873 -0.82032,1.74511 0,0.0764 0.58629,0.11319 1.30287,0.0818 l 1.30288,-0.0571 1.01334,-1.53331 z m -52.14143,-2.76133 c -0.0658,-0.29194 -0.17539,-1.16053 -0.24337,-1.93019 l -0.1236,-1.39938 -1.7093,0 c -0.94012,0 -1.70931,0.075 -1.70931,0.16667 0,0.27868 0.37509,2.16413 0.58732,2.95231 l 0.19963,0.74138 1.5592,0 1.55922,0 -0.11979,-0.53079 z m 4.25205,-0.19302 c -0.0659,-0.3981 -0.1206,-1.26668 -0.12176,-1.93019 l -0.002,-1.20636 -1.93018,0 -1.93018,0 0,0.95037 c 0,0.5227 0.10169,1.39128 0.22617,1.93018 l 0.22617,0.97981 1.82578,0 1.82578,0 -0.11965,-0.72381 z m 4.60505,-1.20637 0,-1.83367 -2.12319,0 -2.1232,0 0.052,1.0616 c 0.0286,0.58388 0.0995,1.43372 0.15758,1.88854 l 0.10555,0.82694 1.96561,-0.0549 1.96562,-0.0549 0,-1.83368 z m 4.0429,1.75414 c 0.0599,-0.0968 0.16483,-0.9654 0.2333,-1.93018 l 0.12452,-1.75414 -1.76607,0 -1.76606,0 0,1.93018 0,1.93018 1.53276,0 c 0.843,0 1.58171,-0.0792 1.64155,-0.17604 z m 4.91646,-0.79855 c 0.11495,-0.53602 0.20902,-1.4046 0.20902,-1.93018 l 0,-0.95559 -2.12321,0 -2.1232,0 -0.014,0.91684 c -0.008,0.50426 -0.079,1.37284 -0.15842,1.93018 l -0.14432,1.01334 2.0726,0 2.0726,0 0.20902,-0.97459 z m 4.15479,-0.0134 c 0.16136,-0.54337 0.34964,-1.41195 0.41838,-1.93018 l 0.12498,-0.94223 -1.92719,0 -1.92718,0 -0.1236,1.39938 c -0.068,0.76966 -0.1775,1.63824 -0.24338,1.93018 l -0.11978,0.5308 1.75219,0 1.75218,0 0.2934,-0.98795 z m 10.22497,0.16762 c -0.0788,-0.34502 -0.19428,-1.19188 -0.25661,-1.88192 l -0.1134,-1.25462 -1.88193,-0.0553 -1.88193,-0.0553 0.002,0.53779 c 0.003,0.55952 0.50483,2.87189 0.68741,3.16732 0.0575,0.0931 0.88808,0.16923 1.84569,0.16923 l 1.74112,0 -0.14327,-0.62731 z m 4.67708,-0.38603 c -0.067,-0.55734 -0.12247,-1.42592 -0.1234,-1.93018 l -0.002,-0.91684 -2.24195,0 -2.24194,0 0.13351,1.10986 c 0.0734,0.61042 0.22405,1.479 0.33468,1.93018 l 0.20116,0.82032 2.03067,0 2.03066,0 -0.12172,-1.01334 z m 3.92831,-0.91684 0,-1.93018 -1.73716,0 -1.73717,0 0,1.03466 c 0,0.56906 0.0552,1.43764 0.12275,1.93018 l 0.12274,0.89552 1.61443,0 1.61441,0 0,-1.93018 z m 4.89573,1.03466 c 0.0675,-0.49254 0.12274,-1.36112 0.12274,-1.93018 l 0,-1.03466 -2.1232,0 -2.1232,0 0,1.93018 0,1.93018 2.00045,0 2.00046,0 0.12275,-0.89552 z m 4.30143,-0.16608 c 0.12302,-0.5308 0.23201,-1.37766 0.24219,-1.88192 l 0.0185,-0.91684 -1.93019,0 -1.93018,0 -0.002,0.91684 c -9.7e-4,0.50426 -0.0568,1.37626 -0.1243,1.93779 l -0.12263,1.02096 1.81229,-0.0559 1.81229,-0.0559 0.22366,-0.96509 z m 3.80489,-0.24127 c 0.16744,-0.71658 0.3288,-1.56345 0.35858,-1.88193 l 0.0542,-0.57905 -1.68892,-0.0558 -1.6889,-0.0558 -0.003,0.82784 c -0.002,0.45532 -0.12056,1.32728 -0.2642,1.9377 l -0.26117,1.10985 1.59453,0 1.59451,0 0.30444,-1.30287 z m -29.13946,-2.71771 c 0.25824,-1.2028 0.5069,-2.2243 0.55261,-2.27001 0.0458,-0.0457 0.32671,0.85155 0.62444,1.99389 0.70493,2.70462 0.8977,3.00801 0.76781,1.20841 -0.14363,-1.98997 -0.86287,-15.93396 -0.86287,-16.72852 0,-0.58589 -0.0515,-0.64311 -0.57905,-0.64311 -0.5408,0 -0.57906,0.048 -0.57906,0.72626 0,0.70461 -0.27524,9.81091 -0.46811,15.48726 -0.0524,1.53932 -0.0569,2.71191 -0.0107,2.60575 0.0467,-0.10616 0.2962,-1.17713 0.55441,-2.37993 z M 216.763,195.76489 c 0.003,-0.34502 0.12326,-1.17017 0.26561,-1.83367 l 0.25881,-1.20636 -1.78993,0 -1.78993,0 -0.21283,1.22217 c -0.11706,0.6722 -0.21283,1.49735 -0.21283,1.83367 l 0,0.6115 1.73717,0 1.73715,0 0.006,-0.62731 z m 4.43432,-0.19302 c 9.6e-4,-0.45118 0.0568,-1.27975 0.1243,-1.84128 l 0.12261,-1.02096 -1.81227,0.0559 -1.81229,0.0559 -0.22366,0.96509 c -0.12303,0.5308 -0.232,1.33424 -0.2422,1.78542 l -0.0185,0.82032 1.93018,0 1.93018,0 0.002,-0.82032 z m 4.78277,-1.0616 0.0555,-1.78541 -2.00868,0 -2.00866,0 -0.11965,0.72381 c -0.0659,0.3981 -0.1206,1.22619 -0.12176,1.84021 l -0.002,1.11638 2.07495,-0.0548 2.07494,-0.0548 0.0554,-1.78542 z m 4.28604,1.35113 c -7.9e-4,-0.29194 -0.0567,-1.11709 -0.12443,-1.83367 l -0.12305,-1.30287 -1.61274,0 -1.61274,0 0,1.83367 0,1.83367 1.73716,0 1.73717,0 -0.001,-0.5308 z m 4.76085,-0.57905 c -0.0665,-0.61042 -0.21327,-1.43558 -0.3261,-1.83368 l -0.20513,-0.72381 -1.97938,0 -1.97938,0 0.14486,1.30287 c 0.0797,0.71658 0.14934,1.54173 0.15478,1.83367 l 0.0107,0.5308 2.15071,0 2.15069,0 -0.12095,-1.10985 z m 4.43793,-0.28953 c -0.21475,-2.42121 -0.0534,-2.26796 -2.38843,-2.26796 -1.84948,0 -2.01352,0.0293 -1.89424,0.33778 0.0718,0.18578 0.22909,1.01093 0.34948,1.83367 l 0.21888,1.49589 1.91922,0 1.91919,0 -0.1241,-1.39938 z m 9.52837,0.48254 c 0.002,-0.3981 0.12053,-1.22325 0.26417,-1.83367 l 0.26118,-1.10985 -1.9807,0 c -2.30476,0 -2.19415,-0.10197 -2.35643,2.17145 l -0.10672,1.49589 1.95776,0 1.95776,0 0.003,-0.72382 z m 4.8241,-0.0965 c 9.7e-4,-0.45118 0.0568,-1.2795 0.12424,-1.84073 l 0.12255,-1.0204 -1.99267,0.0553 -1.99266,0.0553 -0.16323,0.57905 c -0.0897,0.31848 -0.23233,1.12192 -0.31678,1.78542 l -0.15354,1.20636 2.18521,0 2.1852,0 0.002,-0.82032 z m 4.05171,-1.01334 0,-1.83367 -1.61441,0 -1.61443,0 -0.12274,0.89552 c -0.0675,0.49254 -0.12275,1.31769 -0.12275,1.83367 l 0,0.93815 1.73717,0 1.73716,0 0,-1.83367 z m 5.01847,1.18642 c 0,-0.35599 -0.0558,-1.18114 -0.12401,-1.83367 l -0.12401,-1.18642 -1.99918,0 -1.9992,0 0,1.83367 0,1.83367 2.1232,0 2.1232,0 0,-0.64725 z m 4.363,-0.4626 c -0.0713,-0.61042 -0.21685,-1.43557 -0.32354,-1.83367 l -0.19398,-0.72382 -1.77798,-2e-4 -1.77797,-1.9e-4 0.1808,1.8339 0.1808,1.8339 1.92072,0 1.92072,0 -0.12957,-1.10986 z m 4.04131,-0.13647 c -0.25998,-2.42753 -0.15641,-2.31629 -2.21647,-2.38032 -1.50498,-0.0468 -1.77813,-0.0103 -1.68802,0.22432 0.059,0.15407 0.21503,0.98262 0.34646,1.84123 l 0.23898,1.56109 1.72625,0 1.72626,0 -0.13346,-1.24632 z m -53.55886,-3.53088 c 0.12906,-0.39809 0.54765,-1.33182 0.93021,-2.07494 0.38257,-0.74312 0.72525,-1.41627 0.7615,-1.49589 0.0362,-0.0796 -0.63563,-0.14476 -1.4931,-0.14476 l -1.55901,0 -0.60369,0.82032 c -0.64796,0.88048 -1.71454,2.98145 -1.71479,3.37782 -1.2e-4,0.175 0.47288,0.24127 1.72203,0.24127 l 1.7222,0 0.23465,-0.72382 z m 3.84867,0.45589 c 0,-0.26161 0.80853,-3.16234 1.06857,-3.8337 0.11651,-0.30078 -0.01,-0.33778 -1.14201,-0.33778 l -1.27285,0 -0.51476,0.81545 c -0.5145,0.815 -1.24772,2.3704 -1.50364,3.18967 -0.13381,0.42842 -0.11202,0.43429 1.61452,0.43429 1.36434,0 1.75017,-0.0591 1.75017,-0.26793 z m 4.3429,-1.95178 0,-2.12319 -1.29175,-0.0568 -1.29177,-0.0568 -0.47673,1.50907 c -0.26219,0.82999 -0.53804,1.83599 -0.613,2.23554 l -0.13628,0.72647 1.90477,-0.0556 1.90476,-0.0556 0,-2.1232 z m 3.95689,2.10711 c 0,-0.36877 -0.84463,-3.32819 -1.07951,-3.78239 -0.24521,-0.47416 -0.39301,-0.54442 -1.14516,-0.54442 l -0.86363,0 0,2.2197 0,2.21971 1.54414,0 c 0.84929,0 1.54416,-0.0506 1.54416,-0.11259 z m 4.43941,-0.0103 c 0,-0.3118 -1.70542,-3.66998 -1.97678,-3.89253 -0.1684,-0.13811 -0.93541,-0.30386 -1.70444,-0.36834 -1.31326,-0.11008 -1.39144,-0.0949 -1.28608,0.25112 0.28291,0.92882 0.88968,3.12231 0.99623,3.60138 l 0.11805,0.5308 1.92651,0 c 1.05958,0 1.92651,-0.0551 1.92651,-0.12243 z m 4.43942,-0.1726 c 0,-0.41088 -0.9986,-2.33476 -1.73826,-3.34894 l -0.61643,-0.8452 -1.47665,0.13287 c -0.81217,0.073 -1.55282,0.20822 -1.6459,0.30029 -0.0967,0.0956 -2e-4,0.44244 0.22478,0.80883 0.21671,0.35279 0.62783,1.22773 0.91359,1.94431 l 0.51955,1.30287 1.90965,0 c 1.58463,0 1.90967,-0.0502 1.90967,-0.29503 z m 11.2066,-0.6218 c 0.12899,-0.3981 0.48884,-1.23204 0.79968,-1.85321 0.31083,-0.62116 0.53776,-1.15153 0.50427,-1.1786 -0.26788,-0.21653 -3.11016,-0.71396 -3.21406,-0.5625 -0.0704,0.10276 -0.4163,0.59765 -0.7685,1.09983 -0.54076,0.77105 -1.57935,2.82756 -1.57935,3.12729 0,0.0501 0.90529,0.091 2.01173,0.091 l 2.01172,0 0.23451,-0.72381 z m 4.23484,0.45587 c 0,-0.26159 0.80852,-3.16233 1.06857,-3.83369 0.30946,-0.79892 -2.79946,-0.19471 -3.41,0.66271 -0.39011,0.54787 -1.19657,2.25813 -1.41682,3.00463 -0.12689,0.43011 -0.10939,0.43429 1.81507,0.43429 1.52899,0 1.94318,-0.0572 1.94318,-0.26794 z m 3.62541,-2.00002 0.0546,-2.17145 -0.96301,0 -0.96303,0 -0.47399,1.5005 c -0.26072,0.82529 -0.53546,1.82799 -0.61054,2.22824 l -0.13652,0.72774 1.51897,-0.0568 1.51897,-0.0568 0.0545,-2.17145 z m 4.67438,2.1113 c 0,-0.39058 -0.82221,-3.24076 -1.07703,-3.73353 -0.26778,-0.51782 -0.35547,-0.54922 -1.53368,-0.54922 l -1.24966,0 0,2.09102 c 0,1.15007 0.058,2.14894 0.12868,2.21972 0.18557,0.18556 3.73169,0.15898 3.73169,-0.028 z m 3.93734,-0.005 c 0.0549,-0.0888 -0.35259,-1.06593 -0.90545,-2.17145 l -1.00521,-2.01004 -1.32783,-0.0576 c -1.20488,-0.0524 -1.31737,-0.0255 -1.2148,0.28953 0.19269,0.59183 0.86096,3.02138 0.98476,3.58022 0.11691,0.52773 0.127,0.5308 1.74317,0.5308 0.89408,0 1.67049,-0.0727 1.72536,-0.16141 z m 4.16942,-0.0371 c 0,-0.30066 -1.13552,-2.49246 -1.7721,-3.42057 l -0.56267,-0.82032 -1.53487,0 c -0.84418,0 -1.53488,0.0497 -1.53488,0.11042 0,0.0607 0.21061,0.47329 0.46802,0.91683 0.25741,0.44356 0.70092,1.39274 0.98561,2.10933 l 0.51761,1.30287 1.71664,0 c 1.04748,0 1.71664,-0.0774 1.71664,-0.19852 z m -50.14886,-5.36845 c 0.2851,-0.4033 0.93345,-1.19493 1.44076,-1.75918 1.02951,-1.14507 0.92566,-1.17081 -1.0872,-0.26959 -1.07357,0.48068 -3.67073,2.33095 -3.67073,2.61511 0,0.0854 0.62972,0.15332 1.39939,0.15106 1.39893,-0.005 1.39954,-0.005 1.91778,-0.7374 z m 3.08751,-0.20286 0.51763,-0.93882 -0.53974,-0.51711 -0.53974,-0.51709 -0.8182,0.9279 c -0.45002,0.51034 -0.98886,1.16676 -1.19741,1.4587 l -0.37917,0.5308 1.2195,-0.002 1.2195,-0.002 0.51763,-0.93881 z m 2.47416,0.45199 c 0,-0.37943 -0.15358,-0.55657 -0.66937,-0.77208 -0.36815,-0.15382 -0.7085,-0.27967 -0.75632,-0.27967 -0.10641,0 -0.89053,1.25217 -0.89053,1.42215 0,0.0671 0.52115,0.12199 1.15811,0.12199 1.11281,0 1.15811,-0.0193 1.15811,-0.49239 z m 1.98781,-0.18317 c -0.17719,-0.37156 -0.38582,-0.67556 -0.46363,-0.67556 -0.47244,0 -0.75211,0.29476 -0.75211,0.79272 0,0.52241 0.0496,0.5584 0.76895,0.5584 l 0.76895,0 -0.32216,-0.67556 z m 1.66345,0.6273 c -0.0443,-0.0265 -0.32695,-0.2654 -0.62825,-0.5308 l -0.54782,-0.48254 0.24102,0.5308 c 0.14648,0.32257 0.39292,0.5308 0.62824,0.5308 0.21298,0 0.35104,-0.0217 0.30681,-0.0482 z m 26.32419,-0.82032 c 0.17719,-0.37156 0.29717,-0.67556 0.26663,-0.67556 -0.0305,0 -0.35018,0.304 -0.7103,0.67556 -0.5703,0.58839 -0.6047,0.67556 -0.26664,0.67556 0.25356,0 0.49986,-0.23425 0.71031,-0.67556 z m 1.87254,0.11715 c 0,-0.49566 -0.27963,-0.79271 -0.74624,-0.79271 -0.13712,0 -0.79791,1.02373 -0.79791,1.23614 0,0.0632 0.34745,0.11498 0.77207,0.11498 0.72285,0 0.77208,-0.0357 0.77208,-0.55841 z m 2.70226,-0.21366 c -0.43538,-0.85341 -0.45604,-0.86216 -1.32234,-0.56017 -0.49348,0.17202 -0.60785,0.3173 -0.60785,0.77207 0,0.55618 0.007,0.56017 1.16203,0.56017 l 1.16203,0 -0.39387,-0.77207 z m 3.2502,0.43429 c -0.15619,-0.18578 -0.70423,-0.84059 -1.21789,-1.45515 l -0.93392,-1.11735 -0.54325,0.52046 -0.54323,0.52045 0.52483,0.93449 0.52485,0.93449 1.23629,1.9e-4 c 1.1569,1.9e-4 1.21805,-0.0215 0.95232,-0.33758 z m 2.75689,-0.62529 c -0.93936,-0.85563 -3.07227,-2.07014 -4.24353,-2.41632 -0.37111,-0.10974 -0.25643,0.10059 0.61524,1.12812 0.58927,0.69461 1.21709,1.4853 1.39517,1.75711 0.30163,0.46032 0.42472,0.49356 1.79748,0.4854 l 1.47371,-0.009 -1.03807,-0.94555 z m -39.09143,-1.01756 c 0.0456,-0.0456 -0.10083,-0.49836 -0.32548,-1.00613 l -0.40837,-0.92322 -1.46449,0.13271 c -0.80546,0.073 -1.5413,0.18017 -1.63516,0.23819 -0.26545,0.16404 0.64252,1.0407 1.499,1.44732 0.68809,0.32667 2.05395,0.39168 2.3345,0.1111 z m 32.45946,-0.56206 c 0.60648,-0.37278 1.13612,-1.06378 0.95454,-1.24536 -0.0482,-0.0482 -0.8154,-0.139 -1.70488,-0.20178 l -1.61724,-0.11408 -0.28572,0.7491 c -0.3835,1.00548 -0.36994,1.0953 0.18988,1.2579 0.67991,0.19749 1.72443,0.008 2.46342,-0.44573 z m -27.26102,-2.48425 c 0.0685,-0.11076 0.0627,-0.9449 -0.0131,-1.85352 l -0.13762,-1.65206 -1.71267,1.70475 c -0.94198,0.93761 -1.71269,1.7717 -1.71269,1.85353 0,0.22934 3.43302,0.17875 3.57607,-0.0527 z m 4.53069,0.0888 c 0,-0.12916 -2.90649,-3.55473 -3.01607,-3.55473 -0.0397,0 -0.0722,0.82516 -0.0722,1.83367 l 0,1.83367 1.54414,0 c 0.84928,0 1.54414,-0.0506 1.54414,-0.11259 z m 12.7392,-1.76242 c 0,-1.56959 -0.0416,-1.82899 -0.25557,-1.5924 -0.14055,0.15545 -0.84292,0.99922 -1.5608,1.87503 l -1.30522,1.5924 1.56079,0 1.5608,0 0,-1.87503 z m 3.47052,0.0363 -1.82986,-1.8387 -0.13364,0.72885 c -0.17463,0.95235 -0.19106,2.65601 -0.0272,2.81986 0.0707,0.0708 0.95935,0.12868 1.97462,0.12868 l 1.84595,0 -1.82986,-1.83869 z m -12.45463,-2.1094 c -1.02135,-1.02136 -0.30772,-2.80754 1.12171,-2.80754 0.73384,0 1.42674,0.53812 1.60441,1.24603 0.39757,1.58404 -1.57418,2.71344 -2.72612,1.56151 z m 0.35428,-5.31677 c 0.3242,-1.0616 0.6439,-1.93018 0.71043,-1.93018 0.0665,0 0.38711,0.86858 0.71236,1.93018 l 0.59137,1.93018 -1.30179,0 -1.30181,0 0.58944,-1.93018 z"
       id="path1880" /><g
       inkscape:export-ydpi="46.220001"
       inkscape:export-xdpi="46.220001"
       inkscape:export-filename="/home/kerb/dev/icons/ambit-flaticon/inchi.png"
       id="g3234"
       transform="translate(179.18499,149.11373)"><path
         inkscape:connector-curvature="0"
         id="path3236"
         d="M 99.98,36.45 C 99.974,35.982 99.826,35.52 99.505,35.155 L 79.838,12.69 C 79.834,12.684 79.828,12.682 79.822,12.676 79.705,12.545 79.57,12.437 79.426,12.342 79.383,12.314 79.34,12.289 79.295,12.264 79.168,12.196 79.037,12.14 78.9,12.099 78.863,12.088 78.83,12.073 78.793,12.063 78.643,12.028 78.49,12.006 78.334,12.006 l -48.334,0 c -2.205,0 -4,1.795 -4,4 l 0,94 c 0,2.206 1.795,4 4,4 l 66,0 c 2.207,0 4,-1.794 4,-4 l 0,-73.332 c 0,-0.075 -0.012,-0.15 -0.02,-0.224 z M 30,79.924 l 0,-63.917 46.334,0 0,20.466 c 0,1.104 0.895,2 2,2 l 17.666,0 0.002,41.451 z"
         sodipodi:nodetypes="ccccccccssssssssccccssccc" /></g><text
       inkscape:export-filename="/home/kerb/dev/icons/ambit-flaticon/inchi.png"
       inkscape:export-ydpi="46.220001"
       inkscape:export-xdpi="46.220001"
       transform="scale(1.0671794,0.93704957)"
       sodipodi:linespacing="125%"
       id="text3248"
       y="271.29755"
       x="226.74313"
       style="font-size:34.14974213px;font-style:normal;font-weight:normal;line-height:125%;letter-spacing:0px;word-spacing:0px;fill:#ffffff;fill-opacity:1;stroke:none;font-family:Sans"
       xml:space="preserve"><tspan
         style="font-size:24px;font-style:normal;font-variant:normal;font-weight:bold;font-stretch:normal;text-align:center;letter-spacing:-1.5px;text-anchor:middle;font-family:DejaVu Sans;-inkscape-font-specification:DejaVu Sans Bold"
         y="271.29755"
         x="225.99313"
         id="tspan3250"
         sodipodi:role="line">InChI</tspan></text>
</g><g
     id="g4774"
     inkscape:export-filename="/home/kerb/dev/icons/ambit-flaticon/smi.png"
     inkscape:export-xdpi="46.220001"
     inkscape:export-ydpi="46.220001"><g
       transform="translate(-291.01255,149.02092)"
       id="g4115"
       inkscape:export-filename="/home/kerb/dev/icons/text3092.png"
       inkscape:export-xdpi="46.220001"
       inkscape:export-ydpi="46.220001"><path
         sodipodi:nodetypes="ccccccccssssssssccccssccc"
         d="M 99.98,36.45 C 99.974,35.982 99.826,35.52 99.505,35.155 L 79.838,12.69 C 79.834,12.684 79.828,12.682 79.822,12.676 79.705,12.545 79.57,12.437 79.426,12.342 79.383,12.314 79.34,12.289 79.295,12.264 79.168,12.196 79.037,12.14 78.9,12.099 78.863,12.088 78.83,12.073 78.793,12.063 78.643,12.028 78.49,12.006 78.334,12.006 l -48.334,0 c -2.205,0 -4,1.795 -4,4 l 0,94 c 0,2.206 1.795,4 4,4 l 66,0 c 2.207,0 4,-1.794 4,-4 l 0,-73.332 c 0,-0.075 -0.012,-0.15 -0.02,-0.224 z M 30,79.924 l 0,-63.917 46.334,0 0,20.466 c 0,1.104 0.895,2 2,2 l 17.666,0 0.002,41.451 z"
         id="path4117"
         inkscape:connector-curvature="0" /></g><text
       xml:space="preserve"
       style="font-size:35.96525955px;font-style:normal;font-weight:normal;line-height:125%;letter-spacing:-1.10000002px;word-spacing:0px;fill:#ffffff;fill-opacity:1;stroke:none;font-family:Sans"
       x="-234.13432"
       y="251.90053"
       id="text4119"
       sodipodi:linespacing="125%"
       transform="scale(0.97596976,1.0246219)"
       inkscape:export-xdpi="46.220001"
       inkscape:export-ydpi="46.220001"><tspan
         sodipodi:role="line"
         id="tspan4121"
         x="-234.68433"
         y="251.90053"
         style="font-size:32px;font-style:normal;font-variant:normal;font-weight:bold;font-stretch:normal;text-align:center;letter-spacing:-1.10000002px;text-anchor:middle;font-family:DejaVu Sans;-inkscape-font-specification:DejaVu Sans Bold">SMI</tspan></text>
<text
       xml:space="preserve"
       style="font-size:40px;font-style:normal;font-weight:normal;line-height:139.99999762%;letter-spacing:0px;word-spacing:0px;fill:#000000;fill-opacity:1;stroke:none;font-family:Sans"
       x="-257.27194"
       y="181.53139"
       id="text4123"
       sodipodi:linespacing="140%"><tspan
         sodipodi:role="line"
         x="-257.27194"
         y="181.53139"
         style="font-size:14px;font-style:normal;font-variant:normal;font-weight:bold;font-stretch:normal;line-height:139.99999762%;font-family:Droid Sans;-inkscape-font-specification:Droid Sans Bold"
         id="tspan4125">[C@H]</tspan><tspan
         sodipodi:role="line"
         x="-257.27194"
         y="201.13139"
         style="font-size:14px;font-style:normal;font-variant:normal;font-weight:bold;font-stretch:normal;line-height:139.99999762%;letter-spacing:0.98999995px;font-family:Droid Sans;-inkscape-font-specification:Droid Sans Bold"
         id="tspan4127">(C(=O)N</tspan><tspan
         sodipodi:role="line"
         x="-257.27194"
         y="220.73138"
         style="font-size:14px;font-style:normal;font-variant:normal;font-weight:bold;font-stretch:normal;line-height:139.99999762%;letter-spacing:1.11000001px;font-family:Droid Sans;-inkscape-font-specification:Droid Sans Bold"
         id="tspan4129">[C@@H]</tspan></text>
</g><g
     id="g4784"
     inkscape:export-filename="/home/kerb/dev/icons/ambit-flaticon/cml.png"
     inkscape:export-xdpi="46.220001"
     inkscape:export-ydpi="46.220001"><g
       transform="translate(-197.82422,148.11964)"
       id="g4060"
       inkscape:export-filename="/home/kerb/dev/icons/text3092.png"
       inkscape:export-xdpi="46.220001"
       inkscape:export-ydpi="46.220001"><path
         sodipodi:nodetypes="ccccccccssssssssccccssccc"
         d="M 99.98,36.45 C 99.974,35.982 99.826,35.52 99.505,35.155 L 79.838,12.69 C 79.834,12.684 79.828,12.682 79.822,12.676 79.705,12.545 79.57,12.437 79.426,12.342 79.383,12.314 79.34,12.289 79.295,12.264 79.168,12.196 79.037,12.14 78.9,12.099 78.863,12.088 78.83,12.073 78.793,12.063 78.643,12.028 78.49,12.006 78.334,12.006 l -48.334,0 c -2.205,0 -4,1.795 -4,4 l 0,94 c 0,2.206 1.795,4 4,4 l 66,0 c 2.207,0 4,-1.794 4,-4 l 0,-73.332 c 0,-0.075 -0.012,-0.15 -0.02,-0.224 z M 30,79.924 l 0,-63.917 46.334,0 0,20.466 c 0,1.104 0.895,2 2,2 l 17.666,0 0.002,41.451 z"
         id="path4062"
         inkscape:connector-curvature="0" /></g><text
       xml:space="preserve"
       style="font-size:35.96525955px;font-style:normal;font-weight:normal;line-height:125%;letter-spacing:-1.57974517px;word-spacing:0px;fill:#ffffff;fill-opacity:1;stroke:none;font-family:Sans"
       x="-138.14223"
       y="249.08051"
       id="text4064"
       sodipodi:linespacing="125%"
       transform="scale(0.97596976,1.0246219)"
       inkscape:export-xdpi="46.220001"
       inkscape:export-ydpi="46.220001"><tspan
         sodipodi:role="line"
         id="tspan4066"
         x="-138.69223"
         y="249.08051"
         style="font-size:28px;font-style:normal;font-variant:normal;font-weight:bold;font-stretch:normal;text-align:center;letter-spacing:-1.10000002px;text-anchor:middle;font-family:DejaVu Sans;-inkscape-font-specification:DejaVu Sans Bold">CML</tspan></text>
<text
       xml:space="preserve"
       style="font-size:40px;font-style:normal;font-weight:normal;line-height:125%;letter-spacing:0px;word-spacing:0px;fill:#000000;fill-opacity:1;stroke:none;font-family:Sans;-inkscape-font-specification:Droid Sans"
       x="-164.0251"
       y="183.40878"
       id="text4068"
       sodipodi:linespacing="125%"><tspan
         sodipodi:role="line"
         x="-164.0251"
         y="183.40878"
         id="tspan4070"
         style="font-size:24px;font-style:normal;font-variant:normal;font-weight:bold;font-stretch:normal;font-family:Droid Sans;-inkscape-font-specification:Droid Sans Bold">&lt;</tspan></text>
<text
       sodipodi:linespacing="125%"
       id="text4072"
       y="223.66949"
       x="-103.11382"
       style="font-size:40px;font-style:normal;font-weight:normal;text-align:end;line-height:125%;letter-spacing:0px;word-spacing:0px;text-anchor:end;fill:#000000;fill-opacity:1;stroke:none;font-family:Sans"
       xml:space="preserve"><tspan
         style="font-size:24px;font-style:normal;font-variant:normal;font-weight:bold;font-stretch:normal;text-align:end;text-anchor:end;font-family:Droid Sans;-inkscape-font-specification:Droid Sans Bold"
         id="tspan4074"
         y="223.66949"
         x="-103.11382"
         sodipodi:role="line">/&gt;</tspan></text>
<g
       style="fill:#000000;stroke:#000000;stroke-width:1.58474624;stroke-miterlimit:4;stroke-dasharray:none"
       transform="matrix(0.23015974,-0.25642439,0.25642439,0.23015974,-168.4354,202.02542)"
       id="g4389"><g
         transform="translate(22.8047,90.835)"
         style="fill:#000000;fill-rule:evenodd;stroke:#000000;stroke-width:1.58474624;stroke-miterlimit:4;stroke-dasharray:none"
         id="g4303"><path
           style="fill:#000000;stroke:#000000;stroke-width:1.58474624;stroke-miterlimit:4;stroke-dasharray:none"
           inkscape:connector-curvature="0"
           d="m 11.6621,0 c 0,0 -1.7998,0 -1.7998,0 0,0 0,12.194 0,12.194 C 9.8623,12.194 2.0664,0 2.0664,0 2.0664,0 0,0 0,0 c 0,0 0,14.915 0,14.915 0,0 1.8008,0 1.8008,0 0,0 0,-12.0918 0,-12.0918 0,0 7.7138,12.0918 7.7138,12.0918 0,0 2.1475,0 2.1475,0 0,0 0,-14.915 0,-14.915 z"
           id="path4305" /></g><g
         transform="translate(2.40039,53.25)"
         style="fill:#000000;fill-rule:nonzero;stroke:#000000;stroke-width:1.58474624;stroke-miterlimit:4;stroke-dasharray:none"
         id="g4307"><path
           style="fill:#000000;stroke:#000000;stroke-width:1.58474624;stroke-miterlimit:4;stroke-dasharray:none"
           inkscape:connector-curvature="0"
           d="m 1.25,29.4502 c 0,0 -1.25,0.7002 -1.25,0.7002 C 0,30.1504 0,0 0,0 c 0,0 1.25,0.7002 1.25,0.7002 0,0 0,28.75 0,28.75 z"
           id="path4309" /></g><g
         transform="translate(7.7002,56.6504)"
         style="fill:#000000;fill-rule:nonzero;stroke:#000000;stroke-width:1.58474624;stroke-miterlimit:4;stroke-dasharray:none"
         id="g4311"><path
           style="fill:#000000;stroke:#000000;stroke-width:1.58474624;stroke-miterlimit:4;stroke-dasharray:none"
           inkscape:connector-curvature="0"
           d="m 1.25,23.3496 c 0,0 -1.25,0 -1.25,0 C 0,23.3496 0,0 0,0 c 0,0 1.25,0 1.25,0 0,0 0,23.3496 0,23.3496 z"
           id="path4313" /></g><g
         transform="translate(2.40039,82.7002)"
         style="fill:#000000;fill-rule:nonzero;stroke:#000000;stroke-width:1.58474624;stroke-miterlimit:4;stroke-dasharray:none"
         id="g4315"><path
           style="fill:#000000;stroke:#000000;stroke-width:1.58474624;stroke-miterlimit:4;stroke-dasharray:none"
           inkscape:connector-curvature="0"
           d="m 16.4492,8.7998 c 0,0 -0.6494,1.0498 -0.6494,1.0498 C 15.7998,9.8496 0,0.7002 0,0.7002 0,0.7002 1.25,0 1.25,0 c 0,0 15.1992,8.7998 15.1992,8.7998 z"
           id="path4317" /></g><g
         transform="translate(38.25,82.7002)"
         style="fill:#000000;fill-rule:nonzero;stroke:#000000;stroke-width:1.58474624;stroke-miterlimit:4;stroke-dasharray:none"
         id="g4319"><path
           style="fill:#000000;stroke:#000000;stroke-width:1.58474624;stroke-miterlimit:4;stroke-dasharray:none"
           inkscape:connector-curvature="0"
           d="m 15.2002,0 c 0,0 1.2002,0.7002 1.2002,0.7002 0,0 -15.8008,9.1494 -15.8008,9.1494 C 0.5996,9.8496 0,8.7998 0,8.7998 0,8.7998 15.2002,0 15.2002,0 z"
           id="path4321" /></g><g
         transform="translate(35.5996,79.4502)"
         style="fill:#000000;fill-rule:nonzero;stroke:#000000;stroke-width:1.58474624;stroke-miterlimit:4;stroke-dasharray:none"
         id="g4323"><path
           style="fill:#000000;stroke:#000000;stroke-width:1.58474624;stroke-miterlimit:4;stroke-dasharray:none"
           inkscape:connector-curvature="0"
           d="m 12.8506,0 c 0,0 0.5996,1.0996 0.5996,1.0996 0,0 -12.8496,7.4004 -12.8496,7.4004 C 0.6006,8.5 0,7.4502 0,7.4502 0,7.4502 12.8506,0 12.8506,0 z"
           id="path4325" /></g><g
         transform="translate(53.4502,53.5996)"
         style="fill:#000000;fill-rule:nonzero;stroke:#000000;stroke-width:1.58474624;stroke-miterlimit:4;stroke-dasharray:none"
         id="g4327"><path
           style="fill:#000000;stroke:#000000;stroke-width:1.58474624;stroke-miterlimit:4;stroke-dasharray:none"
           inkscape:connector-curvature="0"
           d="M 0,0.3506 C 0,0.3506 0.5996,0 0.5996,0 c 0,0 0.6006,0.3506 0.6006,0.3506 0,0 0,29.4502 0,29.4502 0,0 -1.2002,-0.7002 -1.2002,-0.7002 0,0 0,-28.75 0,-28.75 z"
           id="path4329" /></g><g
         transform="translate(28.5498,38.1504)"
         style="fill:#000000;fill-rule:nonzero;stroke:#000000;stroke-width:1.58474624;stroke-miterlimit:4;stroke-dasharray:none"
         id="g4331"><path
           style="fill:#000000;stroke:#000000;stroke-width:1.58474624;stroke-miterlimit:4;stroke-dasharray:none"
           inkscape:connector-curvature="0"
           d="M 0,1.4492 C 0,1.4492 0,0 0,0 c 0,0 25.5,14.75 25.5,14.75 0,0 0,0.6992 0,0.6992 0,0 -0.5996,0.3506 -0.5996,0.3506 C 24.9004,15.7998 0,1.4492 0,1.4492 z"
           id="path4333" /></g><g
         transform="translate(28.25,44.4502)"
         style="fill:#000000;fill-rule:nonzero;stroke:#000000;stroke-width:1.58474624;stroke-miterlimit:4;stroke-dasharray:none"
         id="g4335"><path
           style="fill:#000000;stroke:#000000;stroke-width:1.58474624;stroke-miterlimit:4;stroke-dasharray:none"
           inkscape:connector-curvature="0"
           d="M 0,1.0498 C 0,1.0498 0.5996,0 0.5996,0 c 0,0 20.2002,11.7002 20.2002,11.7002 0,0 -0.5996,1.0498 -0.5996,1.0498 C 20.2002,12.75 0,1.0498 0,1.0498 z"
           id="path4337" /></g><g
         transform="translate(2.40039,38.1504)"
         style="fill:#000000;fill-rule:nonzero;stroke:#000000;stroke-width:1.58474624;stroke-miterlimit:4;stroke-dasharray:none"
         id="g4339"><path
           style="fill:#000000;stroke:#000000;stroke-width:1.58474624;stroke-miterlimit:4;stroke-dasharray:none"
           inkscape:connector-curvature="0"
           d="M 1.25,15.7998 C 1.25,15.7998 0,15.0996 0,15.0996 0,15.0996 26.1494,0 26.1494,0 c 0,0 0,1.4492 0,1.4492 0,0 -24.8994,14.3506 -24.8994,14.3506 z"
           id="path4341" /></g><g
         transform="translate(54.0498,38.8496)"
         style="fill:#000000;fill-rule:nonzero;stroke:#000000;stroke-width:1.58474624;stroke-miterlimit:4;stroke-dasharray:none"
         id="g4343"><path
           style="fill:#000000;stroke:#000000;stroke-width:1.58474624;stroke-miterlimit:4;stroke-dasharray:none"
           inkscape:connector-curvature="0"
           d="M 24.2002,0.1006 C 24.2002,0.1006 25.5,0 25.5,0 c 0,0 0.0498,0.7002 0.0498,0.7002 0,0 -24.9492,14.4004 -24.9492,14.4004 C 0.6006,15.1006 0,14.75 0,14.75 c 0,0 0,-0.6992 0,-0.6992 0,0 24.2002,-13.9502 24.2002,-13.9502 z"
           id="path4345" /></g><g
         transform="translate(100.805,44.085)"
         style="fill:#000000;fill-rule:evenodd;stroke:#000000;stroke-width:1.58474624;stroke-miterlimit:4;stroke-dasharray:none"
         id="g4347"><path
           style="fill:#000000;stroke:#000000;stroke-width:1.58474624;stroke-miterlimit:4;stroke-dasharray:none"
           inkscape:connector-curvature="0"
           d="m 11.662,0 c 0,0 -1.8,0 -1.8,0 0,0 0,12.1943 0,12.1943 C 9.862,12.1943 2.066,0 2.066,0 2.066,0 0,0 0,0 c 0,0 0,14.915 0,14.915 0,0 1.8,0 1.8,0 0,0 0,-12.0918 0,-12.0918 0,0 7.714,12.0918 7.714,12.0918 0,0 2.148,0 2.148,0 0,0 0,-14.915 0,-14.915 z"
           id="path4349" /></g><g
         transform="translate(79.5498,38.5)"
         style="fill:#000000;fill-rule:nonzero;stroke:#000000;stroke-width:1.58474624;stroke-miterlimit:4;stroke-dasharray:none"
         id="g4351"><path
           style="fill:#000000;stroke:#000000;stroke-width:1.58474624;stroke-miterlimit:4;stroke-dasharray:none"
           inkscape:connector-curvature="0"
           d="m 16.9004,7.2002 c 0,0 -0.5,1.1494 -0.5,1.1494 0,0 -16.3506,-7.2998 -16.3506,-7.2998 C 0.0498,1.0498 0,0.3496 0,0.3496 0,0.3496 0.6504,0 0.6504,0 c 0,0 16.25,7.2002 16.25,7.2002 z"
           id="path4353" /></g><g
         transform="translate(114.1,28.9004)"
         style="fill:#000000;fill-rule:nonzero;stroke:#000000;stroke-width:1.58474624;stroke-miterlimit:4;stroke-dasharray:none"
         id="g4355"><path
           style="fill:#000000;stroke:#000000;stroke-width:1.58474624;stroke-miterlimit:4;stroke-dasharray:none"
           inkscape:connector-curvature="0"
           d="m 11.35,0 c 0,0 1.5,0.1494 1.5,0.1494 0,0 -11.95,13.25 -11.95,13.25 0,0 -0.9,-0.8496 -0.9,-0.8496 C 0,12.5498 11.35,0 11.35,0 z"
           id="path4357" /></g><g
         transform="translate(111.15,2.75)"
         style="fill:#000000;fill-rule:nonzero;stroke:#000000;stroke-width:1.58474624;stroke-miterlimit:4;stroke-dasharray:none"
         id="g4359"><path
           style="fill:#000000;stroke:#000000;stroke-width:1.58474624;stroke-miterlimit:4;stroke-dasharray:none"
           inkscape:connector-curvature="0"
           d="M 0,1.40039 C 0,1.40039 0.6,0 0.6,0 c 0,0 15.2,26.2998 15.2,26.2998 0,0 -1.5,-0.1494 -1.5,-0.1494 C 14.3,26.1504 0,1.40039 0,1.40039 z"
           id="path4361" /></g><g
         transform="translate(82.0996,2.75)"
         style="fill:#000000;fill-rule:nonzero;stroke:#000000;stroke-width:1.58474624;stroke-miterlimit:4;stroke-dasharray:none"
         id="g4363"><path
           style="fill:#000000;stroke:#000000;stroke-width:1.58474624;stroke-miterlimit:4;stroke-dasharray:none"
           inkscape:connector-curvature="0"
           d="M 1.1006,7.3496 C 1.1006,7.3496 0,6.2998 0,6.2998 0,6.2998 29.6504,0 29.6504,0 c 0,0 -0.6,1.40039 -0.6,1.40039 0,0 -27.9498,5.94921 -27.9498,5.94921 z"
           id="path4365" /></g><g
         transform="translate(79.0498,9.0498)"
         style="fill:#000000;fill-rule:nonzero;stroke:#000000;stroke-width:1.58474624;stroke-miterlimit:4;stroke-dasharray:none"
         id="g4367"><path
           style="fill:#000000;stroke:#000000;stroke-width:1.58474624;stroke-miterlimit:4;stroke-dasharray:none"
           inkscape:connector-curvature="0"
           d="m 1.1504,29.4502 c 0,0 -0.6504,0.3496 -0.6504,0.3496 0,0 -0.5,-1.1992 -0.5,-1.1992 C 0,28.6006 3.0498,0 3.0498,0 c 0,0 1.1006,1.0498 1.1006,1.0498 0,0 -3,28.4004 -3,28.4004 z"
           id="path4369" /></g><g
         transform="translate(108.45,62.7998)"
         style="fill:#000000;fill-rule:nonzero;stroke:#000000;stroke-width:1.58474624;stroke-miterlimit:4;stroke-dasharray:none"
         id="g4371"><path
           style="fill:#000000;stroke:#000000;stroke-width:1.58474624;stroke-miterlimit:4;stroke-dasharray:none"
           inkscape:connector-curvature="0"
           d="m 4.75,16.75 c 0,0 -1.2,0.25 -1.2,0.25 C 3.55,17 0,0.25 0,0.25 0,0.25 1.2,0 1.2,0 c 0,0 3.55,16.75 3.55,16.75 z"
           id="path4373" /></g><g
         transform="translate(49.1982,16.085)"
         style="fill:#000000;fill-rule:evenodd;stroke:#000000;stroke-width:1.58474624;stroke-miterlimit:4;stroke-dasharray:none"
         id="g4375"><path
           style="fill:#000000;stroke:#000000;stroke-width:1.58474624;stroke-miterlimit:4;stroke-dasharray:none"
           inkscape:connector-curvature="0"
           d="m 9.5752,8.122 c 0,0 0,6.793 0,6.793 0,0 1.9024,0 1.9024,0 0,0 0,-14.915 0,-14.915 0,0 -1.9024,0 -1.9024,0 0,0 0,6.4443 0,6.4443 0,0 -7.6728,0 -7.6728,0 0,0 0,-6.4443 0,-6.4443 C 1.9024,0 0,0 0,0 c 0,0 0,14.915 0,14.915 0,0 1.9229,0 1.9229,0 0,0 0,-6.793 0,-6.793 0,0 7.6523,0 7.6523,0 z"
           id="path4377" /></g><g
         transform="translate(63.6504,27.0498)"
         style="fill:#000000;fill-rule:nonzero;stroke:#000000;stroke-width:1.58474624;stroke-miterlimit:4;stroke-dasharray:none"
         id="g4379"><path
           style="fill:#000000;stroke:#000000;stroke-width:1.58474624;stroke-miterlimit:4;stroke-dasharray:none"
           inkscape:connector-curvature="0"
           d="M 0,5.1504 C 0,5.1504 3.3496,0 3.3496,0 c 0,0 12.0498,10.6006 12.0498,10.6006 0,0 0.5,1.1992 0.5,1.1992 0,0 -1.2998,0.1006 -1.2998,0.1006 0,0 -14.5996,-6.75 -14.5996,-6.75 z"
           id="path4381" /></g></g></g><g
     id="g4896"
     inkscape:export-filename="/home/kerb/dev/icons/ambit-flaticon/arff-3.png"
     inkscape:export-xdpi="46.220001"
     inkscape:export-ydpi="46.220001"><g
       inkscape:export-ydpi="46.220001"
       inkscape:export-xdpi="46.220001"
       inkscape:export-filename="/home/kerb/dev/icons/text3094.png"
       id="g4431"
       transform="translate(-10.56588,261.78824)"><path
         inkscape:connector-curvature="0"
         id="path4433"
         d="M 99.98,36.45 C 99.974,35.982 99.826,35.52 99.505,35.155 L 79.838,12.69 C 79.834,12.684 79.828,12.682 79.822,12.676 79.705,12.545 79.57,12.437 79.426,12.342 79.383,12.314 79.34,12.289 79.295,12.264 79.168,12.196 79.037,12.14 78.9,12.099 78.863,12.088 78.83,12.073 78.793,12.063 78.643,12.028 78.49,12.006 78.334,12.006 l -48.334,0 c -2.205,0 -4,1.795 -4,4 l 0,94 c 0,2.206 1.795,4 4,4 l 66,0 c 2.207,0 4,-1.794 4,-4 l 0,-73.332 c 0,-0.075 -0.012,-0.15 -0.02,-0.224 z M 30,79.924 l 0,-63.917 46.334,0 0,20.466 c 0,1.104 0.895,2 2,2 l 17.666,0 0.002,41.451 z"
         sodipodi:nodetypes="ccccccccssssssssccccssccc" /></g><text
       inkscape:export-ydpi="46.220001"
       inkscape:export-xdpi="46.220001"
       transform="scale(0.97596976,1.0246219)"
       sodipodi:linespacing="125%"
       id="text4435"
       y="358.56232"
       x="54.23605"
       style="font-size:35.96525955px;font-style:normal;font-weight:normal;line-height:125%;letter-spacing:-1.57974517px;word-spacing:0px;fill:#ffffff;fill-opacity:1;stroke:none;font-family:Sans"
       xml:space="preserve"
       inkscape:export-filename="/home/kerb/dev/icons/text3094.png"><tspan
         style="font-size:25.27592278px;font-style:normal;font-variant:normal;font-weight:bold;font-stretch:normal;text-align:center;letter-spacing:-1.10000002px;text-anchor:middle;font-family:DejaVu Sans;-inkscape-font-specification:DejaVu Sans Bold"
         y="358.56232"
         x="53.68605"
         id="tspan4437"
         sodipodi:role="line">ARFF</tspan></text>
<path
       inkscape:connector-curvature="0"
       id="path4439"
       d="m 30.367297,294.25295 c -1.746288,1.52038 -4.135574,1.92248 -6.230729,2.68124 -2.339163,1.04397 -0.147559,3.79249 1.909421,2.78663 2.380602,0.62766 7.554983,0.007 7.631214,3.16424 -1.739607,1.99925 -2.2461,4.59713 -1.44245,7.16538 0.316784,2.65511 1.936565,5.05806 3.880396,6.79291 2.070071,1.3911 4.071915,2.93093 6.333117,4.00383 3.832677,0.83515 1.075615,4.38947 -0.06552,6.40903 -2.314572,2.22051 1.654192,6.87691 2.902364,2.97779 0.429274,-1.84837 -0.03412,-4.10791 2.523071,-4.12761 0.320904,-3.29044 4.263565,-2.34597 5.071813,0.21926 0.506404,2.11283 -0.216079,5.18452 -1.711406,6.60961 -2.439162,0.25588 -7.201599,0.30235 -7.071767,3.61408 1.277254,1.89519 4.032458,2.46022 6.019413,1.35184 1.956044,-1.17468 4.174586,-1.92284 5.72983,-3.64862 1.090307,-1.70131 -0.693071,-3.81771 0.612114,-5.60199 0.280033,-3.47341 3.936974,-2.17812 6.227381,-2.81841 1.830122,-1.34369 3.505178,-3.47816 5.84982,-4.03688 2.76329,0.15598 5.596942,0.91022 7.663617,2.85898 1.507867,1.20712 5.183512,4.287 5.041005,0.42024 -0.288102,-2.95467 -3.736076,-4.04987 -5.213954,-6.35496 -1.207282,-1.82401 -2.497853,-3.58531 -2.872527,-5.77743 -0.838456,-2.00277 -2.057371,-4.15081 -3.995775,-5.21399 -2.203422,-1.85057 -5.085439,-2.57318 -7.163539,-4.56096 -2.320933,-0.40852 -4.090565,-1.97831 -6.185072,-2.91072 -2.103566,-1.0947 -4.638386,-1.62619 -7.013444,-1.49368 -3.373661,0.75707 -4.741389,-2.62997 -6.713871,-4.51507 -1.359151,-2.13079 -4.014382,-2.73192 -6.392288,-2.38867 -2.105485,-0.11867 -3.490599,1.60267 -5.32224,2.39393 z"
       style="fill:#000000;fill-opacity:1;stroke:none"
       inkscape:export-filename="/home/kerb/dev/icons/text3094.png"
       inkscape:export-xdpi="46.220001"
       inkscape:export-ydpi="46.220001" /><text
       sodipodi:linespacing="125%"
       id="text4441"
       y="319.65692"
       x="45.338913"
       style="font-size:40px;font-style:normal;font-weight:normal;line-height:125%;letter-spacing:0px;word-spacing:0px;fill:#ffffff;fill-opacity:1;stroke:none;font-family:Sans"
       xml:space="preserve"><tspan
         style="font-size:22px;font-style:normal;font-variant:normal;font-weight:bold;font-stretch:normal;font-family:DejaVu Sans;-inkscape-font-specification:DejaVu Sans Bold"
         y="319.65692"
         x="45.338913"
         id="tspan4443"
         sodipodi:role="line">3</tspan></text>
</g><g
     id="g4719"
     transform="matrix(0.10480698,0,0,0.10480698,63.991454,-3.999536)"><path
       style="fill:#000000"
       inkscape:connector-curvature="0"
       d="m 71.45504,572.81784 c -2.544,-1.346 -5.14,-2.493 -7.743,-3.516 l 1.863,-0.15 c 0,0 -16.608,-7.354 -18.057,-60.722 -1.438,-53.372 15.828,-62.478 15.828,-62.478 l -2.48,0.109 c 13.045,-6.69 24.265,-17.267 31.669,-31.216 19.295,-36.291 5.488,-81.362 -30.81,-100.657 -36.31,-19.276 -81.372,-5.506 -100.656,30.817 -7.927,14.899 -10.178,31.273 -7.677,46.733 l -0.851,-1.306 c 0,0 4.373,19.365 -41.032,47.55 -45.397,28.2 -65.877,14.159 -65.877,14.159 l 1.302,1.925 c -1.298,-0.803 -2.544,-1.624 -3.901,-2.333 -36.306,-19.294 -81.38,-5.509 -100.667,30.804 -19.281,36.309 -5.489,81.365 30.813,100.668 27.064,14.364 58.974,10.36 81.461,-7.655 l -0.487,0.946 c 0,0 16.531,-13.599 64.16,11.973 37.601,20.178 43.184,39.956 43.899,47.383 -0.983,27.57 13.388,54.618 39.389,68.433 36.301,19.299 81.374,5.498 100.657,-30.804 19.292,-36.302 5.507,-81.382 -30.803,-100.663 z m -83.934,9.785 c -6.018,2.129 -23.203,4.487 -59.389,-14.921 -39.187,-21.04 -45.005,-38.615 -45.855,-43.891 0.557,-6.401 0.202,-12.791 -0.891,-19.02 l 0.239,0.359 c 0,0 -3.189,-17.096 41.65,-44.943 40.133,-24.908 58.376,-19.955 61.771,-18.653 2.185,1.485 4.45,2.867 6.825,4.131 4.518,2.398 9.174,4.283 13.888,5.672 5.52,5.257 15.678,20.178 16.733,59.413 1.078,39.535 -10.533,54.779 -16.865,60.168 -6.526,2.956 -12.626,6.897 -18.106,11.685 z"
       id="path4638" /><g
       transform="translate(-312.02096,305.47484)"
       id="g4640"><path
         style="fill:#ffffff"
         inkscape:connector-curvature="0"
         d="m 294.631,32.4 c -21.659,23.694 -22.118,58.544 -1.246,78.264 -10.316,-9.935 -10.093,-30.608 0.33,-50.387 1.342,-1.774 5.224,-5.961 10.898,-4.055 0.569,0.194 0.951,0.245 1.17,0.213 1.284,0.278 2.601,0.439 3.96,0.381 8.622,-0.393 15.288,-7.684 14.898,-16.307 -0.175,-3.868 -1.78,-7.292 -4.26,-9.92 20.007,-13.107 42.968,-14.61 52.375,-6.016 l 0.359,0.025 C 351.625,4.97 316.493,8.476 294.631,32.4 z"
         id="path4642" /></g><g
       transform="translate(-312.02096,305.47484)"
       id="g4644"><path
         style="fill:#ffffff"
         inkscape:connector-curvature="0"
         d="m 76.205,251.381 c -0.184,-0.19 -0.371,-0.406 -0.562,-0.598 0.121,0.125 0.235,0.279 0.378,0.407 l 0.184,0.191 z"
         id="path4646" /><path
         style="fill:#ffffff"
         inkscape:connector-curvature="0"
         d="m 76.894,172.52 c -21.663,23.694 -22.114,58.541 -1.251,78.264 -10.313,-9.935 -10.092,-30.608 0.331,-50.387 1.345,-1.778 5.231,-5.961 10.906,-4.055 0.565,0.195 0.946,0.242 1.167,0.212 1.283,0.275 2.603,0.44 3.959,0.377 8.623,-0.392 15.288,-7.684 14.899,-16.303 -0.179,-3.867 -1.782,-7.296 -4.252,-9.92 19.995,-13.107 42.959,-14.617 52.366,-6.021 l 0.355,0.03 c -21.483,-19.631 -56.623,-16.126 -78.48,7.803 z"
         id="path4648" /></g><g
       transform="translate(-312.02096,305.47484)"
       id="g4650"><path
         style="fill:#ffffff"
         inkscape:connector-curvature="0"
         d="m 306.701,370.015 c -0.187,-0.191 -0.374,-0.404 -0.564,-0.594 0.117,0.125 0.237,0.279 0.378,0.402 l 0.186,0.192 z"
         id="path4652" /><path
         style="fill:#ffffff"
         inkscape:connector-curvature="0"
         d="m 307.39,291.145 c -21.666,23.704 -22.118,58.553 -1.254,78.276 -10.317,-9.935 -10.09,-30.611 0.331,-50.388 1.344,-1.781 5.227,-5.96 10.906,-4.053 0.568,0.189 0.941,0.242 1.166,0.212 1.282,0.277 2.605,0.44 3.963,0.381 8.617,-0.396 15.28,-7.692 14.891,-16.32 -0.176,-3.864 -1.781,-7.288 -4.252,-9.917 20.002,-13.103 42.959,-14.61 52.37,-6.016 l 0.355,0.029 c -21.483,-19.631 -56.625,-16.123 -78.476,7.796 z"
         id="path4654" /></g></g><g
     id="g4758"
     inkscape:export-filename="/home/kerb/dev/icons/ambit-flaticon/export/rdf.png"
     inkscape:export-xdpi="46.220001"
     inkscape:export-ydpi="46.220001"><g
       transform="translate(-377.4728,149.72385)"
       id="g4730"
       inkscape:export-filename="/home/kerb/dev/icons/text3092.png"
       inkscape:export-xdpi="46.220001"
       inkscape:export-ydpi="46.220001"><path
         sodipodi:nodetypes="ccccccccssssssssccccssccc"
         d="M 99.98,36.45 C 99.974,35.982 99.826,35.52 99.505,35.155 L 79.838,12.69 C 79.834,12.684 79.828,12.682 79.822,12.676 79.705,12.545 79.57,12.437 79.426,12.342 79.383,12.314 79.34,12.289 79.295,12.264 79.168,12.196 79.037,12.14 78.9,12.099 78.863,12.088 78.83,12.073 78.793,12.063 78.643,12.028 78.49,12.006 78.334,12.006 l -48.334,0 c -2.205,0 -4,1.795 -4,4 l 0,94 c 0,2.206 1.795,4 4,4 l 66,0 c 2.207,0 4,-1.794 4,-4 l 0,-73.332 c 0,-0.075 -0.012,-0.15 -0.02,-0.224 z M 30,79.924 l 0,-63.917 46.334,0 0,20.466 c 0,1.104 0.895,2 2,2 l 17.666,0 0.002,41.451 z"
         id="path4732"
         inkscape:connector-curvature="0" /></g><text
       xml:space="preserve"
       style="font-size:35.96525955px;font-style:normal;font-weight:normal;line-height:125%;letter-spacing:-1.10000002px;word-spacing:0px;fill:#ffffff;fill-opacity:1;stroke:none;font-family:Sans"
       x="-322.72339"
       y="251.90053"
       id="text4734"
       sodipodi:linespacing="125%"
       transform="scale(0.97596976,1.0246219)"
       inkscape:export-xdpi="46.220001"
       inkscape:export-ydpi="46.220001"><tspan
         sodipodi:role="line"
         id="tspan4736"
         x="-323.27341"
         y="251.90053"
         style="font-size:31px;font-style:normal;font-variant:normal;font-weight:bold;font-stretch:normal;text-align:center;letter-spacing:-1.10000002px;text-anchor:middle;font-family:DejaVu Sans;-inkscape-font-specification:DejaVu Sans Bold">RDF</tspan></text>
<g
       id="g4738"
       transform="matrix(0.10480698,0,0,0.10480698,-313.48135,145.72431)"><path
         style="fill:#000000"
         inkscape:connector-curvature="0"
         d="m 71.45504,572.81784 c -2.544,-1.346 -5.14,-2.493 -7.743,-3.516 l 1.863,-0.15 c 0,0 -16.608,-7.354 -18.057,-60.722 -1.438,-53.372 15.828,-62.478 15.828,-62.478 l -2.48,0.109 c 13.045,-6.69 24.265,-17.267 31.669,-31.216 19.295,-36.291 5.488,-81.362 -30.81,-100.657 -36.31,-19.276 -81.372,-5.506 -100.656,30.817 -7.927,14.899 -10.178,31.273 -7.677,46.733 l -0.851,-1.306 c 0,0 4.373,19.365 -41.032,47.55 -45.397,28.2 -65.877,14.159 -65.877,14.159 l 1.302,1.925 c -1.298,-0.803 -2.544,-1.624 -3.901,-2.333 -36.306,-19.294 -81.38,-5.509 -100.667,30.804 -19.281,36.309 -5.489,81.365 30.813,100.668 27.064,14.364 58.974,10.36 81.461,-7.655 l -0.487,0.946 c 0,0 16.531,-13.599 64.16,11.973 37.601,20.178 43.184,39.956 43.899,47.383 -0.983,27.57 13.388,54.618 39.389,68.433 36.301,19.299 81.374,5.498 100.657,-30.804 19.292,-36.302 5.507,-81.382 -30.803,-100.663 z m -83.934,9.785 c -6.018,2.129 -23.203,4.487 -59.389,-14.921 -39.187,-21.04 -45.005,-38.615 -45.855,-43.891 0.557,-6.401 0.202,-12.791 -0.891,-19.02 l 0.239,0.359 c 0,0 -3.189,-17.096 41.65,-44.943 40.133,-24.908 58.376,-19.955 61.771,-18.653 2.185,1.485 4.45,2.867 6.825,4.131 4.518,2.398 9.174,4.283 13.888,5.672 5.52,5.257 15.678,20.178 16.733,59.413 1.078,39.535 -10.533,54.779 -16.865,60.168 -6.526,2.956 -12.626,6.897 -18.106,11.685 z"
         id="path4740" /><g
         transform="translate(-312.02096,305.47484)"
         id="g4742"><path
           style="fill:#ffffff"
           inkscape:connector-curvature="0"
           d="m 294.631,32.4 c -21.659,23.694 -22.118,58.544 -1.246,78.264 -10.316,-9.935 -10.093,-30.608 0.33,-50.387 1.342,-1.774 5.224,-5.961 10.898,-4.055 0.569,0.194 0.951,0.245 1.17,0.213 1.284,0.278 2.601,0.439 3.96,0.381 8.622,-0.393 15.288,-7.684 14.898,-16.307 -0.175,-3.868 -1.78,-7.292 -4.26,-9.92 20.007,-13.107 42.968,-14.61 52.375,-6.016 l 0.359,0.025 C 351.625,4.97 316.493,8.476 294.631,32.4 z"
           id="path4744" /></g><g
         transform="translate(-312.02096,305.47484)"
         id="g4746"><path
           style="fill:#ffffff"
           inkscape:connector-curvature="0"
           d="m 76.205,251.381 c -0.184,-0.19 -0.371,-0.406 -0.562,-0.598 0.121,0.125 0.235,0.279 0.378,0.407 l 0.184,0.191 z"
           id="path4748" /><path
           style="fill:#ffffff"
           inkscape:connector-curvature="0"
           d="m 76.894,172.52 c -21.663,23.694 -22.114,58.541 -1.251,78.264 -10.313,-9.935 -10.092,-30.608 0.331,-50.387 1.345,-1.778 5.231,-5.961 10.906,-4.055 0.565,0.195 0.946,0.242 1.167,0.212 1.283,0.275 2.603,0.44 3.959,0.377 8.623,-0.392 15.288,-7.684 14.899,-16.303 -0.179,-3.867 -1.782,-7.296 -4.252,-9.92 19.995,-13.107 42.959,-14.617 52.366,-6.021 l 0.355,0.03 c -21.483,-19.631 -56.623,-16.126 -78.48,7.803 z"
           id="path4750" /></g><g
         transform="translate(-312.02096,305.47484)"
         id="g4752"><path
           style="fill:#ffffff"
           inkscape:connector-curvature="0"
           d="m 306.701,370.015 c -0.187,-0.191 -0.374,-0.404 -0.564,-0.594 0.117,0.125 0.237,0.279 0.378,0.402 l 0.186,0.192 z"
           id="path4754" /><path
           style="fill:#ffffff"
           inkscape:connector-curvature="0"
           d="m 307.39,291.145 c -21.666,23.704 -22.118,58.553 -1.254,78.276 -10.317,-9.935 -10.09,-30.611 0.331,-50.388 1.344,-1.781 5.227,-5.96 10.906,-4.053 0.568,0.189 0.941,0.242 1.166,0.212 1.282,0.277 2.605,0.44 3.963,0.381 8.617,-0.396 15.28,-7.692 14.891,-16.32 -0.176,-3.864 -1.781,-7.288 -4.252,-9.917 20.002,-13.103 42.959,-14.61 52.37,-6.016 l 0.355,0.029 c -21.483,-19.631 -56.625,-16.123 -78.476,7.796 z"
           id="path4756" /></g></g></g><g
     id="g4430"
     transform="translate(128.37365,100.97449)"><path
       sodipodi:type="arc"
       style="fill:url(#radialGradient4530);fill-opacity:1;stroke:none"
       id="path4389"
       sodipodi:cx="-206.52251"
       sodipodi:cy="390.05557"
       sodipodi:rx="27.337517"
       sodipodi:ry="27.337517"
       d="m -179.18499,390.05557 a 27.337517,27.337517 0 0 1 -27.33752,27.33752 27.337517,27.337517 0 0 1 -27.33751,-27.33752 27.337517,27.337517 0 0 1 27.33751,-27.33751 27.337517,27.337517 0 0 1 27.33752,27.33751 z"
       transform="matrix(0.11471496,0.5147466,-0.5147466,0.11471496,45.286005,400.42141)" /><path
       style="fill:url(#linearGradient4532);fill-opacity:1;stroke:none"
       d="m -186.10747,345.51918 c 1.53931,-0.21887 1.84388,0.64834 2.08004,1.57572 l -15.00685,19.80985 -2.08004,-1.57572 z"
       id="path4422"
       inkscape:connector-curvature="0"
       sodipodi:nodetypes="ccccc" /><path
       sodipodi:type="arc"
       style="fill:url(#radialGradient4534);fill-opacity:1;stroke:none"
       id="path4397"
       sodipodi:cx="-206.52251"
       sodipodi:cy="390.05557"
       sodipodi:rx="27.337517"
       sodipodi:ry="27.337517"
       d="m -179.18499,390.05557 a 27.337517,27.337517 0 0 1 -27.33752,27.33752 27.337517,27.337517 0 0 1 -27.33751,-27.33752 27.337517,27.337517 0 0 1 27.33751,-27.33751 27.337517,27.337517 0 0 1 27.33752,27.33751 z"
       transform="matrix(0.4272119,-0.06364025,0.06364025,0.4272119,-190.70899,180.08051)" /><path
       sodipodi:nodetypes="ccccc"
       inkscape:connector-curvature="0"
       id="path4426"
       d="m -250.0848,364.32362 c -0.54756,-1.45518 0.23293,-1.94061 1.087,-2.37232 l 22.59345,10.35238 -1.087,2.37232 z"
       style="fill:url(#linearGradient4536);fill-opacity:1;stroke:none" /><path
       transform="translate(-6.3373339,-7.0829016)"
       d="m -179.18499,390.05557 a 27.337517,27.337517 0 0 1 -27.33752,27.33752 27.337517,27.337517 0 0 1 -27.33751,-27.33752 27.337517,27.337517 0 0 1 27.33751,-27.33751 27.337517,27.337517 0 0 1 27.33752,27.33751 z"
       sodipodi:ry="27.337517"
       sodipodi:rx="27.337517"
       sodipodi:cy="390.05557"
       sodipodi:cx="-206.52251"
       id="path4363"
       style="fill:url(#radialGradient4538);fill-opacity:1;stroke:none"
       sodipodi:type="arc" /><path
       sodipodi:nodetypes="ccccc"
       inkscape:connector-curvature="0"
       id="rect4401"
       d="m -351.02521,284.75156 c 1.09483,-1.10395 1.86126,-0.59661 2.60949,0 l 0,24.85228 -2.60949,0 z"
       style="fill:url(#linearGradient4540);fill-opacity:1;stroke:none"
       transform="matrix(0.91393072,-0.40587023,0.40587023,0.91393072,0,0)" /><path
       transform="matrix(-0.44374897,-0.4173498,0.4173498,-0.44374897,-442.06853,520.93875)"
       d="m -179.18499,390.05557 a 27.337517,27.337517 0 0 1 -27.33752,27.33752 27.337517,27.337517 0 0 1 -27.33751,-27.33752 27.337517,27.337517 0 0 1 27.33751,-27.33751 27.337517,27.337517 0 0 1 27.33752,27.33751 z"
       sodipodi:ry="27.337517"
       sodipodi:rx="27.337517"
       sodipodi:cy="390.05557"
       sodipodi:cx="-206.52251"
       id="path4393"
       style="fill:url(#radialGradient4542);fill-opacity:1;stroke:none"
       sodipodi:type="arc" /></g><g
     id="g4469"
     transform="translate(-53.183896,-168.00147)"
     inkscape:export-filename="/home/kerb/dev/icons/ambit-flaticon/i5z.png"
     inkscape:export-xdpi="46.220001"
     inkscape:export-ydpi="46.220001"><g
       inkscape:export-ydpi="46.220001"
       inkscape:export-xdpi="46.220001"
       inkscape:export-filename="/home/kerb/dev/icons/text3092.png"
       id="g4256"
       transform="translate(-411.27191,317.72532)"><path
         inkscape:connector-curvature="0"
         id="path4258"
         d="M 99.98,36.45 C 99.974,35.982 99.826,35.52 99.505,35.155 L 79.838,12.69 C 79.834,12.684 79.828,12.682 79.822,12.676 79.705,12.545 79.57,12.437 79.426,12.342 79.383,12.314 79.34,12.289 79.295,12.264 79.168,12.196 79.037,12.14 78.9,12.099 78.863,12.088 78.83,12.073 78.793,12.063 78.643,12.028 78.49,12.006 78.334,12.006 l -48.334,0 c -2.205,0 -4,1.795 -4,4 l 0,94 c 0,2.206 1.795,4 4,4 l 66,0 c 2.207,0 4,-1.794 4,-4 l 0,-73.332 c 0,-0.075 -0.012,-0.15 -0.02,-0.224 z M 30,79.924 l 0,-63.917 46.334,0 0,20.466 c 0,1.104 0.895,2 2,2 l 17.666,0 0.002,41.451 z"
         sodipodi:nodetypes="ccccccccssssssssccccssccc" /></g><text
       inkscape:export-ydpi="46.220001"
       inkscape:export-xdpi="46.220001"
       transform="scale(0.97596976,1.0246219)"
       sodipodi:linespacing="125%"
       id="text4260"
       y="415.86487"
       x="-357.35471"
       style="font-size:35.96525955px;font-style:normal;font-weight:normal;line-height:125%;letter-spacing:-1.10000002px;word-spacing:0px;fill:#ffffff;fill-opacity:1;stroke:none;font-family:Sans"
       xml:space="preserve"><tspan
         style="font-size:31px;font-style:normal;font-variant:normal;font-weight:bold;font-stretch:normal;text-align:center;letter-spacing:-1.10000002px;text-anchor:middle;font-family:DejaVu Sans;-inkscape-font-specification:DejaVu Sans Bold"
         y="415.86487"
         x="-357.90469"
         id="tspan4262"
         sodipodi:role="line">I5Z</tspan></text>
<g
       id="g4439"
       transform="matrix(0.4071855,-0.11627438,0.11627438,0.4071855,-310.88408,186.67938)"><path
         sodipodi:type="arc"
         style="fill:url(#radialGradient4455);fill-opacity:1;stroke:none"
         id="path4441"
         sodipodi:cx="-206.52251"
         sodipodi:cy="390.05557"
         sodipodi:rx="27.337517"
         sodipodi:ry="27.337517"
         d="m -179.18499,390.05557 a 27.337517,27.337517 0 0 1 -27.33752,27.33752 27.337517,27.337517 0 0 1 -27.33751,-27.33752 27.337517,27.337517 0 0 1 27.33751,-27.33751 27.337517,27.337517 0 0 1 27.33752,27.33751 z"
         transform="matrix(0.11471496,0.5147466,-0.5147466,0.11471496,45.286005,400.42141)" /><path
         style="fill:url(#linearGradient4457);fill-opacity:1;stroke:none"
         d="m -186.10747,345.51918 c 1.53931,-0.21887 1.84388,0.64834 2.08004,1.57572 l -15.00685,19.80985 -2.08004,-1.57572 z"
         id="path4443"
         inkscape:connector-curvature="0"
         sodipodi:nodetypes="ccccc" /><path
         sodipodi:type="arc"
         style="fill:url(#radialGradient4459);fill-opacity:1;stroke:none"
         id="path4445"
         sodipodi:cx="-206.52251"
         sodipodi:cy="390.05557"
         sodipodi:rx="27.337517"
         sodipodi:ry="27.337517"
         d="m -179.18499,390.05557 a 27.337517,27.337517 0 0 1 -27.33752,27.33752 27.337517,27.337517 0 0 1 -27.33751,-27.33752 27.337517,27.337517 0 0 1 27.33751,-27.33751 27.337517,27.337517 0 0 1 27.33752,27.33751 z"
         transform="matrix(0.4272119,-0.06364025,0.06364025,0.4272119,-190.70899,180.08051)" /><path
         sodipodi:nodetypes="ccccc"
         inkscape:connector-curvature="0"
         id="path4447"
         d="m -250.0848,364.32362 c -0.54756,-1.45518 0.23293,-1.94061 1.087,-2.37232 l 22.59345,10.35238 -1.087,2.37232 z"
         style="fill:url(#linearGradient4461);fill-opacity:1;stroke:none" /><path
         transform="translate(-6.3373339,-7.0829016)"
         d="m -179.18499,390.05557 a 27.337517,27.337517 0 0 1 -27.33752,27.33752 27.337517,27.337517 0 0 1 -27.33751,-27.33752 27.337517,27.337517 0 0 1 27.33751,-27.33751 27.337517,27.337517 0 0 1 27.33752,27.33751 z"
         sodipodi:ry="27.337517"
         sodipodi:rx="27.337517"
         sodipodi:cy="390.05557"
         sodipodi:cx="-206.52251"
         id="path4449"
         style="fill:url(#radialGradient4463);fill-opacity:1;stroke:none"
         sodipodi:type="arc" /><path
         sodipodi:nodetypes="ccccc"
         inkscape:connector-curvature="0"
         id="path4451"
         d="m -351.02521,284.75156 c 1.09483,-1.10395 1.86126,-0.59661 2.60949,0 l 0,24.85228 -2.60949,0 z"
         style="fill:url(#linearGradient4465);fill-opacity:1;stroke:none"
         transform="matrix(0.91393072,-0.40587023,0.40587023,0.91393072,0,0)" /><path
         transform="matrix(-0.44374897,-0.4173498,0.4173498,-0.44374897,-442.06853,520.93875)"
         d="m -179.18499,390.05557 a 27.337517,27.337517 0 0 1 -27.33752,27.33752 27.337517,27.337517 0 0 1 -27.33751,-27.33752 27.337517,27.337517 0 0 1 27.33751,-27.33751 27.337517,27.337517 0 0 1 27.33752,27.33751 z"
         sodipodi:ry="27.337517"
         sodipodi:rx="27.337517"
         sodipodi:cy="390.05557"
         sodipodi:cx="-206.52251"
         id="path4453"
         style="fill:url(#radialGradient4467);fill-opacity:1;stroke:none"
         sodipodi:type="arc" /></g></g><g
     inkscape:export-ydpi="46.220001"
     inkscape:export-xdpi="46.220001"
     inkscape:export-filename="/home/kerb/dev/icons/ambit-flaticon/json.png"
     id="g4829"
     transform="translate(-440.38254,0.99409152)"><g
       id="g4948"
       inkscape:export-xdpi="46.220001"
       inkscape:export-ydpi="46.220001"><g
         transform="matrix(0.45422356,0,0,0.45422356,-34.249796,49.803927)"
         id="g4938"><path
           d="m -29.031201,271.56535 7.425,0 c 0,3.3375 0,6.6625 0,10 12.5125,0 25.025,0.025 37.5375,-0.0375 2.1125,0.0875 4.4375,-0.0625 6.275,1.2 1.2875,1.85 1.1375,4.2 1.225,6.325 -0.0625,21.7 -0.0375,43.3875 -0.025,65.075 -0.0625,3.6375 0.3375,7.35 -0.425,10.9375 -0.5,2.6 -3.625,2.6625 -5.7125,2.75 -12.95,0.0375 -25.9125,-0.025 -38.875,0 0,3.75 0,7.5 0,11.25 l -7.7625,0 c -19.05,-3.4625 -38.1375,-6.6625 -57.2125,-10 0,-29.1625 0,-58.325 0,-87.4875 19.1875,-3.3375 38.375,-6.625 57.55,-10.0125 z"
           id="path10"
           inkscape:connector-curvature="0"
           style="fill:#000000;fill-opacity:1" /><path
           d="m -21.606201,285.31535 c 13.75,0 27.5,0 41.25,0 0,26.25 0,52.5 0,78.75 -13.75,0 -27.5,0 -41.25,0 0,-2.5 0,-5 0,-7.5 3.3375,0 6.6625,0 10,0 0,-2.9125 0,-5.8375 0,-8.75 -3.3375,0 -6.6625,0 -10,0 0,-1.6625 0,-3.3375 0,-5 3.3375,0 6.6625,0 10,0 0,-2.9125 0,-5.8375 0,-8.75 -3.3375,0 -6.6625,0 -10,0 0,-1.6625 0,-3.3375 0,-5 3.3375,0 6.6625,0 10,0 0,-2.9125 0,-5.8375 0,-8.75 -3.3375,0 -6.6625,0 -10,0 0,-1.6625 0,-3.3375 0,-5 3.3375,0 6.6625,0 10,0 0,-2.9125 0,-5.8375 0,-8.75 -3.3375,0 -6.6625,0 -10,0 0,-1.6625 0,-3.3375 0,-5 3.3375,0 6.6625,0 10,0 0,-2.9125 0,-5.8375 0,-8.75 -3.3375,0 -6.6625,0 -10,0 0,-2.5 0,-5 0,-7.5 z"
           id="path48"
           inkscape:connector-curvature="0"
           style="fill:#ffffff" /><path
           d="m -6.606201,292.81535 c 5.8375,0 11.6625,0 17.5,0 0,2.9125 0,5.8375 0,8.75 -5.8375,0 -11.6625,0 -17.5,0 0,-2.9125 0,-5.8375 0,-8.75 z"
           id="path58"
           inkscape:connector-curvature="0"
           style="fill:#000000;fill-opacity:1" /><path
           d="m -49.556201,304.52785 c 2.825,-0.2 5.6625,-0.375 8.5,-0.5125 -3.3375,6.8375 -6.6875,13.675 -10.0875,20.4875 3.4375,7 6.95,13.95 10.4,20.95 -3.0125,-0.175 -6.0125,-0.3625 -9.025,-0.575 -2.125,-5.2125 -4.7125,-10.25 -6.2375,-15.7 -1.7,5.075 -4.125,9.8625 -6.075,14.8375 -2.7375,-0.0375 -5.475,-0.15 -8.2125,-0.2625 3.2125,-6.2875 6.3125,-12.625 9.625,-18.875 -2.8125,-6.4375 -5.9,-12.75 -8.8,-19.15 2.75,-0.1625 5.5,-0.325 8.25,-0.475 1.8625,4.8875 3.9,9.7125 5.4375,14.725 1.65,-5.3125 4.1125,-10.3125 6.225,-15.45 z"
           id="path72"
           inkscape:connector-curvature="0"
           style="fill:#ffffff" /><path
           d="m -6.606201,306.56535 c 5.8375,0 11.6625,0 17.5,0 0,2.9125 0,5.8375 0,8.75 -5.8375,0 -11.6625,0 -17.5,0 0,-2.9125 0,-5.8375 0,-8.75 z"
           id="path90"
           inkscape:connector-curvature="0"
           style="fill:#000000;fill-opacity:1" /><path
           d="m -6.606201,320.31535 c 5.8375,0 11.6625,0 17.5,0 0,2.9125 0,5.8375 0,8.75 -5.8375,0 -11.6625,0 -17.5,0 0,-2.9125 0,-5.8375 0,-8.75 z"
           id="path108"
           inkscape:connector-curvature="0"
           style="fill:#000000;fill-opacity:1" /><path
           d="m -6.606201,334.06535 c 5.8375,0 11.6625,0 17.5,0 0,2.9125 0,5.8375 0,8.75 -5.8375,0 -11.6625,0 -17.5,0 0,-2.9125 0,-5.8375 0,-8.75 z"
           id="path114"
           inkscape:connector-curvature="0"
           style="fill:#000000;fill-opacity:1" /><path
           d="m -6.606201,347.81535 c 5.8375,0 11.6625,0 17.5,0 0,2.9125 0,5.8375 0,8.75 -5.8375,0 -11.6625,0 -17.5,0 0,-2.9125 0,-5.8375 0,-8.75 z"
           id="path120"
           inkscape:connector-curvature="0"
           style="fill:#000000;fill-opacity:1" /></g><path
         inkscape:connector-curvature="0"
         id="path4839"
         d="m -10.61268,184.81816 c -0.006,-0.468 -0.154,-0.93 -0.475,-1.295 l -19.667,-22.465 c -0.004,-0.006 -0.01,-0.008 -0.016,-0.014 -0.117,-0.131 -0.252,-0.239 -0.396,-0.334 -0.043,-0.028 -0.086,-0.053 -0.131,-0.078 -0.127,-0.068 -0.258,-0.124 -0.395,-0.165 -0.037,-0.011 -0.07,-0.026 -0.107,-0.036 -0.15,-0.035 -0.303,-0.057 -0.459,-0.057 l -48.334,0 c -2.205,0 -4,1.795 -4,4 l 0,94 c 0,2.206 1.795,4 4,4 l 66,0 c 2.207,0 4,-1.794 4,-4 l 0,-73.332 c 0,-0.075 -0.012,-0.15 -0.02,-0.224 z m -69.98,43.474 0,-63.917 46.334,0 0,20.466 c 0,1.104 0.895,2 2,2 l 17.666,0 0.002,41.451 z"
         sodipodi:nodetypes="ccccccccssssssssccccssccc" /><text
         inkscape:export-filename="/home/kerb/dev/icons/text3093.png"
         xml:space="preserve"
         style="font-style:normal;font-weight:normal;font-size:36.86276245px;line-height:125%;font-family:Sans;letter-spacing:0px;word-spacing:0px;fill:#ffffff;fill-opacity:1;stroke:none"
         x="-49.59515"
         y="244.0089"
         id="text4841"
         sodipodi:linespacing="125%"
         transform="scale(0.95634174,1.0456513)"
         inkscape:export-xdpi="46.220001"
         inkscape:export-ydpi="46.220001"><tspan
           sodipodi:role="line"
           id="tspan4843"
           x="-50.404732"
           y="244.0089"
           style="font-style:normal;font-variant:normal;font-weight:bold;font-stretch:normal;font-size:25.90667534px;font-family:'DejaVu Sans';-inkscape-font-specification:'DejaVu Sans Bold';text-align:center;letter-spacing:-1.61916721px;text-anchor:middle">XLSX</tspan></text>
</g></g></svg>