<?xml version="1.0" encoding="UTF-8" standalone="no"?>
<!-- Created with Inkscape (http://www.inkscape.org/) -->

<svg
   xmlns:dc="http://purl.org/dc/elements/1.1/"
   xmlns:cc="http://creativecommons.org/ns#"
   xmlns:rdf="http://www.w3.org/1999/02/22-rdf-syntax-ns#"
   xmlns:svg="http://www.w3.org/2000/svg"
   xmlns="http://www.w3.org/2000/svg"
   xmlns:sodipodi="http://sodipodi.sourceforge.net/DTD/sodipodi-0.dtd"
   xmlns:inkscape="http://www.inkscape.org/namespaces/inkscape"
   width="20.884445mm"
   height="28.786667mm"
   viewBox="0 0 74.000003 102"
   id="svg7736"
   version="1.1"
   inkscape:version="0.91 r13725"
   inkscape:export-filename="/home/kerb/dev/idea/ambit-flaticon/export/arff-3.png"
   inkscape:export-xdpi="46.220001"
   inkscape:export-ydpi="46.220001"
   sodipodi:docname="arff-3.svg">
  <defs
     id="defs7738" />
  <sodipodi:namedview
     id="base"
     pagecolor="#ffffff"
     bordercolor="#666666"
     borderopacity="1.0"
     inkscape:pageopacity="0.0"
     inkscape:pageshadow="2"
     inkscape:zoom="7.1470588"
     inkscape:cx="13.353911"
     inkscape:cy="51"
     inkscape:document-units="px"
     inkscape:current-layer="layer1"
     showgrid="false"
     fit-margin-top="0"
     fit-margin-left="0"
     fit-margin-right="0"
     fit-margin-bottom="0"
     inkscape:window-width="1280"
     inkscape:window-height="960"
     inkscape:window-x="0"
     inkscape:window-y="27"
     inkscape:window-maximized="1" />
  <metadata
     id="metadata7741">
    <rdf:RDF>
      <cc:Work
         rdf:about="">
        <dc:format>image/svg+xml</dc:format>
        <dc:type
           rdf:resource="http://purl.org/dc/dcmitype/StillImage" />
        <dc:title></dc:title>
      </cc:Work>
    </rdf:RDF>
  </metadata>
  <g
     inkscape:label="Layer 1"
     inkscape:groupmode="layer"
     id="layer1"
     transform="translate(-280.14286,-478.50506)">
    <g
       transform="translate(-203.55831,198.85272)"
       id="g6576">
      <path
         inkscape:connector-curvature="0"
         id="path5962"
         d="m 487.70117,279.65234 c -2.205,0 -4,1.795 -4,4 l 0,94 c 0,2.206 1.795,4 4,4 l 66,0 c 2.207,0 4,-1.794 4,-4 l 0,-73.33203 c 0,-0.075 -0.0115,-0.14865 -0.0195,-0.22265 -0.006,-0.468 -0.15361,-0.92993 -0.47461,-1.29493 l -19.66797,-22.46484 c -0.004,-0.006 -0.01,-0.01 -0.0156,-0.0156 -0.117,-0.131 -0.25249,-0.23899 -0.39649,-0.33399 -0.043,-0.028 -0.0859,-0.0531 -0.13086,-0.0781 -0.127,-0.068 -0.25753,-0.12307 -0.39453,-0.16407 -0.037,-0.011 -0.0704,-0.0271 -0.10742,-0.0371 -0.15,-0.035 -0.30298,-0.0566 -0.45898,-0.0566 l -48.33399,0 z m 0,4.00196 46.33399,0 0,20.46484 c 0,1.104 0.895,2 2,2 l 17.66601,0 0.002,41.45117 -66.00195,0 0,-63.91601 z m 5.9961,70.71484 5.52929,0 6.66016,18.88086 -4.66211,0 -1.13086,-3.43945 -7.25195,0 -1.14453,3.43945 -4.66211,0 6.66211,-18.88086 z m 13.48828,0 7.08398,0 c 2.36889,0 4.103,0.41734 5.20313,1.25195 1.10815,0.83462 1.66211,2.15488 1.66211,3.95899 0,1.2477 -0.28902,2.27137 -0.86719,3.07226 -0.57014,0.80089 -1.43351,1.39017 -2.58985,1.76954 0.63438,0.15174 1.1994,0.49756 1.69727,1.0371 0.5059,0.53112 1.01732,1.34217 1.53125,2.42969 l 2.51758,5.36133 -4.93945,0 -2.19141,-4.69141 c -0.44166,-0.9442 -0.89189,-1.5899 -1.34961,-1.93554 -0.44969,-0.34565 -1.05181,-0.51758 -1.80664,-0.51758 l -1.3125,0 0,7.14453 -4.63867,0 0,-18.88086 z m 17.91015,0 12.51563,0 0,3.67969 -7.87891,0 0,3.51562 7.4082,0 0,3.67969 -7.4082,0 0,8.00586 -4.63672,0 0,-18.88086 z m 15.78907,0 12.51562,0 0,3.67969 -7.87695,0 0,3.51562 7.40625,0 0,3.67969 -7.40625,0 0,8.00586 -4.63867,0 0,-18.88086 z m -29.06055,3.5293 0,4.84179 1.95117,0 c 0.97165,0 1.66642,-0.18899 2.08399,-0.56835 0.42559,-0.37937 0.63671,-1.00277 0.63671,-1.8711 0,-0.8599 -0.21112,-1.47672 -0.63671,-1.84766 -0.41757,-0.37093 -1.11234,-0.55468 -2.08399,-0.55468 l -1.95117,0 z m -15.35742,0.89648 -2.46875,7.51172 4.92578,0 -2.45703,-7.51172 z" />
      <path
         inkscape:connector-curvature="0"
         id="path5968"
         d="m 504.85742,297.63477 c -0.30283,0.0122 -0.60315,0.0391 -0.90039,0.082 -2.10548,-0.11867 -3.49062,1.60327 -5.32226,2.39453 -1.74629,1.52038 -4.13532,1.92288 -6.23047,2.68164 -2.33917,1.04397 -0.14878,3.79297 1.9082,2.78711 2.3806,0.62766 7.55463,0.007 7.63086,3.16406 -1.7396,1.99925 -2.24506,4.59581 -1.44141,7.16406 0.31679,2.65511 1.93703,5.05812 3.88086,6.79297 2.07007,1.3911 4.07082,2.93101 6.33203,4.00391 3.83267,0.83515 1.07666,4.39059 -0.0644,6.41015 -2.31458,2.22051 1.65417,6.87569 2.90234,2.97657 0.42927,-1.84837 -0.0337,-4.10726 2.52344,-4.12696 0.3209,-3.29044 4.26207,-2.34648 5.07031,0.21875 0.50641,2.11283 -0.21561,5.18429 -1.71093,6.60938 -2.43916,0.25588 -7.2021,0.3035 -7.07227,3.61523 1.27725,1.89519 4.03258,2.45995 6.01953,1.35157 1.95605,-1.17468 4.17523,-1.92266 5.73047,-3.64844 1.09031,-1.70131 -0.69386,-3.81728 0.61133,-5.60156 0.28003,-3.47341 3.9381,-2.17807 6.22851,-2.81836 1.83012,-1.34369 3.50497,-3.47839 5.84961,-4.03711 2.76329,0.15598 5.59739,0.91061 7.66407,2.85937 1.50786,1.20712 5.18352,4.28668 5.04101,0.41992 -0.2881,-2.95467 -3.73697,-4.05037 -5.21484,-6.35547 -1.20729,-1.824 -2.49838,-3.58522 -2.87305,-5.77734 -0.83846,-2.00277 -2.05573,-4.15166 -3.99414,-5.21484 -2.20342,-1.85057 -5.08596,-2.57277 -7.16406,-4.56055 -2.32094,-0.40852 -4.09104,-1.97775 -6.18555,-2.91016 -2.10356,-1.0947 -4.63861,-1.62665 -7.01367,-1.49414 -3.37366,0.75707 -4.74041,-2.63052 -6.71289,-4.51562 -1.18926,-1.86444 -3.37236,-2.55646 -5.49219,-2.4707 z m 15.69922,11.55273 c 2.08398,0 3.64063,0.34375 4.67188,1.03125 1.03841,0.68034 1.55859,1.70703 1.55859,3.08203 0,0.93815 -0.24805,1.70899 -0.74219,2.31055 -0.49414,0.5944 -1.22461,1.01237 -2.1914,1.25586 1.08138,0.27929 1.90234,0.76627 2.46093,1.46093 0.56576,0.6875 0.84766,1.56576 0.84766,2.63282 0,1.58984 -0.60872,2.80013 -1.82617,3.63086 -1.21745,0.82356 -2.99349,1.23437 -5.32813,1.23437 -0.82357,0 -1.64974,-0.0671 -2.48047,-0.20312 -0.82356,-0.12891 -1.63997,-0.32683 -2.44922,-0.5918 l 0,-3.18945 c 0.77344,0.38672 1.53972,0.68034 2.29883,0.88086 0.76628,0.19336 1.51823,0.28906 2.25586,0.28906 1.09571,0 1.9336,-0.1888 2.51367,-0.56836 0.58724,-0.37956 0.88086,-0.92383 0.88086,-1.63281 0,-0.73047 -0.30078,-1.2819 -0.90234,-1.6543 -0.5944,-0.37956 -1.47526,-0.57031 -2.64258,-0.57031 l -1.6543,0 0,-2.66406 1.74024,0 c 1.03841,0 1.81185,-0.16016 2.32031,-0.48243 0.50847,-0.32942 0.76172,-0.82812 0.76172,-1.49414 0,-0.61588 -0.24609,-1.09114 -0.74023,-1.42773 -0.49414,-0.33659 -1.19336,-0.50586 -2.09571,-0.50586 -0.66601,0 -1.33919,0.0762 -2.01953,0.22656 -0.68034,0.15039 -1.35612,0.3724 -2.0293,0.66602 l 0,-3.0293 c 0.81641,-0.22917 1.62566,-0.40104 2.42774,-0.51562 0.80208,-0.11459 1.58984,-0.17188 2.36328,-0.17188 z"
         style="fill:#000000;fill-opacity:1;stroke:none" />
    </g>
  </g>
</svg>
