<?xml version="1.0" encoding="UTF-8" standalone="no"?>
<!-- Created with Inkscape (http://www.inkscape.org/) -->

<svg
   xmlns:dc="http://purl.org/dc/elements/1.1/"
   xmlns:cc="http://creativecommons.org/ns#"
   xmlns:rdf="http://www.w3.org/1999/02/22-rdf-syntax-ns#"
   xmlns:svg="http://www.w3.org/2000/svg"
   xmlns="http://www.w3.org/2000/svg"
   xmlns:sodipodi="http://sodipodi.sourceforge.net/DTD/sodipodi-0.dtd"
   xmlns:inkscape="http://www.inkscape.org/namespaces/inkscape"
   width="20.884445mm"
   height="28.786667mm"
   viewBox="0 0 74.000003 102"
   id="svg7426"
   version="1.1"
   inkscape:version="0.91 r13725"
   inkscape:export-filename="/home/kerb/dev/idea/ambit-flaticon/export/arff.png"
   inkscape:export-xdpi="46.220001"
   inkscape:export-ydpi="46.220001"
   sodipodi:docname="arff.svg">
  <defs
     id="defs7428" />
  <sodipodi:namedview
     id="base"
     pagecolor="#ffffff"
     bordercolor="#666666"
     borderopacity="1.0"
     inkscape:pageopacity="0.0"
     inkscape:pageshadow="2"
     inkscape:zoom="7.1470588"
     inkscape:cx="13.353911"
     inkscape:cy="51"
     inkscape:document-units="px"
     inkscape:current-layer="layer1"
     showgrid="false"
     fit-margin-top="0"
     fit-margin-left="0"
     fit-margin-right="0"
     fit-margin-bottom="0"
     inkscape:window-width="1280"
     inkscape:window-height="960"
     inkscape:window-x="0"
     inkscape:window-y="27"
     inkscape:window-maximized="1" />
  <metadata
     id="metadata7431">
    <rdf:RDF>
      <cc:Work
         rdf:about="">
        <dc:format>image/svg+xml</dc:format>
        <dc:type
           rdf:resource="http://purl.org/dc/dcmitype/StillImage" />
        <dc:title></dc:title>
      </cc:Work>
    </rdf:RDF>
  </metadata>
  <g
     inkscape:label="Layer 1"
     inkscape:groupmode="layer"
     id="layer1"
     transform="translate(-308.71429,-478.50506)">
    <g
       transform="translate(293.30804,203.05584)"
       id="g6552">
      <path
         inkscape:connector-curvature="0"
         id="path5988"
         d="m 19.40625,275.44922 c -2.205,0 -4,1.795 -4,4 l 0,94 c 0,2.206 1.795,4 4,4 l 66,0 c 2.207,0 4,-1.794 4,-4 l 0,-73.33203 c 0,-0.075 -0.01153,-0.15061 -0.01953,-0.22461 -0.006,-0.468 -0.15361,-0.92992 -0.47461,-1.29492 L 69.244141,276.13281 c -0.004,-0.006 -0.0096,-0.008 -0.01563,-0.0137 -0.117,-0.131 -0.252485,-0.23898 -0.396485,-0.33398 -0.043,-0.028 -0.08586,-0.0531 -0.130859,-0.0781 -0.127,-0.068 -0.257531,-0.12501 -0.394531,-0.16601 -0.037,-0.011 -0.07042,-0.0252 -0.107422,-0.0352 -0.15,-0.035 -0.302985,-0.0566 -0.458985,-0.0566 l -48.333984,0 z m 0,4 46.333984,0 0,20.4668 c 0,1.104 0.895,2 2,2 l 17.666016,0 0.002,41.45117 -66.001953,0 0,-63.91797 z m 5.996094,70.7168 5.529297,0 6.660156,18.8789 -4.660156,0 -1.132813,-3.43945 -7.251953,0 -1.144531,3.43945 -4.660156,0 6.660156,-18.8789 z m 13.488281,0 7.083984,0 c 2.368887,0 4.102999,0.41734 5.203125,1.25195 1.108157,0.83461 1.66211,2.15292 1.66211,3.95703 0,1.2477 -0.289019,2.27333 -0.867188,3.07422 -0.570138,0.80089 -1.433506,1.39016 -2.589844,1.76953 0.63438,0.15175 1.201352,0.49756 1.699219,1.03711 0.505898,0.53112 1.015369,1.34021 1.529297,2.42773 l 2.517578,5.36133 -4.939453,0 -2.191406,-4.6914 c -0.441657,-0.94421 -0.891893,-1.58795 -1.349609,-1.9336 -0.449687,-0.34565 -1.05181,-0.51953 -1.806641,-0.51953 l -1.3125,0 0,7.14453 -4.638672,0 0,-18.8789 z m 17.910156,0 12.515625,0 0,3.67968 -7.876953,0 0,3.51563 7.40625,0 0,3.67969 -7.40625,0 0,8.0039 -4.638672,0 0,-18.8789 z m 15.791016,0 12.513672,0 0,3.67968 -7.876953,0 0,3.51563 7.408203,0 0,3.67969 -7.408203,0 0,8.0039 -4.636719,0 0,-18.8789 z m -29.0625,3.52734 0,4.84375 1.951172,0 c 0.971645,0 1.666418,-0.18899 2.083984,-0.56836 0.425597,-0.37937 0.638672,-1.00471 0.638672,-1.87305 0,-0.8599 -0.213075,-1.47476 -0.638672,-1.8457 -0.417566,-0.37094 -1.112339,-0.55664 -2.083984,-0.55664 l -1.951172,0 z m -15.355469,0.89844 -2.470703,7.51172 4.927734,0 -2.457031,-7.51172 z" />
      <path
         inkscape:connector-curvature="0"
         id="path5994"
         d="m 30.339952,295.9076 c -1.746288,1.52038 -4.135574,1.92248 -6.230729,2.68124 -2.339163,1.04397 -0.147559,3.79249 1.909421,2.78663 2.380602,0.62766 7.554983,0.007 7.631214,3.16424 -1.739607,1.99925 -2.2461,4.59713 -1.44245,7.16538 0.316784,2.65511 1.936565,5.05806 3.880396,6.79291 2.070071,1.3911 4.071915,2.93093 6.333117,4.00383 3.832677,0.83515 1.075615,4.38947 -0.06552,6.40903 -2.314572,2.22051 1.654192,6.87691 2.902364,2.97779 0.429274,-1.84837 -0.03412,-4.10791 2.523071,-4.12761 0.320904,-3.29044 4.263565,-2.34597 5.071813,0.21926 0.506404,2.11283 -0.216079,5.18452 -1.711406,6.60961 -2.439162,0.25588 -7.201599,0.30235 -7.071767,3.61408 1.277254,1.89519 4.032458,2.46022 6.019413,1.35184 1.956044,-1.17468 4.174586,-1.92284 5.72983,-3.64862 1.090307,-1.70131 -0.693071,-3.81771 0.612114,-5.60199 0.280033,-3.47341 3.936974,-2.17812 6.227381,-2.81841 1.830122,-1.34369 3.505178,-3.47816 5.84982,-4.03688 2.76329,0.15598 5.596942,0.91022 7.663617,2.85898 1.507867,1.20712 5.183512,4.287 5.041005,0.42024 -0.288102,-2.95467 -3.736076,-4.04987 -5.213954,-6.35496 -1.207282,-1.82401 -2.497853,-3.58531 -2.872527,-5.77743 -0.838456,-2.00277 -2.057371,-4.15081 -3.995775,-5.21399 -2.203422,-1.85057 -5.085439,-2.57318 -7.163539,-4.56096 -2.320933,-0.40852 -4.090565,-1.97831 -6.185072,-2.91072 -2.103566,-1.0947 -4.638386,-1.62619 -7.013444,-1.49368 -3.373661,0.75707 -4.741389,-2.62997 -6.713871,-4.51507 -1.359151,-2.13079 -4.014382,-2.73192 -6.392288,-2.38867 -2.105485,-0.11867 -3.490599,1.60267 -5.32224,2.39393 z"
         style="fill:#000000;fill-opacity:1;stroke:none"
         inkscape:export-filename="/home/kerb/dev/icons/text3094.png"
         inkscape:export-xdpi="46.220001"
         inkscape:export-ydpi="46.220001" />
    </g>
  </g>
</svg>
