<?xml version="1.0" encoding="UTF-8" standalone="no"?>
<!-- Created with Inkscape (http://www.inkscape.org/) -->

<svg
   xmlns:dc="http://purl.org/dc/elements/1.1/"
   xmlns:cc="http://creativecommons.org/ns#"
   xmlns:rdf="http://www.w3.org/1999/02/22-rdf-syntax-ns#"
   xmlns:svg="http://www.w3.org/2000/svg"
   xmlns="http://www.w3.org/2000/svg"
   xmlns:sodipodi="http://sodipodi.sourceforge.net/DTD/sodipodi-0.dtd"
   xmlns:inkscape="http://www.inkscape.org/namespaces/inkscape"
   width="20.884443mm"
   height="28.786667mm"
   viewBox="0 0 73.999996 102"
   id="svg7131"
   version="1.1"
   inkscape:version="0.91 r13725"
   inkscape:export-filename="/home/kerb/dev/idea/ambit-flaticon/export/cml.png"
   inkscape:export-xdpi="46.220001"
   inkscape:export-ydpi="46.220001"
   sodipodi:docname="cml.svg">
  <defs
     id="defs7133" />
  <sodipodi:namedview
     id="base"
     pagecolor="#ffffff"
     bordercolor="#666666"
     borderopacity="1.0"
     inkscape:pageopacity="0.0"
     inkscape:pageshadow="2"
     inkscape:zoom="7.1470588"
     inkscape:cx="13.353907"
     inkscape:cy="51"
     inkscape:document-units="px"
     inkscape:current-layer="layer1"
     showgrid="false"
     fit-margin-top="0"
     fit-margin-left="0"
     fit-margin-right="0"
     fit-margin-bottom="0"
     inkscape:window-width="1280"
     inkscape:window-height="960"
     inkscape:window-x="0"
     inkscape:window-y="27"
     inkscape:window-maximized="1" />
  <metadata
     id="metadata7136">
    <rdf:RDF>
      <cc:Work
         rdf:about="">
        <dc:format>image/svg+xml</dc:format>
        <dc:type
           rdf:resource="http://purl.org/dc/dcmitype/StillImage" />
        <dc:title></dc:title>
      </cc:Work>
    </rdf:RDF>
  </metadata>
  <g
     inkscape:label="Layer 1"
     inkscape:groupmode="layer"
     id="layer1"
     transform="translate(-328.71429,-487.07649)">
    <g
       transform="translate(500.19085,211.0843)"
       id="g6497">
      <path
         inkscape:connector-curvature="0"
         id="path6036"
         d="m -167.47656,275.99219 c -2.205,0 -4,1.795 -4,4 l 0,94 c 0,2.206 1.795,4 4,4 l 66,0 c 2.206997,0 3.999998,-1.794 3.999998,-4 l 0,-73.33203 c 0,-0.075 -0.01349,-0.14866 -0.02148,-0.22266 -0.006,-0.468 -0.153609,-0.93187 -0.474609,-1.29688 l -19.666019,-22.46484 c -0.004,-0.006 -0.0116,-0.008 -0.0176,-0.0137 -0.117,-0.131 -0.25053,-0.23899 -0.39453,-0.33399 -0.043,-0.028 -0.0859,-0.0531 -0.13086,-0.0781 -0.127,-0.068 -0.25948,-0.12306 -0.39648,-0.16406 -0.037,-0.011 -0.0685,-0.0271 -0.10547,-0.0371 -0.15,-0.035 -0.30298,-0.0566 -0.45899,-0.0566 l -48.33397,0 z m 0,4.00195 46.33398,0 0,20.46484 c 0,1.104 0.895,2 2,2 l 17.66602,0 0.002,41.45118 -66.00195,0 0,-63.91602 z m 13.88672,69.79297 c 1.11194,0 2.17818,0.13109 3.20117,0.39258 1.02299,0.26149 2.00629,0.64846 2.94922,1.16211 l 0,4.33008 c -0.95183,-0.68175 -1.88932,-1.18248 -2.81446,-1.5 -0.92513,-0.31753 -1.90084,-0.47657 -2.92382,-0.47657 -1.83249,0 -3.27259,0.61686 -4.32227,1.84961 -1.04968,1.23275 -1.57422,2.93296 -1.57422,5.09961 0,2.15731 0.52454,3.85124 1.57422,5.08399 1.04968,1.23274 2.48978,1.8496 4.32227,1.8496 1.02298,0 1.99869,-0.15903 2.92382,-0.47656 0.92514,-0.31752 1.86263,-0.8163 2.81446,-1.49804 l 0,4.32812 c -0.94293,0.51365 -1.92623,0.90062 -2.94922,1.16211 -1.02299,0.26149 -2.08923,0.39258 -3.20117,0.39258 -3.31805,0 -5.94749,-0.97155 -7.88672,-2.91406 -1.93923,-1.95186 -2.90821,-4.59372 -2.90821,-7.92774 0,-3.34336 0.96898,-5.98717 2.90821,-7.92969 1.93923,-1.95185 4.56867,-2.92773 7.88672,-2.92773 z m 9.34765,0.37891 6.53711,0 4.53711,11.1914 4.5625,-11.1914 6.52539,0 0,20.91406 -4.85742,0 0,-15.29688 -4.58984,11.27735 -3.25586,0 -4.58985,-11.27735 0,15.29688 -4.86914,0 0,-20.91406 z m 26.14649,0 5.13672,0 0,16.83789 9.01953,0 0,4.07617 -14.15625,0 0,-20.91406 z" />
      <g
         id="g6450">
        <text
           xml:space="preserve"
           style="font-style:normal;font-weight:normal;font-size:40px;line-height:125%;font-family:Sans;-inkscape-font-specification:'Droid Sans';letter-spacing:0px;word-spacing:0px;fill:#000000;fill-opacity:1;stroke:none"
           x="-163.67819"
           y="299.2757"
           id="text6042"
           sodipodi:linespacing="125%"><tspan
             sodipodi:role="line"
             x="-163.67819"
             y="299.2757"
             id="tspan6044"
             style="font-style:normal;font-variant:normal;font-weight:bold;font-stretch:normal;font-size:24px;font-family:'Droid Sans';-inkscape-font-specification:'Droid Sans Bold'">&lt;</tspan></text>
        <text
           sodipodi:linespacing="125%"
           id="text6046"
           y="339.53641"
           x="-102.76691"
           style="font-style:normal;font-weight:normal;font-size:40px;line-height:125%;font-family:Sans;text-align:end;letter-spacing:0px;word-spacing:0px;text-anchor:end;fill:#000000;fill-opacity:1;stroke:none"
           xml:space="preserve"><tspan
             style="font-style:normal;font-variant:normal;font-weight:bold;font-stretch:normal;font-size:24px;font-family:'Droid Sans';-inkscape-font-specification:'Droid Sans Bold';text-align:end;text-anchor:end"
             id="tspan6048"
             y="339.53641"
             x="-102.76691"
             sodipodi:role="line">/&gt;</tspan></text>
        <g
           style="fill:#000000;stroke:#000000;stroke-width:1.58474624;stroke-miterlimit:4;stroke-dasharray:none"
           transform="matrix(0.23015974,-0.25642439,0.25642439,0.23015974,-168.08849,317.89234)"
           id="g6050">
          <g
             transform="translate(22.8047,90.835)"
             style="fill:#000000;fill-rule:evenodd;stroke:#000000;stroke-width:1.58474624;stroke-miterlimit:4;stroke-dasharray:none"
             id="g6052">
            <path
               style="fill:#000000;stroke:#000000;stroke-width:1.58474624;stroke-miterlimit:4;stroke-dasharray:none"
               inkscape:connector-curvature="0"
               d="m 11.6621,0 c 0,0 -1.7998,0 -1.7998,0 0,0 0,12.194 0,12.194 C 9.8623,12.194 2.0664,0 2.0664,0 2.0664,0 0,0 0,0 c 0,0 0,14.915 0,14.915 0,0 1.8008,0 1.8008,0 0,0 0,-12.0918 0,-12.0918 0,0 7.7138,12.0918 7.7138,12.0918 0,0 2.1475,0 2.1475,0 0,0 0,-14.915 0,-14.915 z"
               id="path6054" />
          </g>
          <g
             transform="translate(2.40039,53.25)"
             style="fill:#000000;fill-rule:nonzero;stroke:#000000;stroke-width:1.58474624;stroke-miterlimit:4;stroke-dasharray:none"
             id="g6056">
            <path
               style="fill:#000000;stroke:#000000;stroke-width:1.58474624;stroke-miterlimit:4;stroke-dasharray:none"
               inkscape:connector-curvature="0"
               d="m 1.25,29.4502 c 0,0 -1.25,0.7002 -1.25,0.7002 C 0,30.1504 0,0 0,0 c 0,0 1.25,0.7002 1.25,0.7002 0,0 0,28.75 0,28.75 z"
               id="path6058" />
          </g>
          <g
             transform="translate(7.7002,56.6504)"
             style="fill:#000000;fill-rule:nonzero;stroke:#000000;stroke-width:1.58474624;stroke-miterlimit:4;stroke-dasharray:none"
             id="g6060">
            <path
               style="fill:#000000;stroke:#000000;stroke-width:1.58474624;stroke-miterlimit:4;stroke-dasharray:none"
               inkscape:connector-curvature="0"
               d="m 1.25,23.3496 c 0,0 -1.25,0 -1.25,0 C 0,23.3496 0,0 0,0 c 0,0 1.25,0 1.25,0 0,0 0,23.3496 0,23.3496 z"
               id="path6062" />
          </g>
          <g
             transform="translate(2.40039,82.7002)"
             style="fill:#000000;fill-rule:nonzero;stroke:#000000;stroke-width:1.58474624;stroke-miterlimit:4;stroke-dasharray:none"
             id="g6064">
            <path
               style="fill:#000000;stroke:#000000;stroke-width:1.58474624;stroke-miterlimit:4;stroke-dasharray:none"
               inkscape:connector-curvature="0"
               d="m 16.4492,8.7998 c 0,0 -0.6494,1.0498 -0.6494,1.0498 C 15.7998,9.8496 0,0.7002 0,0.7002 0,0.7002 1.25,0 1.25,0 c 0,0 15.1992,8.7998 15.1992,8.7998 z"
               id="path6066" />
          </g>
          <g
             transform="translate(38.25,82.7002)"
             style="fill:#000000;fill-rule:nonzero;stroke:#000000;stroke-width:1.58474624;stroke-miterlimit:4;stroke-dasharray:none"
             id="g6068">
            <path
               style="fill:#000000;stroke:#000000;stroke-width:1.58474624;stroke-miterlimit:4;stroke-dasharray:none"
               inkscape:connector-curvature="0"
               d="m 15.2002,0 c 0,0 1.2002,0.7002 1.2002,0.7002 0,0 -15.8008,9.1494 -15.8008,9.1494 C 0.5996,9.8496 0,8.7998 0,8.7998 0,8.7998 15.2002,0 15.2002,0 Z"
               id="path6070" />
          </g>
          <g
             transform="translate(35.5996,79.4502)"
             style="fill:#000000;fill-rule:nonzero;stroke:#000000;stroke-width:1.58474624;stroke-miterlimit:4;stroke-dasharray:none"
             id="g6072">
            <path
               style="fill:#000000;stroke:#000000;stroke-width:1.58474624;stroke-miterlimit:4;stroke-dasharray:none"
               inkscape:connector-curvature="0"
               d="m 12.8506,0 c 0,0 0.5996,1.0996 0.5996,1.0996 0,0 -12.8496,7.4004 -12.8496,7.4004 C 0.6006,8.5 0,7.4502 0,7.4502 0,7.4502 12.8506,0 12.8506,0 Z"
               id="path6074" />
          </g>
          <g
             transform="translate(53.4502,53.5996)"
             style="fill:#000000;fill-rule:nonzero;stroke:#000000;stroke-width:1.58474624;stroke-miterlimit:4;stroke-dasharray:none"
             id="g6076">
            <path
               style="fill:#000000;stroke:#000000;stroke-width:1.58474624;stroke-miterlimit:4;stroke-dasharray:none"
               inkscape:connector-curvature="0"
               d="M 0,0.3506 C 0,0.3506 0.5996,0 0.5996,0 c 0,0 0.6006,0.3506 0.6006,0.3506 0,0 0,29.4502 0,29.4502 0,0 -1.2002,-0.7002 -1.2002,-0.7002 0,0 0,-28.75 0,-28.75 z"
               id="path6078" />
          </g>
          <g
             transform="translate(28.5498,38.1504)"
             style="fill:#000000;fill-rule:nonzero;stroke:#000000;stroke-width:1.58474624;stroke-miterlimit:4;stroke-dasharray:none"
             id="g6080">
            <path
               style="fill:#000000;stroke:#000000;stroke-width:1.58474624;stroke-miterlimit:4;stroke-dasharray:none"
               inkscape:connector-curvature="0"
               d="M 0,1.4492 C 0,1.4492 0,0 0,0 c 0,0 25.5,14.75 25.5,14.75 0,0 0,0.6992 0,0.6992 0,0 -0.5996,0.3506 -0.5996,0.3506 C 24.9004,15.7998 0,1.4492 0,1.4492 Z"
               id="path6082" />
          </g>
          <g
             transform="translate(28.25,44.4502)"
             style="fill:#000000;fill-rule:nonzero;stroke:#000000;stroke-width:1.58474624;stroke-miterlimit:4;stroke-dasharray:none"
             id="g6084">
            <path
               style="fill:#000000;stroke:#000000;stroke-width:1.58474624;stroke-miterlimit:4;stroke-dasharray:none"
               inkscape:connector-curvature="0"
               d="M 0,1.0498 C 0,1.0498 0.5996,0 0.5996,0 c 0,0 20.2002,11.7002 20.2002,11.7002 0,0 -0.5996,1.0498 -0.5996,1.0498 C 20.2002,12.75 0,1.0498 0,1.0498 Z"
               id="path6086" />
          </g>
          <g
             transform="translate(2.40039,38.1504)"
             style="fill:#000000;fill-rule:nonzero;stroke:#000000;stroke-width:1.58474624;stroke-miterlimit:4;stroke-dasharray:none"
             id="g6088">
            <path
               style="fill:#000000;stroke:#000000;stroke-width:1.58474624;stroke-miterlimit:4;stroke-dasharray:none"
               inkscape:connector-curvature="0"
               d="M 1.25,15.7998 C 1.25,15.7998 0,15.0996 0,15.0996 0,15.0996 26.1494,0 26.1494,0 c 0,0 0,1.4492 0,1.4492 0,0 -24.8994,14.3506 -24.8994,14.3506 z"
               id="path6090" />
          </g>
          <g
             transform="translate(54.0498,38.8496)"
             style="fill:#000000;fill-rule:nonzero;stroke:#000000;stroke-width:1.58474624;stroke-miterlimit:4;stroke-dasharray:none"
             id="g6092">
            <path
               style="fill:#000000;stroke:#000000;stroke-width:1.58474624;stroke-miterlimit:4;stroke-dasharray:none"
               inkscape:connector-curvature="0"
               d="M 24.2002,0.1006 C 24.2002,0.1006 25.5,0 25.5,0 c 0,0 0.0498,0.7002 0.0498,0.7002 0,0 -24.9492,14.4004 -24.9492,14.4004 C 0.6006,15.1006 0,14.75 0,14.75 c 0,0 0,-0.6992 0,-0.6992 0,0 24.2002,-13.9502 24.2002,-13.9502 z"
               id="path6094" />
          </g>
          <g
             transform="translate(100.805,44.085)"
             style="fill:#000000;fill-rule:evenodd;stroke:#000000;stroke-width:1.58474624;stroke-miterlimit:4;stroke-dasharray:none"
             id="g6096">
            <path
               style="fill:#000000;stroke:#000000;stroke-width:1.58474624;stroke-miterlimit:4;stroke-dasharray:none"
               inkscape:connector-curvature="0"
               d="m 11.662,0 c 0,0 -1.8,0 -1.8,0 0,0 0,12.1943 0,12.1943 C 9.862,12.1943 2.066,0 2.066,0 2.066,0 0,0 0,0 c 0,0 0,14.915 0,14.915 0,0 1.8,0 1.8,0 0,0 0,-12.0918 0,-12.0918 0,0 7.714,12.0918 7.714,12.0918 0,0 2.148,0 2.148,0 0,0 0,-14.915 0,-14.915 z"
               id="path6098" />
          </g>
          <g
             transform="translate(79.5498,38.5)"
             style="fill:#000000;fill-rule:nonzero;stroke:#000000;stroke-width:1.58474624;stroke-miterlimit:4;stroke-dasharray:none"
             id="g6100">
            <path
               style="fill:#000000;stroke:#000000;stroke-width:1.58474624;stroke-miterlimit:4;stroke-dasharray:none"
               inkscape:connector-curvature="0"
               d="m 16.9004,7.2002 c 0,0 -0.5,1.1494 -0.5,1.1494 0,0 -16.3506,-7.2998 -16.3506,-7.2998 C 0.0498,1.0498 0,0.3496 0,0.3496 0,0.3496 0.6504,0 0.6504,0 c 0,0 16.25,7.2002 16.25,7.2002 z"
               id="path6102" />
          </g>
          <g
             transform="translate(114.1,28.9004)"
             style="fill:#000000;fill-rule:nonzero;stroke:#000000;stroke-width:1.58474624;stroke-miterlimit:4;stroke-dasharray:none"
             id="g6104">
            <path
               style="fill:#000000;stroke:#000000;stroke-width:1.58474624;stroke-miterlimit:4;stroke-dasharray:none"
               inkscape:connector-curvature="0"
               d="m 11.35,0 c 0,0 1.5,0.1494 1.5,0.1494 0,0 -11.95,13.25 -11.95,13.25 0,0 -0.9,-0.8496 -0.9,-0.8496 C 0,12.5498 11.35,0 11.35,0 Z"
               id="path6106" />
          </g>
          <g
             transform="translate(111.15,2.75)"
             style="fill:#000000;fill-rule:nonzero;stroke:#000000;stroke-width:1.58474624;stroke-miterlimit:4;stroke-dasharray:none"
             id="g6108">
            <path
               style="fill:#000000;stroke:#000000;stroke-width:1.58474624;stroke-miterlimit:4;stroke-dasharray:none"
               inkscape:connector-curvature="0"
               d="M 0,1.40039 C 0,1.40039 0.6,0 0.6,0 c 0,0 15.2,26.2998 15.2,26.2998 0,0 -1.5,-0.1494 -1.5,-0.1494 C 14.3,26.1504 0,1.40039 0,1.40039 Z"
               id="path6110" />
          </g>
          <g
             transform="translate(82.0996,2.75)"
             style="fill:#000000;fill-rule:nonzero;stroke:#000000;stroke-width:1.58474624;stroke-miterlimit:4;stroke-dasharray:none"
             id="g6112">
            <path
               style="fill:#000000;stroke:#000000;stroke-width:1.58474624;stroke-miterlimit:4;stroke-dasharray:none"
               inkscape:connector-curvature="0"
               d="M 1.1006,7.3496 C 1.1006,7.3496 0,6.2998 0,6.2998 0,6.2998 29.6504,0 29.6504,0 c 0,0 -0.6,1.40039 -0.6,1.40039 0,0 -27.9498,5.94921 -27.9498,5.94921 z"
               id="path6114" />
          </g>
          <g
             transform="translate(79.0498,9.0498)"
             style="fill:#000000;fill-rule:nonzero;stroke:#000000;stroke-width:1.58474624;stroke-miterlimit:4;stroke-dasharray:none"
             id="g6116">
            <path
               style="fill:#000000;stroke:#000000;stroke-width:1.58474624;stroke-miterlimit:4;stroke-dasharray:none"
               inkscape:connector-curvature="0"
               d="m 1.1504,29.4502 c 0,0 -0.6504,0.3496 -0.6504,0.3496 0,0 -0.5,-1.1992 -0.5,-1.1992 C 0,28.6006 3.0498,0 3.0498,0 c 0,0 1.1006,1.0498 1.1006,1.0498 0,0 -3,28.4004 -3,28.4004 z"
               id="path6118" />
          </g>
          <g
             transform="translate(108.45,62.7998)"
             style="fill:#000000;fill-rule:nonzero;stroke:#000000;stroke-width:1.58474624;stroke-miterlimit:4;stroke-dasharray:none"
             id="g6120">
            <path
               style="fill:#000000;stroke:#000000;stroke-width:1.58474624;stroke-miterlimit:4;stroke-dasharray:none"
               inkscape:connector-curvature="0"
               d="m 4.75,16.75 c 0,0 -1.2,0.25 -1.2,0.25 C 3.55,17 0,0.25 0,0.25 0,0.25 1.2,0 1.2,0 c 0,0 3.55,16.75 3.55,16.75 z"
               id="path6122" />
          </g>
          <g
             transform="translate(49.1982,16.085)"
             style="fill:#000000;fill-rule:evenodd;stroke:#000000;stroke-width:1.58474624;stroke-miterlimit:4;stroke-dasharray:none"
             id="g6124">
            <path
               style="fill:#000000;stroke:#000000;stroke-width:1.58474624;stroke-miterlimit:4;stroke-dasharray:none"
               inkscape:connector-curvature="0"
               d="m 9.5752,8.122 c 0,0 0,6.793 0,6.793 0,0 1.9024,0 1.9024,0 0,0 0,-14.915 0,-14.915 0,0 -1.9024,0 -1.9024,0 0,0 0,6.4443 0,6.4443 0,0 -7.6728,0 -7.6728,0 0,0 0,-6.4443 0,-6.4443 C 1.9024,0 0,0 0,0 c 0,0 0,14.915 0,14.915 0,0 1.9229,0 1.9229,0 0,0 0,-6.793 0,-6.793 0,0 7.6523,0 7.6523,0 z"
               id="path6126" />
          </g>
          <g
             transform="translate(63.6504,27.0498)"
             style="fill:#000000;fill-rule:nonzero;stroke:#000000;stroke-width:1.58474624;stroke-miterlimit:4;stroke-dasharray:none"
             id="g6128">
            <path
               style="fill:#000000;stroke:#000000;stroke-width:1.58474624;stroke-miterlimit:4;stroke-dasharray:none"
               inkscape:connector-curvature="0"
               d="M 0,5.1504 C 0,5.1504 3.3496,0 3.3496,0 c 0,0 12.0498,10.6006 12.0498,10.6006 0,0 0.5,1.1992 0.5,1.1992 0,0 -1.2998,0.1006 -1.2998,0.1006 0,0 -14.5996,-6.75 -14.5996,-6.75 z"
               id="path6130" />
          </g>
        </g>
      </g>
    </g>
  </g>
</svg>
