<?xml version="1.0" encoding="UTF-8" standalone="no"?>
<!-- Created with Inkscape (http://www.inkscape.org/) -->

<svg
   xmlns:dc="http://purl.org/dc/elements/1.1/"
   xmlns:cc="http://creativecommons.org/ns#"
   xmlns:rdf="http://www.w3.org/1999/02/22-rdf-syntax-ns#"
   xmlns:svg="http://www.w3.org/2000/svg"
   xmlns="http://www.w3.org/2000/svg"
   xmlns:xlink="http://www.w3.org/1999/xlink"
   xmlns:sodipodi="http://sodipodi.sourceforge.net/DTD/sodipodi-0.dtd"
   xmlns:inkscape="http://www.inkscape.org/namespaces/inkscape"
   width="20.883995mm"
   height="28.786873mm"
   viewBox="0 0 20.883995 28.786873"
   version="1.1"
   id="svg6547"
   inkscape:version="0.92.1 r"
   sodipodi:docname="i6z.svg">
  <defs
     id="defs6541">
    <radialGradient
       inkscape:collect="always"
       xlink:href="#linearGradient3329"
       id="radialGradient6406"
       gradientUnits="userSpaceOnUse"
       gradientTransform="matrix(-1.0355257,-0.83098844,0.76715913,-0.9559867,-689.49434,640.62578)"
       cx="-176.17107"
       cy="406.01376"
       fx="-176.17107"
       fy="406.01376"
       r="27.337517" />
    <linearGradient
       id="linearGradient3329">
      <stop
         style="stop-color:#c3c3c3;stop-opacity:1;"
         offset="0"
         id="stop3331" />
      <stop
         style="stop-color:#191919;stop-opacity:1;"
         offset="1"
         id="stop3333" />
    </linearGradient>
    <linearGradient
       inkscape:collect="always"
       xlink:href="#linearGradient3329"
       id="linearGradient6408"
       gradientUnits="userSpaceOnUse"
       gradientTransform="rotate(37.145562,-358.99207,560.54254)"
       x1="-350.8826"
       y1="289.8606"
       x2="-348.39575"
       y2="289.83533" />
    <radialGradient
       inkscape:collect="always"
       xlink:href="#linearGradient3329"
       id="radialGradient6410"
       gradientUnits="userSpaceOnUse"
       gradientTransform="matrix(-1.0355257,-0.83098844,0.76715913,-0.9559867,-689.49434,640.62578)"
       cx="-171.27342"
       cy="406.72177"
       fx="-171.27342"
       fy="406.72177"
       r="27.337517" />
    <linearGradient
       inkscape:collect="always"
       xlink:href="#linearGradient3329"
       id="linearGradient6412"
       gradientUnits="userSpaceOnUse"
       gradientTransform="rotate(-65.382613,-238.56121,245.89592)"
       x1="-350.8826"
       y1="289.8606"
       x2="-348.39575"
       y2="289.83533" />
    <radialGradient
       inkscape:collect="always"
       xlink:href="#linearGradient3329"
       id="radialGradient6414"
       gradientUnits="userSpaceOnUse"
       gradientTransform="matrix(-1.0355257,-0.83098844,0.76715913,-0.9559867,-689.49434,640.62578)"
       cx="-176.17107"
       cy="406.01376"
       fx="-176.17107"
       fy="406.01376"
       r="27.337517" />
    <linearGradient
       inkscape:collect="always"
       xlink:href="#linearGradient3329"
       id="linearGradient6416"
       gradientUnits="userSpaceOnUse"
       x1="-350.8826"
       y1="289.8606"
       x2="-348.39575"
       y2="289.83533" />
    <radialGradient
       inkscape:collect="always"
       xlink:href="#linearGradient3329"
       id="radialGradient6418"
       gradientUnits="userSpaceOnUse"
       gradientTransform="matrix(-1.0339027,-0.83300688,1.0523875,-1.3061933,-805.44284,783.04178)"
       cx="-185.64648"
       cy="418.16946"
       fx="-185.64648"
       fy="418.16946"
       r="27.337517" />
  </defs>
  <sodipodi:namedview
     id="base"
     pagecolor="#ffffff"
     bordercolor="#666666"
     borderopacity="1.0"
     inkscape:pageopacity="0.0"
     inkscape:pageshadow="2"
     inkscape:zoom="7.1782574"
     inkscape:cx="39.465817"
     inkscape:cy="54.40039"
     inkscape:document-units="mm"
     inkscape:current-layer="layer1"
     showgrid="false"
     inkscape:window-width="1920"
     inkscape:window-height="1016"
     inkscape:window-x="0"
     inkscape:window-y="27"
     inkscape:window-maximized="1" />
  <metadata
     id="metadata6544">
    <rdf:RDF>
      <cc:Work
         rdf:about="">
        <dc:format>image/svg+xml</dc:format>
        <dc:type
           rdf:resource="http://purl.org/dc/dcmitype/StillImage" />
        <dc:title></dc:title>
      </cc:Work>
    </rdf:RDF>
  </metadata>
  <g
     inkscape:label="Layer 1"
     inkscape:groupmode="layer"
     id="layer1"
     transform="translate(-75.736574,-130.66014)">
    <g
       transform="matrix(0.2822222,0,0,0.2822222,-89.09677,51.893891)"
       id="g6456">
      <path
         inkscape:connector-curvature="0"
         transform="scale(0.93750004)"
         id="path6382"
         d="m 627.25781,297.69922 c -2.352,0 -4.26562,1.91558 -4.26562,4.26758 v 100.26562 c 0,2.35307 1.91362,4.26758 4.26562,4.26758 h 70.40039 c 2.35414,0 4.26563,-1.91451 4.26563,-4.26758 v -78.2207 c 0,-0.08 -0.011,-0.15935 -0.0195,-0.23828 -0.006,-0.4992 -0.16542,-0.99153 -0.50782,-1.38086 L 680.418,298.42969 c -0.004,-0.006 -0.009,-0.009 -0.0156,-0.0156 -0.1248,-0.13973 -0.27022,-0.25413 -0.42382,-0.35547 -0.0459,-0.0299 -0.0907,-0.0573 -0.13868,-0.084 -0.13546,-0.0725 -0.27574,-0.13205 -0.42187,-0.17578 -0.0395,-0.0117 -0.0738,-0.0284 -0.11328,-0.0391 -0.16,-0.0373 -0.32384,-0.0605 -0.49024,-0.0605 z m 0,4.26758 h 49.42383 v 21.83008 c 0,1.17759 0.95415,2.13476 2.13281,2.13476 h 18.84375 l 0.002,44.21484 h -70.40235 z m 30.7793,73.41797 c 1.08203,0 2.13334,0.0872 3.15234,0.26367 1.01901,0.17645 2.0274,0.44199 3.02539,0.79492 v 4.56641 c -0.99799,-0.4963 -1.93787,-0.86019 -2.82031,-1.0918 -0.88244,-0.24264 -1.74552,-0.36524 -2.58594,-0.36524 -1.80689,0 -3.21415,0.53107 -4.22265,1.58985 -1.00851,1.04774 -1.59559,2.6082 -1.76367,4.68164 0.69335,-0.54042 1.44305,-0.9443 2.25195,-1.20899 0.8089,-0.27572 1.69246,-0.4121 2.64844,-0.41211 2.40569,0 4.34372,0.73893 5.81445,2.2168 1.48124,1.47788 2.2207,3.41336 2.2207,5.80664 0,2.64694 -0.82334,4.76995 -2.47265,6.36914 -1.64933,1.58817 -3.86139,2.38086 -6.63477,2.38086 -3.05703,0 -5.42659,-1.08052 -7.10742,-3.24218 -1.67033,-2.17271 -2.50391,-5.24904 -2.50391,-9.23047 0,-4.08071 0.97572,-7.28423 2.92969,-9.61133 1.96447,-2.33813 4.65415,-3.50781 8.06836,-3.50781 z m -20.93164,0.41406 h 6.06641 v 24.69922 h -6.06641 z m 31.03711,0 h 19.77734 v 3.85351 l -12.62304,16.03125 h 12.98437 v 4.81446 h -20.5 v -3.85547 l 12.62109,-16.03125 h -12.25976 z m -11.42969,12.50586 c -1.06102,0 -1.85876,0.36389 -2.39453,1.09179 -0.52526,0.71689 -0.78711,1.79741 -0.78711,3.24219 0,1.44479 0.26185,2.53187 0.78711,3.25977 0.53577,0.71688 1.33351,1.07617 2.39453,1.07617 1.07154,0 1.87123,-0.35929 2.39649,-1.07617 0.53577,-0.7279 0.80273,-1.81498 0.80273,-3.25977 0,-1.44478 -0.26696,-2.5253 -0.80273,-3.24219 -0.52526,-0.7279 -1.32495,-1.09179 -2.39649,-1.09179 z"
         style="stroke-width:1.0666666" />
      <g
         id="g6404"
         transform="matrix(0.4071855,-0.11627438,0.11627438,0.4071855,658.4423,136.04151)">
        <circle
           style="fill:url(#radialGradient6406);fill-opacity:1;stroke:none"
           id="circle6390"
           transform="matrix(0.11471496,0.5147466,-0.5147466,0.11471496,45.286005,400.42141)"
           cx="-206.52251"
           cy="390.05557"
           r="27.337517" />
        <path
           style="fill:url(#linearGradient6408);fill-opacity:1;stroke:none"
           d="m -186.10747,345.51918 c 1.53931,-0.21887 1.84388,0.64834 2.08004,1.57572 l -15.00685,19.80985 -2.08004,-1.57572 z"
           id="path6392"
           inkscape:connector-curvature="0"
           sodipodi:nodetypes="ccccc" />
        <circle
           style="fill:url(#radialGradient6410);fill-opacity:1;stroke:none"
           id="circle6394"
           transform="matrix(0.4272119,-0.06364025,0.06364025,0.4272119,-190.70899,180.08051)"
           cx="-206.52251"
           cy="390.05557"
           r="27.337517" />
        <path
           sodipodi:nodetypes="ccccc"
           inkscape:connector-curvature="0"
           id="path6396"
           d="m -250.0848,364.32362 c -0.54756,-1.45518 0.23293,-1.94061 1.087,-2.37232 l 22.59345,10.35238 -1.087,2.37232 z"
           style="fill:url(#linearGradient6412);fill-opacity:1;stroke:none" />
        <circle
           transform="translate(-6.3373339,-7.0829016)"
           id="circle6398"
           style="fill:url(#radialGradient6414);fill-opacity:1;stroke:none"
           cx="-206.52251"
           cy="390.05557"
           r="27.337517" />
        <path
           sodipodi:nodetypes="ccccc"
           inkscape:connector-curvature="0"
           id="path6400"
           d="m -351.02521,284.75156 c 1.09483,-1.10395 1.86126,-0.59661 2.60949,0 v 24.85228 h -2.60949 z"
           style="fill:url(#linearGradient6416);fill-opacity:1;stroke:none"
           transform="rotate(-23.945672)" />
        <circle
           transform="matrix(-0.44374897,-0.4173498,0.4173498,-0.44374897,-442.06853,520.93875)"
           id="circle6402"
           style="fill:url(#radialGradient6418);fill-opacity:1;stroke:none"
           cx="-206.52251"
           cy="390.05557"
           r="27.337517" />
      </g>
    </g>
  </g>
</svg>
