<?xml version="1.0" encoding="UTF-8" standalone="no"?>
<!-- Created with Inkscape (http://www.inkscape.org/) -->

<svg
   xmlns:dc="http://purl.org/dc/elements/1.1/"
   xmlns:cc="http://creativecommons.org/ns#"
   xmlns:rdf="http://www.w3.org/1999/02/22-rdf-syntax-ns#"
   xmlns:svg="http://www.w3.org/2000/svg"
   xmlns="http://www.w3.org/2000/svg"
   xmlns:xlink="http://www.w3.org/1999/xlink"
   xmlns:sodipodi="http://sodipodi.sourceforge.net/DTD/sodipodi-0.dtd"
   xmlns:inkscape="http://www.inkscape.org/namespaces/inkscape"
   width="20.883997mm"
   height="28.786882mm"
   viewBox="0 0 20.883997 28.786883"
   version="1.1"
   id="svg6547"
   inkscape:version="0.92.1 r"
   sodipodi:docname="i6z.svg"
   inkscape:export-filename="/home/kerb/dev/idea/ambit-flaticon/export/i6z.png"
   inkscape:export-xdpi="46.220001"
   inkscape:export-ydpi="46.220001">
  <defs
     id="defs6541">
    <linearGradient
       id="linearGradient3329">
      <stop
         style="stop-color:#c3c3c3;stop-opacity:1;"
         offset="0"
         id="stop3331" />
      <stop
         style="stop-color:#191919;stop-opacity:1;"
         offset="1"
         id="stop3333" />
    </linearGradient>
    <radialGradient
       inkscape:collect="always"
       xlink:href="#linearGradient3329"
       id="radialGradient7799"
       gradientUnits="userSpaceOnUse"
       gradientTransform="matrix(-0.1939337,-0.15562787,0.14367389,-0.1790376,465.21099,-496.73794)"
       cx="-156.3513"
       cy="398.97934"
       fx="-156.3513"
       fy="398.97934"
       r="27.337517" />
    <linearGradient
       inkscape:collect="always"
       xlink:href="#linearGradient7755"
       id="linearGradient7801"
       gradientUnits="userSpaceOnUse"
       gradientTransform="matrix(0.30471962,0.08292595,-0.11824518,0.21370143,881.15717,200.75066)"
       x1="-350.8826"
       y1="289.8606"
       x2="-348.39575"
       y2="289.83533" />
    <linearGradient
       id="linearGradient7755">
      <stop
         id="stop7751"
         offset="0"
         style="stop-color:#7e7e7e;stop-opacity:1" />
      <stop
         id="stop7753"
         offset="1"
         style="stop-color:#191919;stop-opacity:1;" />
    </linearGradient>
    <radialGradient
       inkscape:collect="always"
       xlink:href="#linearGradient3329"
       id="radialGradient7803"
       gradientUnits="userSpaceOnUse"
       gradientTransform="matrix(-0.17297988,-0.13881286,0.12815046,-0.15969325,468.81273,561.0438)"
       cx="-156.65672"
       cy="412.98987"
       fx="-156.65672"
       fy="412.98987"
       r="27.337517" />
    <linearGradient
       inkscape:collect="always"
       xlink:href="#linearGradient3329"
       id="linearGradient7805"
       gradientUnits="userSpaceOnUse"
       gradientTransform="matrix(-0.01607881,0.36197766,-0.40694477,-0.00325211,838.94004,373.57701)"
       x1="-350.8826"
       y1="289.8606"
       x2="-349.29633"
       y2="289.87091" />
    <radialGradient
       inkscape:collect="always"
       xlink:href="#linearGradient3329"
       id="radialGradient7807"
       gradientUnits="userSpaceOnUse"
       gradientTransform="matrix(-0.43850541,-0.35189173,0.32486247,-0.4048237,433.10804,543.70466)"
       cx="-154.96072"
       cy="411.91577"
       fx="-154.96072"
       fy="411.91577"
       r="27.337517" />
    <linearGradient
       inkscape:collect="always"
       xlink:href="#linearGradient3329-6"
       id="linearGradient7809"
       gradientUnits="userSpaceOnUse"
       x1="739.7489"
       y1="257.55563"
       x2="741.03998"
       y2="256.72504" />
    <linearGradient
       id="linearGradient3329-6">
      <stop
         id="stop7719"
         offset="0"
         style="stop-color:#303030;stop-opacity:1" />
      <stop
         style="stop-color:#757575;stop-opacity:1"
         offset="0.39114669"
         id="stop7749" />
      <stop
         id="stop7721"
         offset="1"
         style="stop-color:#191919;stop-opacity:1;" />
    </linearGradient>
    <radialGradient
       inkscape:collect="always"
       xlink:href="#linearGradient3329"
       id="radialGradient7811"
       gradientUnits="userSpaceOnUse"
       gradientTransform="matrix(-0.22348125,-0.18005701,0.2274768,-0.28233771,-910.88219,192.17288)"
       cx="-178.36104"
       cy="407.83984"
       fx="-178.36104"
       fy="407.83984"
       r="27.337517" />
  </defs>
  <sodipodi:namedview
     id="base"
     pagecolor="#ffffff"
     bordercolor="#666666"
     borderopacity="1.0"
     inkscape:pageopacity="0.0"
     inkscape:pageshadow="2"
     inkscape:zoom="7.1782574"
     inkscape:cx="39.465808"
     inkscape:cy="54.40039"
     inkscape:document-units="mm"
     inkscape:current-layer="layer1"
     showgrid="false"
     inkscape:window-width="1920"
     inkscape:window-height="1016"
     inkscape:window-x="0"
     inkscape:window-y="27"
     inkscape:window-maximized="1" />
  <metadata
     id="metadata6544">
    <rdf:RDF>
      <cc:Work
         rdf:about="">
        <dc:format>image/svg+xml</dc:format>
        <dc:type
           rdf:resource="http://purl.org/dc/dcmitype/StillImage" />
        <dc:title></dc:title>
      </cc:Work>
    </rdf:RDF>
  </metadata>
  <g
     inkscape:label="Layer 1"
     inkscape:groupmode="layer"
     id="layer1"
     transform="translate(-83.834648,-136.79716)">
    <g
       transform="matrix(0.2822222,0,0,0.2822222,-80.998695,58.030917)"
       id="g7822">
      <path
         id="path6382"
         d="m 588.05422,279.09303 c -2.205,0 -3.99902,1.79586 -3.99902,4.00086 v 93.99902 c 0,2.206 1.79402,4.00086 3.99902,4.00086 h 66.00037 c 2.20701,0 3.99903,-1.79486 3.99903,-4.00086 V 303.761 c 0,-0.075 -0.0103,-0.14939 -0.0183,-0.22339 -0.006,-0.468 -0.15508,-0.92956 -0.47608,-1.29455 L 637.8919,279.77785 c -0.004,-0.006 -0.008,-0.008 -0.0146,-0.0146 -0.117,-0.131 -0.25333,-0.23825 -0.39733,-0.33325 -0.043,-0.028 -0.085,-0.0537 -0.13002,-0.0788 -0.12699,-0.068 -0.2585,-0.1238 -0.3955,-0.1648 -0.037,-0.011 -0.0692,-0.0266 -0.1062,-0.0367 -0.15,-0.035 -0.3036,-0.0567 -0.4596,-0.0567 z m 0,4.00086 h 46.33484 v 20.4657 c 0,1.10399 0.89452,2.00134 1.99951,2.00134 h 17.66602 l 0.002,41.45141 h -66.00221 z m 28.8556,68.82935 c 1.0144,0 2,0.0817 2.95532,0.24719 0.95532,0.16542 1.90068,0.41436 2.8363,0.74524 v 4.281 c -0.93562,-0.46528 -1.81675,-0.80642 -2.64404,-1.02356 -0.82729,-0.22747 -1.63643,-0.34241 -2.42432,-0.34241 -1.69396,0 -3.01327,0.49788 -3.95874,1.49048 -0.94547,0.98226 -1.49586,2.44519 -1.65344,4.38904 0.65002,-0.50664 1.35286,-0.88528 2.11121,-1.13343 0.75834,-0.25848 1.58668,-0.38634 2.48291,-0.38635 2.25533,0 4.07224,0.69275 5.45105,2.07825 1.38866,1.38551 2.0819,3.20003 2.0819,5.44373 0,2.4815 -0.77188,4.47182 -2.31811,5.97106 -1.54624,1.48891 -3.62005,2.23206 -6.22009,2.23206 -2.86597,0 -5.08743,-1.01299 -6.66321,-3.03954 -1.56593,-2.03692 -2.34742,-4.92098 -2.34742,-8.65357 0,-3.82566 0.91474,-6.82896 2.74659,-9.01062 1.84169,-2.192 4.36326,-3.28857 7.56409,-3.28857 z m -19.62342,0.38818 h 5.68726 v 23.15552 h -5.68726 z m 29.0973,0 h 18.54125 v 3.61266 l -11.8341,15.0293 h 12.17285 v 4.51356 h -19.21875 v -3.61451 l 11.83227,-15.02929 H 626.3837 Z m -10.71534,11.72424 c -0.99471,0 -1.74259,0.34115 -2.24487,1.02356 -0.49243,0.67208 -0.73792,1.68507 -0.73792,3.03955 0,1.35449 0.24549,2.37363 0.73792,3.05603 0.50228,0.67208 1.25016,1.00891 2.24487,1.00891 1.00457,0 1.75428,-0.33683 2.24671,-1.00891 0.50228,-0.6824 0.75256,-1.70154 0.75256,-3.05603 0,-1.35448 -0.25028,-2.36747 -0.75256,-3.03955 -0.49243,-0.68241 -1.24214,-1.02356 -2.24671,-1.02356 z"
         style="stroke-width:1"
         inkscape:connector-curvature="0" />
      <g
         id="g7797"
         transform="translate(-117.65634,71.494818)">
        <circle
           r="5.119782"
           cy="-543.66479"
           cx="555.66217"
           transform="rotate(61.499504)"
           id="circle7783"
           style="fill:url(#radialGradient7799);fill-opacity:1;stroke:none;stroke-width:0.18728043" />
        <path
           sodipodi:nodetypes="ccccc"
           inkscape:connector-curvature="0"
           id="path7785"
           d="m 740.52241,232.49337 c 0.46415,-0.14513 0.54173,0.0711 0.7804,0.26069 l -2.57969,5.34787 -1.13938,-0.71519 z"
           style="fill:url(#linearGradient7801);fill-opacity:1;stroke:none;stroke-width:0.2737236" />
        <circle
           r="4.5666084"
           cy="519.18713"
           cx="549.49091"
           transform="rotate(-24.409871)"
           id="circle7787"
           style="fill:url(#radialGradient7803);fill-opacity:1;stroke:none;stroke-width:0.16704549" />
        <path
           style="fill:url(#linearGradient7805);fill-opacity:1;stroke:none;stroke-width:0.38387135"
           d="m 724.27942,245.42064 c 0.43166,0.3999 0.34847,0.73577 0.0937,1.00467 l -5.68528,-0.0597 c -0.15015,-0.23438 -0.11393,-0.44888 0.0216,-0.61367 z"
           id="path7789"
           inkscape:connector-curvature="0"
           sodipodi:nodetypes="ccccc" />
        <circle
           r="11.576389"
           cy="437.59778"
           cx="637.62811"
           style="fill:url(#radialGradient7807);fill-opacity:1;stroke:none;stroke-width:0.42346165"
           id="circle7791"
           transform="rotate(-15.937026)" />
        <path
           style="fill:url(#linearGradient7809);fill-opacity:1;stroke:none;stroke-width:0.42346165"
           d="m 738.07703,254.76046 c 0.1322,-0.64498 0.54969,-0.68516 0.95313,-0.6471 l 3.20154,5.62878 -0.64225,0.30797 z"
           id="path7793"
           inkscape:connector-curvature="0"
           sodipodi:nodetypes="ccccc" />
        <circle
           r="5.9090886"
           cy="107.2277"
           cx="-781.42371"
           style="fill:url(#radialGradient7811);fill-opacity:1;stroke:none;stroke-width:0.2161531"
           id="circle7795"
           transform="rotate(-152.69302)" />
      </g>
    </g>
  </g>
</svg>
