<?xml version="1.0" encoding="UTF-8" standalone="no"?>
<!-- Created with Inkscape (http://www.inkscape.org/) -->

<svg
   xmlns:dc="http://purl.org/dc/elements/1.1/"
   xmlns:cc="http://creativecommons.org/ns#"
   xmlns:rdf="http://www.w3.org/1999/02/22-rdf-syntax-ns#"
   xmlns:svg="http://www.w3.org/2000/svg"
   xmlns="http://www.w3.org/2000/svg"
   xmlns:sodipodi="http://sodipodi.sourceforge.net/DTD/sodipodi-0.dtd"
   xmlns:inkscape="http://www.inkscape.org/namespaces/inkscape"
   width="20.884445mm"
   height="28.786667mm"
   viewBox="0 0 74.000003 102"
   id="svg3788"
   version="1.1"
   inkscape:version="0.91 r13725"
   sodipodi:docname="inchi.svg">
  <defs
     id="defs3790">
    <linearGradient
       id="linearGradient3329">
      <stop
         style="stop-color:#c3c3c3;stop-opacity:1;"
         offset="0"
         id="stop3331" />
      <stop
         style="stop-color:#191919;stop-opacity:1;"
         offset="1"
         id="stop3333" />
    </linearGradient>
    <linearGradient
       id="linearGradient8385">
      <stop
         style="stop-color:#000000;stop-opacity:1;"
         offset="0"
         id="stop8387" />
      <stop
         style="stop-color:#ffffff;stop-opacity:1;"
         offset="1"
         id="stop8389" />
    </linearGradient>
  </defs>
  <sodipodi:namedview
     id="base"
     pagecolor="#ffffff"
     bordercolor="#666666"
     borderopacity="1.0"
     inkscape:pageopacity="0.0"
     inkscape:pageshadow="2"
     inkscape:zoom="7.3431373"
     inkscape:cx="13.032043"
     inkscape:cy="50.727632"
     inkscape:document-units="px"
     inkscape:current-layer="layer1"
     showgrid="false"
     inkscape:window-width="1280"
     inkscape:window-height="987"
     inkscape:window-x="0"
     inkscape:window-y="0"
     inkscape:window-maximized="1"
     fit-margin-top="0"
     fit-margin-left="0"
     fit-margin-right="0"
     fit-margin-bottom="0" />
  <metadata
     id="metadata3793">
    <rdf:RDF>
      <cc:Work
         rdf:about="">
        <dc:format>image/svg+xml</dc:format>
        <dc:type
           rdf:resource="http://purl.org/dc/dcmitype/StillImage" />
        <dc:title></dc:title>
      </cc:Work>
    </rdf:RDF>
  </metadata>
  <g
     inkscape:label="Layer 1"
     inkscape:groupmode="layer"
     id="layer1"
     transform="translate(-335.04724,-475.1811)">
    <g
       transform="translate(129.86225,314.06137)"
       id="g4871"
       inkscape:export-filename="/home/kerb/dev/icons/ambit-flaticon/export/inchi.png"
       inkscape:export-xdpi="46.220001"
       inkscape:export-ydpi="46.220001">
      <path
         inkscape:export-ydpi="46.220001"
         inkscape:export-xdpi="46.220001"
         inkscape:export-filename="/home/kerb/dev/icons/ambit-flaticon/inchi.png"
         inkscape:connector-curvature="0"
         style="fill:#000000"
         d="m 226.90364,221.91884 c 0.27038,-0.61042 1.36894,-3.12282 2.44124,-5.58311 1.37467,-3.15405 2.05435,-4.50065 2.30471,-4.56611 0.22794,-0.0596 0.35506,-0.26953 0.35506,-0.58633 0,-0.27141 0.17655,-0.94135 0.39231,-1.48876 0.36428,-0.92418 0.36773,-0.98503 0.0482,-0.85158 -2.46852,1.0311 -3.00043,1.13316 -5.94158,1.14005 -2.62592,0.006 -3.03494,-0.0404 -4.39658,-0.50015 -5.58125,-1.88453 -9.29608,-6.76844 -9.55436,-12.5612 -0.10426,-2.33813 0.12447,-3.84778 0.8698,-5.74095 1.98704,-5.04721 6.62943,-8.46926 11.96296,-8.81827 l 1.7771,-0.11629 3.04836,-2.85808 3.04835,-2.8581 3.23306,-0.009 3.23305,-0.009 0,0.48255 0,0.48254 -2.2197,0 c -1.22085,0 -2.21972,0.0772 -2.21972,0.17147 0,0.0943 1.05152,1.45082 2.3367,3.01447 2.17687,2.64856 2.32031,2.87359 2.09729,3.29028 -0.40455,0.75595 -1.37386,1.84154 -2.13943,2.39612 l -0.72892,0.52802 0.79043,1.04211 c 1.31977,1.73997 2.6624,5.1351 2.6624,6.73239 0,0.24977 0.0369,0.41734 0.0818,0.37236 0.0449,-0.045 0.17707,-2.90405 0.29356,-6.35351 0.11648,-3.44946 0.26154,-6.99241 0.32235,-7.87324 l 0.11054,-1.60149 1.09172,0.0574 1.09173,0.0574 0.42288,6.65913 c 0.23257,3.66252 0.44973,7.00656 0.48259,7.4312 0.0577,0.74635 0.071,0.72706 0.40046,-0.57906 0.39887,-1.58158 1.41509,-3.80614 2.30445,-5.04454 0.57938,-0.80677 0.60119,-0.88919 0.28259,-1.06749 -1.17426,-0.65716 -2.97741,-2.85673 -2.70423,-3.29876 0.0813,-0.13155 1.12827,-1.43843 2.3266,-2.90417 1.19833,-1.46574 2.17879,-2.7471 2.17879,-2.84747 0,-0.10413 -0.95389,-0.18251 -2.21972,-0.18251 l -2.2197,0 0,-0.48254 0,-0.48254 3.20275,0 3.20275,0 2.99188,2.79875 2.99189,2.79877 1.47783,0.003 c 2.13186,0.005 3.92438,0.44184 6.01376,1.46612 1.55925,0.76439 2.09429,1.16223 3.57506,2.65825 1.91457,1.93431 2.82085,3.4231 3.59714,5.90922 0.64932,2.07952 0.64914,5.64537 -3.8e-4,7.71392 -1.24551,3.96646 -3.65973,6.82755 -7.2683,8.61371 -2.33101,1.15379 -4.01811,1.49115 -6.90039,1.37983 l -2.26796,-0.0876 0,0.84097 0,0.84098 1.44763,0 c 0.7962,0 1.44763,0.0518 1.44763,0.11505 0,0.0633 -0.13947,0.59485 -0.30995,1.18127 -0.36051,1.24012 -0.33461,1.32549 1.0709,3.52913 0.50783,0.7962 1.11515,1.82548 1.34959,2.2873 0.56078,1.10459 0.56929,2.6052 0.0209,3.68017 l -0.40541,0.79466 -4.96463,-0.0515 -4.96467,-0.0515 -0.43429,-0.86123 c -0.66208,-1.31293 -0.58546,-2.38939 0.26922,-3.78256 2.41836,-3.94209 2.49784,-4.18757 1.90224,-5.8757 -0.15925,-0.45133 -0.28954,-0.85312 -0.28954,-0.89285 0,-0.0397 0.70211,-0.0722 1.56023,-0.0722 1.16235,0 1.53975,-0.0615 1.47989,-0.24127 -0.0612,-0.18367 -1.36625,-0.25354 -5.46624,-0.29266 -2.96225,-0.0283 -5.48891,-0.0119 -5.61479,0.0364 -0.29526,0.1133 -0.0987,0.88352 0.22553,0.88352 0.13551,0 0.28943,0.10857 0.34204,0.24127 0.0526,0.1327 1.06079,2.57817 2.24037,5.43437 1.17958,2.8562 2.14469,5.26651 2.14469,5.35625 0,0.0897 -4.9064,0.16316 -10.9031,0.16316 l -10.90309,0 0.49163,-1.10985 z m 9.92647,-1.97844 c 0,-1.52504 -0.0412,-1.73739 -0.33778,-1.73905 -1.24339,-0.007 -3.60327,-1.92505 -4.11728,-3.34653 -0.14021,-0.38773 -0.30941,-0.70496 -0.37601,-0.70496 -0.0667,0 -0.43311,0.76001 -0.81447,1.68891 -0.38137,0.9289 -1.08577,2.62263 -1.56535,3.76385 l -0.87199,2.07495 4.04144,0 4.04144,0 0,-1.73717 z m 9.26486,1.57626 c 0,-0.0885 -0.61626,-1.63023 -1.36946,-3.42607 -0.75322,-1.79584 -1.43938,-3.43889 -1.52482,-3.65121 -0.15533,-0.38603 -0.15533,-0.38603 -0.28753,0 -0.78432,2.29014 -1.93451,3.36587 -3.94213,3.68691 l -0.78979,0.12629 0,1.71249 0,1.7125 3.95687,0 c 2.17628,0 3.95686,-0.0724 3.95686,-0.16091 z m 6.6428,-1.30717 c 0.25242,-0.0969 0.28475,-0.33721 0.18821,-1.39938 -0.0799,-0.87897 -0.0217,-1.64679 0.18476,-2.44054 0.16572,-0.63696 0.36149,-1.75212 0.43503,-2.47813 0.13305,-1.31323 0.13136,-1.31969 -0.32896,-1.25462 -0.4263,0.0603 -0.47263,0.17663 -0.58897,1.47955 -0.11133,1.24695 -0.22787,1.56696 -0.98567,2.70658 -1.11334,1.67431 -1.46075,2.37434 -1.35553,2.73141 0.047,0.15924 0.11915,0.3981 0.16049,0.53081 0.0787,0.25225 1.72446,0.34158 2.29064,0.12432 z m 6.48635,-0.27638 c 0.28403,-0.53073 0.1064,-1.00168 -0.99221,-2.63148 -0.94351,-1.39962 -1.31459,-2.45943 -1.3232,-3.77908 -0.004,-0.64478 -0.0582,-0.72382 -0.4939,-0.72382 -0.47629,0 -0.48612,0.0267 -0.37247,1.01335 0.0642,0.55734 0.28584,1.7687 0.49249,2.69192 0.29116,1.30066 0.33405,1.86415 0.19055,2.50285 -0.2464,1.09664 -0.0341,1.31959 1.25705,1.31959 0.84001,0 1.07021,-0.0729 1.24169,-0.39333 z M 237.7952,214.6324 c 0,-2.18754 -0.0464,-2.60574 -0.28952,-2.60574 -0.24307,0 -0.28954,0.4182 -0.28954,2.60574 0,2.18754 0.0464,2.60575 0.28954,2.60575 0.24306,0 0.28952,-0.41821 0.28952,-2.60575 z m -9.16835,-5.48471 0.57904,-0.13105 -0.64479,-0.61546 c -1.22133,-1.16575 -2.96463,-1.21318 -4.26839,-0.11614 -0.72601,0.61089 -0.73785,0.79798 -0.057,0.90111 0.85508,0.12954 3.7613,0.10407 4.39117,-0.0385 z m 32.29169,-0.3019 c 0.22219,-0.2267 -1.15521,-1.25335 -1.97928,-1.47525 -0.9405,-0.25325 -1.94924,0.007 -2.79863,0.72155 -0.72572,0.61064 -0.73718,0.79447 -0.0569,0.91358 0.76271,0.13355 4.67403,0.004 4.83486,-0.15988 z m -38.17875,-0.19246 c 0,-0.0506 -0.75377,-0.83233 -1.67503,-1.73716 -1.67415,-1.64427 -1.67558,-1.64515 -2.69087,-1.64515 -0.5587,0 -1.06478,0.0792 -1.12459,0.176 -0.0598,0.0968 0.43447,0.58659 1.09845,1.08841 1.61424,1.22 4.39204,2.5595 4.39204,2.1179 z m 9.37159,-0.65491 c 1.50874,-0.73466 3.56062,-2.20461 3.56062,-2.5508 0,-0.0971 -0.5973,-0.1766 -1.32734,-0.1766 l -1.32735,0 -1.51967,1.55483 c -0.83583,0.85515 -1.54862,1.63687 -1.58401,1.73716 -0.13261,0.3758 0.71221,0.15877 2.19775,-0.56459 z m 32.0308,-0.322 c 1.3303,-0.66298 3.1848,-2.07238 3.1848,-2.42042 0,-0.0979 -0.47981,-0.178 -1.06626,-0.178 l -1.06626,0 -1.78076,1.76976 c -1.54751,1.53795 -1.70491,1.75222 -1.20171,1.63589 0.31848,-0.0736 1.18707,-0.43688 1.93019,-0.80723 z m -40.35649,-0.0718 c 0.31817,-0.35157 0.30844,-0.40758 -0.20955,-1.20636 -0.29876,-0.46072 -0.63088,-0.90149 -0.73803,-0.97948 -0.27752,-0.202 -2.17768,-0.18178 -2.30519,0.0245 -0.13034,0.2109 2.31393,2.53001 2.66657,2.53001 0.13889,0 0.40269,-0.16591 0.5862,-0.36869 z m 7.02361,-0.84834 c 0.66341,-0.66936 1.14586,-1.27737 1.0721,-1.35112 -0.0737,-0.0738 -0.72654,-0.1341 -1.45064,-0.1341 l -1.31652,0 -0.48498,0.76824 c -0.26673,0.42253 -0.48382,0.8351 -0.48243,0.91683 0.002,0.13979 1.13326,0.97923 1.35417,1.00519 0.0561,0.007 0.64488,-0.53567 1.3083,-1.20504 z m 25.0977,0.45767 0.64364,-0.55065 -0.52453,-0.79263 -0.52454,-0.79263 -1.42198,0 c -0.78209,0 -1.42199,0.0628 -1.42199,0.13957 0,0.16426 2.35397,2.56634 2.50365,2.55484 0.0562,-0.004 0.39174,-0.25564 0.74575,-0.5585 z m 6.95857,-0.57059 c 0.64906,-0.62531 1.1801,-1.23332 1.1801,-1.35112 0,-0.1327 -0.43301,-0.2142 -1.13799,-0.2142 l -1.13799,0 -0.62336,0.97142 c -0.60184,0.9379 -0.6115,0.98453 -0.27973,1.35113 0.18899,0.20884 0.45056,0.3797 0.58126,0.3797 0.13069,0 0.76867,-0.51162 1.41771,-1.13693 z m -9.04987,0.79311 c 0,-0.083 -0.50195,-0.64752 -1.11545,-1.25462 l -1.11545,-1.10381 -1.31336,0 c -1.58851,0 -1.59291,0.14117 -0.042,1.34742 1.08841,0.84651 1.23829,0.89734 3.34497,1.13464 0.1327,0.0149 0.24127,-0.0407 0.24127,-0.12363 z m -28.02612,-0.86964 c 0.13807,-0.11062 0.22493,-0.42571 0.19302,-0.7002 -0.0539,-0.46422 -0.1355,-0.5031 -1.16787,-0.55695 -1.27826,-0.0667 -1.36143,0.0777 -0.61141,1.06098 0.50785,0.66582 0.93426,0.71856 1.58626,0.19617 z m 22.48403,-0.77066 c -1.46937,-1.53021 -2.45892,-3.07308 -3.17111,-4.94439 l -0.55863,-1.46777 0.094,1.35112 c 0.0516,0.74312 0.14787,2.11114 0.21382,3.04004 0.066,0.9289 0.0738,1.68891 0.0174,1.68891 -0.0564,0 -0.6372,-1.66781 -1.29076,-3.70624 -0.7589,-2.36703 -1.24182,-3.605 -1.33647,-3.42607 -0.0816,0.15409 -0.56133,1.80018 -1.06626,3.65798 -0.50491,1.8578 -0.96095,3.42125 -1.01342,3.47433 -0.0525,0.0531 -0.0428,-1.46694 0.0215,-3.37782 l 0.11688,-3.47433 -0.34398,1.15958 c -0.52288,1.76276 -1.41332,3.52494 -2.51502,4.97725 l -0.99479,1.31138 0.62601,-0.10578 c 0.34429,-0.0582 2.88431,0.14537 5.64446,0.4523 2.76016,0.30694 5.40139,0.56786 5.8694,0.57981 l 0.85092,0.0217 -1.16387,-1.21205 z m -20.10687,-0.38686 c -0.0927,-0.0926 -0.41788,-0.13993 -0.72275,-0.10509 -0.44953,0.0514 -0.56635,0.16885 -0.61802,0.62146 -0.0996,0.87229 0.35799,0.99937 0.97947,0.27202 0.30159,-0.35297 0.45719,-0.69249 0.3613,-0.78839 z m 32.30113,0.68552 c 0.26924,-0.3962 0.48951,-0.7914 0.48951,-0.87821 0,-0.0868 -0.49944,-0.1318 -1.10986,-0.1 -1.08936,0.0568 -1.11094,0.0691 -1.16887,0.66552 -0.0499,0.5147 0.0238,0.63784 0.48255,0.80509 0.78718,0.28701 0.77353,0.29216 1.30667,-0.49244 z m -2.63481,-0.29297 c -0.0552,-0.57271 -0.12349,-0.63253 -0.7843,-0.68722 -0.39809,-0.0329 -0.72382,0.0205 -0.72382,0.11874 0,0.3719 0.81601,1.19579 1.18435,1.19579 0.31726,0 0.37371,-0.1094 0.32377,-0.62731 z m -38.79401,-1.0616 c -0.036,-0.0796 -0.41244,-0.85899 -0.83641,-1.73193 l -0.77085,-1.58716 -1.49589,-0.005 c -0.82274,-0.003 -1.49589,0.065 -1.49589,0.15089 0,0.24588 1.33465,2.40293 1.78441,2.88391 0.33937,0.36296 0.60926,0.43429 1.64313,0.43429 0.6804,0 1.20756,-0.0651 1.1715,-0.14476 z m 3.46574,-0.0965 c -0.0387,-0.1327 -0.2796,-0.91442 -0.53539,-1.73716 l -0.46506,-1.49589 -1.71149,0 c -1.68519,0 -1.70949,0.007 -1.57999,0.43429 0.15732,0.51947 0.74779,1.54977 1.38275,2.41272 0.43886,0.59644 0.52353,0.62731 1.72052,0.62731 0.91597,0 1.23979,-0.0657 1.18866,-0.24127 z m 3.41979,-1.49589 0,-1.64066 -1.88192,-0.0553 c -1.03505,-0.0304 -1.88144,0.013 -1.88085,0.0965 0.002,0.31297 0.42408,1.65866 0.78103,2.49137 l 0.3699,0.86296 1.30593,-0.0571 1.30591,-0.0572 0,-1.64065 z m 2.77615,1.47488 c 0.27773,-0.33463 0.98771,-2.38775 0.98771,-2.85623 0,-0.31411 -0.16966,-0.35581 -1.44763,-0.35581 l -1.44764,0 0,1.73716 0,1.73716 0.84495,0 c 0.47658,0 0.93984,-0.11434 1.06261,-0.26228 z m 4.62782,-1.04059 c 0.41915,-0.71658 0.82074,-1.50142 0.89241,-1.74408 l 0.13032,-0.44122 -1.96393,0.0552 -1.96392,0.0552 -0.43952,1.35113 c -0.24173,0.74312 -0.50325,1.50313 -0.58116,1.68891 -0.12849,0.30643 0.0118,0.33778 1.51103,0.33778 l 1.65269,0 0.76208,-1.30287 z m 3.31454,0.86858 c 0.51151,-0.5457 1.73117,-2.5353 1.73117,-2.82401 0,-0.14379 -0.56479,-0.21212 -1.6889,-0.20434 l -1.68892,0.0117 -0.77207,1.58071 c -0.42465,0.86939 -0.80103,1.64586 -0.83641,1.72548 -0.0355,0.0796 0.59094,0.14476 1.39186,0.14476 1.26084,0 1.51081,-0.0583 1.86327,-0.43429 z m 14.66338,0.14093 c 0,-0.0552 -0.20396,-0.42434 -0.45324,-0.82033 -0.24929,-0.39599 -0.63526,-1.13256 -0.85774,-1.63682 l -0.40447,-0.91683 -1.65151,0 c -1.27066,0 -1.65151,0.0611 -1.65151,0.26476 0,0.14562 0.43254,0.92734 0.9612,1.73716 l 0.96119,1.4724 1.54805,0 c 0.85141,0 1.54803,-0.0452 1.54803,-0.10034 z m 3.86036,-0.0793 c 0,-0.0988 -0.23091,-0.88054 -0.51314,-1.73716 l -0.51313,-1.5575 -1.8996,0 c -1.17845,0 -1.89957,0.0757 -1.89957,0.19944 0,0.26396 0.91588,2.07336 1.38902,2.74409 0.35478,0.50297 0.45469,0.5308 1.90541,0.5308 0.84206,0 1.53101,-0.0808 1.53101,-0.17967 z m 2.66152,-1.60575 0.0558,-1.68891 -1.56466,0 c -1.39737,0 -1.5546,0.0361 -1.47047,0.33778 0.0517,0.18578 0.15447,0.55493 0.22812,0.82033 0.0736,0.2654 0.31022,0.89937 0.52569,1.40882 l 0.39177,0.92628 0.88901,-0.0577 0.889,-0.0577 0.0558,-1.68891 z m 3.85523,0.86858 c 0.21324,-0.50426 0.44108,-1.11227 0.50632,-1.35113 0.0652,-0.23886 0.16788,-0.608 0.22813,-0.82032 0.10436,-0.36773 0.0174,-0.38604 -1.83368,-0.38604 l -1.94319,0 0,1.60849 c 0,0.88466 0.058,1.66639 0.12868,1.73716 0.0707,0.0708 0.66808,0.12868 1.32736,0.12868 l 1.19868,0 0.3877,-0.91684 z m 3.1817,0.57906 c 0.32373,-0.36406 1.68963,-2.79557 1.68963,-3.00782 0,-0.0708 -0.76795,-0.12873 -1.70658,-0.12873 l -1.70657,0 -0.51313,1.5575 c -0.28223,0.85662 -0.51314,1.63834 -0.51314,1.73716 0,0.0988 0.55111,0.17967 1.2247,0.17967 0.92328,0 1.29864,-0.0831 1.52509,-0.33778 z m 4.34363,-1.29205 c 0.55734,-0.84332 1.01335,-1.60332 1.01335,-1.6889 0,-0.0856 -0.67316,-0.15521 -1.49591,-0.15473 l -1.49588,9.7e-4 -0.82033,1.60623 c -0.45118,0.88343 -0.82032,1.66873 -0.82032,1.74511 0,0.0764 0.58629,0.11319 1.30287,0.0818 l 1.30288,-0.0571 1.01334,-1.53331 z m -52.14143,-2.76133 c -0.0658,-0.29194 -0.17539,-1.16053 -0.24337,-1.93019 l -0.1236,-1.39938 -1.7093,0 c -0.94012,0 -1.70931,0.075 -1.70931,0.16667 0,0.27868 0.37509,2.16413 0.58732,2.95231 l 0.19963,0.74138 1.5592,0 1.55922,0 -0.11979,-0.53079 z m 4.25205,-0.19302 c -0.0659,-0.3981 -0.1206,-1.26668 -0.12176,-1.93019 l -0.002,-1.20636 -1.93018,0 -1.93018,0 0,0.95037 c 0,0.5227 0.10169,1.39128 0.22617,1.93018 l 0.22617,0.97981 1.82578,0 1.82578,0 -0.11965,-0.72381 z m 4.60505,-1.20637 0,-1.83367 -2.12319,0 -2.1232,0 0.052,1.0616 c 0.0286,0.58388 0.0995,1.43372 0.15758,1.88854 l 0.10555,0.82694 1.96561,-0.0549 1.96562,-0.0549 0,-1.83368 z m 4.0429,1.75414 c 0.0599,-0.0968 0.16483,-0.9654 0.2333,-1.93018 l 0.12452,-1.75414 -1.76607,0 -1.76606,0 0,1.93018 0,1.93018 1.53276,0 c 0.843,0 1.58171,-0.0792 1.64155,-0.17604 z m 4.91646,-0.79855 c 0.11495,-0.53602 0.20902,-1.4046 0.20902,-1.93018 l 0,-0.95559 -2.12321,0 -2.1232,0 -0.014,0.91684 c -0.008,0.50426 -0.079,1.37284 -0.15842,1.93018 l -0.14432,1.01334 2.0726,0 2.0726,0 0.20902,-0.97459 z m 4.15479,-0.0134 c 0.16136,-0.54337 0.34964,-1.41195 0.41838,-1.93018 l 0.12498,-0.94223 -1.92719,0 -1.92718,0 -0.1236,1.39938 c -0.068,0.76966 -0.1775,1.63824 -0.24338,1.93018 l -0.11978,0.5308 1.75219,0 1.75218,0 0.2934,-0.98795 z m 10.22497,0.16762 c -0.0788,-0.34502 -0.19428,-1.19188 -0.25661,-1.88192 l -0.1134,-1.25462 -1.88193,-0.0553 -1.88193,-0.0553 0.002,0.53779 c 0.003,0.55952 0.50483,2.87189 0.68741,3.16732 0.0575,0.0931 0.88808,0.16923 1.84569,0.16923 l 1.74112,0 -0.14327,-0.62731 z m 4.67708,-0.38603 c -0.067,-0.55734 -0.12247,-1.42592 -0.1234,-1.93018 l -0.002,-0.91684 -2.24195,0 -2.24194,0 0.13351,1.10986 c 0.0734,0.61042 0.22405,1.479 0.33468,1.93018 l 0.20116,0.82032 2.03067,0 2.03066,0 -0.12172,-1.01334 z m 3.92831,-0.91684 0,-1.93018 -1.73716,0 -1.73717,0 0,1.03466 c 0,0.56906 0.0552,1.43764 0.12275,1.93018 l 0.12274,0.89552 1.61443,0 1.61441,0 0,-1.93018 z m 4.89573,1.03466 c 0.0675,-0.49254 0.12274,-1.36112 0.12274,-1.93018 l 0,-1.03466 -2.1232,0 -2.1232,0 0,1.93018 0,1.93018 2.00045,0 2.00046,0 0.12275,-0.89552 z m 4.30143,-0.16608 c 0.12302,-0.5308 0.23201,-1.37766 0.24219,-1.88192 l 0.0185,-0.91684 -1.93019,0 -1.93018,0 -0.002,0.91684 c -9.7e-4,0.50426 -0.0568,1.37626 -0.1243,1.93779 l -0.12263,1.02096 1.81229,-0.0559 1.81229,-0.0559 0.22366,-0.96509 z m 3.80489,-0.24127 c 0.16744,-0.71658 0.3288,-1.56345 0.35858,-1.88193 l 0.0542,-0.57905 -1.68892,-0.0558 -1.6889,-0.0558 -0.003,0.82784 c -0.002,0.45532 -0.12056,1.32728 -0.2642,1.9377 l -0.26117,1.10985 1.59453,0 1.59451,0 0.30444,-1.30287 z m -29.13946,-2.71771 c 0.25824,-1.2028 0.5069,-2.2243 0.55261,-2.27001 0.0458,-0.0457 0.32671,0.85155 0.62444,1.99389 0.70493,2.70462 0.8977,3.00801 0.76781,1.20841 -0.14363,-1.98997 -0.86287,-15.93396 -0.86287,-16.72852 0,-0.58589 -0.0515,-0.64311 -0.57905,-0.64311 -0.5408,0 -0.57906,0.048 -0.57906,0.72626 0,0.70461 -0.27524,9.81091 -0.46811,15.48726 -0.0524,1.53932 -0.0569,2.71191 -0.0107,2.60575 0.0467,-0.10616 0.2962,-1.17713 0.55441,-2.37993 z M 216.763,195.76489 c 0.003,-0.34502 0.12326,-1.17017 0.26561,-1.83367 l 0.25881,-1.20636 -1.78993,0 -1.78993,0 -0.21283,1.22217 c -0.11706,0.6722 -0.21283,1.49735 -0.21283,1.83367 l 0,0.6115 1.73717,0 1.73715,0 0.006,-0.62731 z m 4.43432,-0.19302 c 9.6e-4,-0.45118 0.0568,-1.27975 0.1243,-1.84128 l 0.12261,-1.02096 -1.81227,0.0559 -1.81229,0.0559 -0.22366,0.96509 c -0.12303,0.5308 -0.232,1.33424 -0.2422,1.78542 l -0.0185,0.82032 1.93018,0 1.93018,0 0.002,-0.82032 z m 4.78277,-1.0616 0.0555,-1.78541 -2.00868,0 -2.00866,0 -0.11965,0.72381 c -0.0659,0.3981 -0.1206,1.22619 -0.12176,1.84021 l -0.002,1.11638 2.07495,-0.0548 2.07494,-0.0548 0.0554,-1.78542 z m 4.28604,1.35113 c -7.9e-4,-0.29194 -0.0567,-1.11709 -0.12443,-1.83367 l -0.12305,-1.30287 -1.61274,0 -1.61274,0 0,1.83367 0,1.83367 1.73716,0 1.73717,0 -0.001,-0.5308 z m 4.76085,-0.57905 c -0.0665,-0.61042 -0.21327,-1.43558 -0.3261,-1.83368 l -0.20513,-0.72381 -1.97938,0 -1.97938,0 0.14486,1.30287 c 0.0797,0.71658 0.14934,1.54173 0.15478,1.83367 l 0.0107,0.5308 2.15071,0 2.15069,0 -0.12095,-1.10985 z m 4.43793,-0.28953 c -0.21475,-2.42121 -0.0534,-2.26796 -2.38843,-2.26796 -1.84948,0 -2.01352,0.0293 -1.89424,0.33778 0.0718,0.18578 0.22909,1.01093 0.34948,1.83367 l 0.21888,1.49589 1.91922,0 1.91919,0 -0.1241,-1.39938 z m 9.52837,0.48254 c 0.002,-0.3981 0.12053,-1.22325 0.26417,-1.83367 l 0.26118,-1.10985 -1.9807,0 c -2.30476,0 -2.19415,-0.10197 -2.35643,2.17145 l -0.10672,1.49589 1.95776,0 1.95776,0 0.003,-0.72382 z m 4.8241,-0.0965 c 9.7e-4,-0.45118 0.0568,-1.2795 0.12424,-1.84073 l 0.12255,-1.0204 -1.99267,0.0553 -1.99266,0.0553 -0.16323,0.57905 c -0.0897,0.31848 -0.23233,1.12192 -0.31678,1.78542 l -0.15354,1.20636 2.18521,0 2.1852,0 0.002,-0.82032 z m 4.05171,-1.01334 0,-1.83367 -1.61441,0 -1.61443,0 -0.12274,0.89552 c -0.0675,0.49254 -0.12275,1.31769 -0.12275,1.83367 l 0,0.93815 1.73717,0 1.73716,0 0,-1.83367 z m 5.01847,1.18642 c 0,-0.35599 -0.0558,-1.18114 -0.12401,-1.83367 l -0.12401,-1.18642 -1.99918,0 -1.9992,0 0,1.83367 0,1.83367 2.1232,0 2.1232,0 0,-0.64725 z m 4.363,-0.4626 c -0.0713,-0.61042 -0.21685,-1.43557 -0.32354,-1.83367 l -0.19398,-0.72382 -1.77798,-2e-4 -1.77797,-1.9e-4 0.1808,1.8339 0.1808,1.8339 1.92072,0 1.92072,0 -0.12957,-1.10986 z m 4.04131,-0.13647 c -0.25998,-2.42753 -0.15641,-2.31629 -2.21647,-2.38032 -1.50498,-0.0468 -1.77813,-0.0103 -1.68802,0.22432 0.059,0.15407 0.21503,0.98262 0.34646,1.84123 l 0.23898,1.56109 1.72625,0 1.72626,0 -0.13346,-1.24632 z m -53.55886,-3.53088 c 0.12906,-0.39809 0.54765,-1.33182 0.93021,-2.07494 0.38257,-0.74312 0.72525,-1.41627 0.7615,-1.49589 0.0362,-0.0796 -0.63563,-0.14476 -1.4931,-0.14476 l -1.55901,0 -0.60369,0.82032 c -0.64796,0.88048 -1.71454,2.98145 -1.71479,3.37782 -1.2e-4,0.175 0.47288,0.24127 1.72203,0.24127 l 1.7222,0 0.23465,-0.72382 z m 3.84867,0.45589 c 0,-0.26161 0.80853,-3.16234 1.06857,-3.8337 0.11651,-0.30078 -0.01,-0.33778 -1.14201,-0.33778 l -1.27285,0 -0.51476,0.81545 c -0.5145,0.815 -1.24772,2.3704 -1.50364,3.18967 -0.13381,0.42842 -0.11202,0.43429 1.61452,0.43429 1.36434,0 1.75017,-0.0591 1.75017,-0.26793 z m 4.3429,-1.95178 0,-2.12319 -1.29175,-0.0568 -1.29177,-0.0568 -0.47673,1.50907 c -0.26219,0.82999 -0.53804,1.83599 -0.613,2.23554 l -0.13628,0.72647 1.90477,-0.0556 1.90476,-0.0556 0,-2.1232 z m 3.95689,2.10711 c 0,-0.36877 -0.84463,-3.32819 -1.07951,-3.78239 -0.24521,-0.47416 -0.39301,-0.54442 -1.14516,-0.54442 l -0.86363,0 0,2.2197 0,2.21971 1.54414,0 c 0.84929,0 1.54416,-0.0506 1.54416,-0.11259 z m 4.43941,-0.0103 c 0,-0.3118 -1.70542,-3.66998 -1.97678,-3.89253 -0.1684,-0.13811 -0.93541,-0.30386 -1.70444,-0.36834 -1.31326,-0.11008 -1.39144,-0.0949 -1.28608,0.25112 0.28291,0.92882 0.88968,3.12231 0.99623,3.60138 l 0.11805,0.5308 1.92651,0 c 1.05958,0 1.92651,-0.0551 1.92651,-0.12243 z m 4.43942,-0.1726 c 0,-0.41088 -0.9986,-2.33476 -1.73826,-3.34894 l -0.61643,-0.8452 -1.47665,0.13287 c -0.81217,0.073 -1.55282,0.20822 -1.6459,0.30029 -0.0967,0.0956 -2e-4,0.44244 0.22478,0.80883 0.21671,0.35279 0.62783,1.22773 0.91359,1.94431 l 0.51955,1.30287 1.90965,0 c 1.58463,0 1.90967,-0.0502 1.90967,-0.29503 z m 11.2066,-0.6218 c 0.12899,-0.3981 0.48884,-1.23204 0.79968,-1.85321 0.31083,-0.62116 0.53776,-1.15153 0.50427,-1.1786 -0.26788,-0.21653 -3.11016,-0.71396 -3.21406,-0.5625 -0.0704,0.10276 -0.4163,0.59765 -0.7685,1.09983 -0.54076,0.77105 -1.57935,2.82756 -1.57935,3.12729 0,0.0501 0.90529,0.091 2.01173,0.091 l 2.01172,0 0.23451,-0.72381 z m 4.23484,0.45587 c 0,-0.26159 0.80852,-3.16233 1.06857,-3.83369 0.30946,-0.79892 -2.79946,-0.19471 -3.41,0.66271 -0.39011,0.54787 -1.19657,2.25813 -1.41682,3.00463 -0.12689,0.43011 -0.10939,0.43429 1.81507,0.43429 1.52899,0 1.94318,-0.0572 1.94318,-0.26794 z m 3.62541,-2.00002 0.0546,-2.17145 -0.96301,0 -0.96303,0 -0.47399,1.5005 c -0.26072,0.82529 -0.53546,1.82799 -0.61054,2.22824 l -0.13652,0.72774 1.51897,-0.0568 1.51897,-0.0568 0.0545,-2.17145 z m 4.67438,2.1113 c 0,-0.39058 -0.82221,-3.24076 -1.07703,-3.73353 -0.26778,-0.51782 -0.35547,-0.54922 -1.53368,-0.54922 l -1.24966,0 0,2.09102 c 0,1.15007 0.058,2.14894 0.12868,2.21972 0.18557,0.18556 3.73169,0.15898 3.73169,-0.028 z m 3.93734,-0.005 c 0.0549,-0.0888 -0.35259,-1.06593 -0.90545,-2.17145 l -1.00521,-2.01004 -1.32783,-0.0576 c -1.20488,-0.0524 -1.31737,-0.0255 -1.2148,0.28953 0.19269,0.59183 0.86096,3.02138 0.98476,3.58022 0.11691,0.52773 0.127,0.5308 1.74317,0.5308 0.89408,0 1.67049,-0.0727 1.72536,-0.16141 z m 4.16942,-0.0371 c 0,-0.30066 -1.13552,-2.49246 -1.7721,-3.42057 l -0.56267,-0.82032 -1.53487,0 c -0.84418,0 -1.53488,0.0497 -1.53488,0.11042 0,0.0607 0.21061,0.47329 0.46802,0.91683 0.25741,0.44356 0.70092,1.39274 0.98561,2.10933 l 0.51761,1.30287 1.71664,0 c 1.04748,0 1.71664,-0.0774 1.71664,-0.19852 z m -50.14886,-5.36845 c 0.2851,-0.4033 0.93345,-1.19493 1.44076,-1.75918 1.02951,-1.14507 0.92566,-1.17081 -1.0872,-0.26959 -1.07357,0.48068 -3.67073,2.33095 -3.67073,2.61511 0,0.0854 0.62972,0.15332 1.39939,0.15106 1.39893,-0.005 1.39954,-0.005 1.91778,-0.7374 z m 3.08751,-0.20286 0.51763,-0.93882 -0.53974,-0.51711 -0.53974,-0.51709 -0.8182,0.9279 c -0.45002,0.51034 -0.98886,1.16676 -1.19741,1.4587 l -0.37917,0.5308 1.2195,-0.002 1.2195,-0.002 0.51763,-0.93881 z m 2.47416,0.45199 c 0,-0.37943 -0.15358,-0.55657 -0.66937,-0.77208 -0.36815,-0.15382 -0.7085,-0.27967 -0.75632,-0.27967 -0.10641,0 -0.89053,1.25217 -0.89053,1.42215 0,0.0671 0.52115,0.12199 1.15811,0.12199 1.11281,0 1.15811,-0.0193 1.15811,-0.49239 z m 1.98781,-0.18317 c -0.17719,-0.37156 -0.38582,-0.67556 -0.46363,-0.67556 -0.47244,0 -0.75211,0.29476 -0.75211,0.79272 0,0.52241 0.0496,0.5584 0.76895,0.5584 l 0.76895,0 -0.32216,-0.67556 z m 1.66345,0.6273 c -0.0443,-0.0265 -0.32695,-0.2654 -0.62825,-0.5308 l -0.54782,-0.48254 0.24102,0.5308 c 0.14648,0.32257 0.39292,0.5308 0.62824,0.5308 0.21298,0 0.35104,-0.0217 0.30681,-0.0482 z m 26.32419,-0.82032 c 0.17719,-0.37156 0.29717,-0.67556 0.26663,-0.67556 -0.0305,0 -0.35018,0.304 -0.7103,0.67556 -0.5703,0.58839 -0.6047,0.67556 -0.26664,0.67556 0.25356,0 0.49986,-0.23425 0.71031,-0.67556 z m 1.87254,0.11715 c 0,-0.49566 -0.27963,-0.79271 -0.74624,-0.79271 -0.13712,0 -0.79791,1.02373 -0.79791,1.23614 0,0.0632 0.34745,0.11498 0.77207,0.11498 0.72285,0 0.77208,-0.0357 0.77208,-0.55841 z m 2.70226,-0.21366 c -0.43538,-0.85341 -0.45604,-0.86216 -1.32234,-0.56017 -0.49348,0.17202 -0.60785,0.3173 -0.60785,0.77207 0,0.55618 0.007,0.56017 1.16203,0.56017 l 1.16203,0 -0.39387,-0.77207 z m 3.2502,0.43429 c -0.15619,-0.18578 -0.70423,-0.84059 -1.21789,-1.45515 l -0.93392,-1.11735 -0.54325,0.52046 -0.54323,0.52045 0.52483,0.93449 0.52485,0.93449 1.23629,1.9e-4 c 1.1569,1.9e-4 1.21805,-0.0215 0.95232,-0.33758 z m 2.75689,-0.62529 c -0.93936,-0.85563 -3.07227,-2.07014 -4.24353,-2.41632 -0.37111,-0.10974 -0.25643,0.10059 0.61524,1.12812 0.58927,0.69461 1.21709,1.4853 1.39517,1.75711 0.30163,0.46032 0.42472,0.49356 1.79748,0.4854 l 1.47371,-0.009 -1.03807,-0.94555 z m -39.09143,-1.01756 c 0.0456,-0.0456 -0.10083,-0.49836 -0.32548,-1.00613 l -0.40837,-0.92322 -1.46449,0.13271 c -0.80546,0.073 -1.5413,0.18017 -1.63516,0.23819 -0.26545,0.16404 0.64252,1.0407 1.499,1.44732 0.68809,0.32667 2.05395,0.39168 2.3345,0.1111 z m 32.45946,-0.56206 c 0.60648,-0.37278 1.13612,-1.06378 0.95454,-1.24536 -0.0482,-0.0482 -0.8154,-0.139 -1.70488,-0.20178 l -1.61724,-0.11408 -0.28572,0.7491 c -0.3835,1.00548 -0.36994,1.0953 0.18988,1.2579 0.67991,0.19749 1.72443,0.008 2.46342,-0.44573 z m -27.26102,-2.48425 c 0.0685,-0.11076 0.0627,-0.9449 -0.0131,-1.85352 l -0.13762,-1.65206 -1.71267,1.70475 c -0.94198,0.93761 -1.71269,1.7717 -1.71269,1.85353 0,0.22934 3.43302,0.17875 3.57607,-0.0527 z m 4.53069,0.0888 c 0,-0.12916 -2.90649,-3.55473 -3.01607,-3.55473 -0.0397,0 -0.0722,0.82516 -0.0722,1.83367 l 0,1.83367 1.54414,0 c 0.84928,0 1.54414,-0.0506 1.54414,-0.11259 z m 12.7392,-1.76242 c 0,-1.56959 -0.0416,-1.82899 -0.25557,-1.5924 -0.14055,0.15545 -0.84292,0.99922 -1.5608,1.87503 l -1.30522,1.5924 1.56079,0 1.5608,0 0,-1.87503 z m 3.47052,0.0363 -1.82986,-1.8387 -0.13364,0.72885 c -0.17463,0.95235 -0.19106,2.65601 -0.0272,2.81986 0.0707,0.0708 0.95935,0.12868 1.97462,0.12868 l 1.84595,0 -1.82986,-1.83869 z m -12.45463,-2.1094 c -1.02135,-1.02136 -0.30772,-2.80754 1.12171,-2.80754 0.73384,0 1.42674,0.53812 1.60441,1.24603 0.39757,1.58404 -1.57418,2.71344 -2.72612,1.56151 z m 0.35428,-5.31677 c 0.3242,-1.0616 0.6439,-1.93018 0.71043,-1.93018 0.0665,0 0.38711,0.86858 0.71236,1.93018 l 0.59137,1.93018 -1.30179,0 -1.30181,0 0.58944,-1.93018 z"
         id="path1880" />
      <g
         inkscape:export-ydpi="46.220001"
         inkscape:export-xdpi="46.220001"
         inkscape:export-filename="/home/kerb/dev/icons/ambit-flaticon/inchi.png"
         id="g3234"
         transform="translate(179.18499,149.11373)">
        <path
           inkscape:connector-curvature="0"
           id="path3236"
           d="M 99.98,36.45 C 99.974,35.982 99.826,35.52 99.505,35.155 L 79.838,12.69 C 79.834,12.684 79.828,12.682 79.822,12.676 79.705,12.545 79.57,12.437 79.426,12.342 79.383,12.314 79.34,12.289 79.295,12.264 79.168,12.196 79.037,12.14 78.9,12.099 78.863,12.088 78.83,12.073 78.793,12.063 78.643,12.028 78.49,12.006 78.334,12.006 l -48.334,0 c -2.205,0 -4,1.795 -4,4 l 0,94 c 0,2.206 1.795,4 4,4 l 66,0 c 2.207,0 4,-1.794 4,-4 l 0,-73.332 c 0,-0.075 -0.012,-0.15 -0.02,-0.224 z M 30,79.924 l 0,-63.917 46.334,0 0,20.466 c 0,1.104 0.895,2 2,2 l 17.666,0 0.002,41.451 z"
           sodipodi:nodetypes="ccccccccssssssssccccssccc" />
      </g>
      <text
         inkscape:export-filename="/home/kerb/dev/icons/ambit-flaticon/inchi.png"
         inkscape:export-ydpi="46.220001"
         inkscape:export-xdpi="46.220001"
         transform="scale(1.0671794,0.93704957)"
         sodipodi:linespacing="125%"
         id="text3248"
         y="271.29755"
         x="226.74313"
         style="font-style:normal;font-weight:normal;font-size:34.14974213px;line-height:125%;font-family:Sans;letter-spacing:0px;word-spacing:0px;fill:#ffffff;fill-opacity:1;stroke:none"
         xml:space="preserve"><tspan
           style="font-style:normal;font-variant:normal;font-weight:bold;font-stretch:normal;font-size:24px;font-family:'DejaVu Sans';-inkscape-font-specification:'DejaVu Sans Bold';text-align:center;letter-spacing:-1.5px;text-anchor:middle"
           y="271.29755"
           x="225.99313"
           id="tspan3250"
           sodipodi:role="line">InChI</tspan></text>
    </g>
  </g>
</svg>
