<?xml version="1.0" encoding="UTF-8" standalone="no"?>
<!-- Created with Inkscape (http://www.inkscape.org/) -->

<svg
   xmlns:dc="http://purl.org/dc/elements/1.1/"
   xmlns:cc="http://creativecommons.org/ns#"
   xmlns:rdf="http://www.w3.org/1999/02/22-rdf-syntax-ns#"
   xmlns:svg="http://www.w3.org/2000/svg"
   xmlns="http://www.w3.org/2000/svg"
   xmlns:sodipodi="http://sodipodi.sourceforge.net/DTD/sodipodi-0.dtd"
   xmlns:inkscape="http://www.inkscape.org/namespaces/inkscape"
   width="20.884445mm"
   height="28.786673mm"
   viewBox="0 0 74.000003 102.00002"
   id="svg4693"
   version="1.1"
   inkscape:version="0.91 r13725"
   sodipodi:docname="isa.svg"
   inkscape:export-filename="/home/kerb/dev/idea/ambit-flaticon/export/isa.png"
   inkscape:export-xdpi="46.220001"
   inkscape:export-ydpi="46.220001">
  <defs
     id="defs4695" />
  <sodipodi:namedview
     id="base"
     pagecolor="#ffffff"
     bordercolor="#666666"
     borderopacity="1.0"
     inkscape:pageopacity="0.0"
     inkscape:pageshadow="2"
     inkscape:zoom="7.1470574"
     inkscape:cx="13.353906"
     inkscape:cy="51.00001"
     inkscape:document-units="px"
     inkscape:current-layer="layer1"
     showgrid="false"
     fit-margin-top="0"
     fit-margin-left="0"
     fit-margin-right="0"
     fit-margin-bottom="0"
     inkscape:window-width="1280"
     inkscape:window-height="960"
     inkscape:window-x="0"
     inkscape:window-y="27"
     inkscape:window-maximized="1" />
  <metadata
     id="metadata4698">
    <rdf:RDF>
      <cc:Work
         rdf:about="">
        <dc:format>image/svg+xml</dc:format>
        <dc:type
           rdf:resource="http://purl.org/dc/dcmitype/StillImage" />
        <dc:title></dc:title>
      </cc:Work>
    </rdf:RDF>
  </metadata>
  <g
     inkscape:label="Layer 1"
     inkscape:groupmode="layer"
     id="layer1"
     transform="translate(-303,-467.07648)">
    <g
       transform="translate(916.93359,191.66634)"
       id="g4672">
      <g
         id="g4648"
         transform="matrix(1.2538835,0,0,1.2538835,298.73568,-32.65169)">
        <rect
           ry="3.6896875"
           y="255.97575"
           x="-717.56213"
           height="20.682322"
           width="20.718231"
           id="rect4650"
           style="opacity:1;fill:#393939;fill-opacity:1;stroke:none;stroke-width:1.10468268;stroke-opacity:1" />
        <rect
           style="opacity:1;fill:#e6e6e6;fill-opacity:1;stroke:none;stroke-width:1.10468268;stroke-opacity:1"
           id="rect4652"
           width="20.718231"
           height="20.682322"
           x="-702.12799"
           y="263.26407"
           ry="3.6896875" />
        <rect
           ry="3.5367198"
           y="273.01758"
           x="-713.59637"
           height="19.824871"
           width="19.859291"
           id="rect4654"
           style="opacity:1;fill:#bebebe;fill-opacity:1;stroke:none;stroke-width:1.10468268;stroke-opacity:1" />
      </g>
      <path
         inkscape:connector-curvature="0"
         id="path4656"
         d="m -609.93359,275.41016 c -2.205,0 -4,1.795 -4,4 l 0,94 c 0,2.206 1.795,4 4,4 l 66,0 c 2.207,0 4,-1.794 4,-4 l 0,-73.33204 c 0,-0.075 -0.0115,-0.1506 -0.0195,-0.2246 -0.006,-0.468 -0.15361,-0.92993 -0.47461,-1.29493 l -19.66797,-22.46484 c -0.004,-0.006 -0.01,-0.008 -0.0156,-0.0137 -0.117,-0.131 -0.25053,-0.23899 -0.39453,-0.33399 -0.043,-0.028 -0.0878,-0.0531 -0.13281,-0.0781 -0.127,-0.068 -0.25753,-0.12502 -0.39453,-0.16602 -0.037,-0.011 -0.0704,-0.0251 -0.10742,-0.0352 -0.15,-0.035 -0.30299,-0.0566 -0.45899,-0.0566 l -48.33398,0 z m 0,4 46.33398,0 0,20.46679 c 0,1.104 0.895,2 2,2 l 17.66602,0 0.002,41.45117 -66.00195,0 0,-63.91796 z m 26.36328,68.375 c 1.21396,0 2.46304,0.10355 3.74609,0.30859 1.28306,0.19424 2.61054,0.48939 3.98242,0.88867 l 0,5.11524 c -1.21396,-0.59353 -2.39994,-1.03964 -3.55468,-1.3418 -1.15475,-0.30216 -2.24505,-0.45508 -3.27149,-0.45508 -1.36201,0 -2.36813,0.20516 -3.01953,0.61524 -0.6514,0.41007 -0.97656,1.04684 -0.97656,1.91015 0,0.64748 0.21612,1.15458 0.65039,1.52149 0.44413,0.35611 1.24369,0.66483 2.39844,0.92382 l 2.42773,0.53321 c 2.45754,0.53956 4.20392,1.36022 5.24023,2.46093 1.03632,1.10072 1.55469,2.66655 1.55469,4.69532 0,2.66546 -0.72494,4.64932 -2.17578,5.95508 -1.44097,1.29496 -3.64642,1.94335 -6.61719,1.94336 -1.40149,0 -2.80739,-0.14614 -4.21875,-0.4375 -1.41136,-0.29137 -2.82301,-0.72299 -4.23437,-1.29493 l 0,-5.25976 c 1.41136,0.82014 2.77327,1.44046 4.08594,1.86133 1.32253,0.41007 2.59452,0.61523 3.81835,0.61523 1.24358,0 2.19616,-0.22645 2.85743,-0.67969 0.66126,-0.45323 0.99218,-1.10163 0.99218,-1.94336 0,-0.75539 -0.22568,-1.33797 -0.67968,-1.74804 -0.44414,-0.41007 -1.33742,-0.77783 -2.67969,-1.10157 l -2.20703,-0.5332 c -2.2108,-0.51798 -3.82903,-1.34347 -4.85547,-2.47656 -1.01657,-1.13309 -1.52539,-2.66117 -1.52539,-4.58203 0,-2.40647 0.71158,-4.25582 2.13281,-5.55078 1.42123,-1.29497 3.4641,-1.94336 6.12891,-1.94336 z m -17.07031,0.4375 5.69921,0 0,24.16796 -5.69921,0 0,-24.16796 z m 34.92382,0 6.79492,0 8.1875,24.16796 -5.72851,0 -1.39258,-4.40429 -8.91211,0 -1.40625,4.40429 -5.73047,0 8.1875,-24.16796 z m 3.40625,5.66601 -3.03515,9.61524 6.05468,0 -3.01953,-9.61524 z" />
    </g>
  </g>
</svg>
