<?xml version="1.0" encoding="UTF-8" standalone="no"?>
<!-- Created with Inkscape (http://www.inkscape.org/) -->

<svg
   xmlns:dc="http://purl.org/dc/elements/1.1/"
   xmlns:cc="http://creativecommons.org/ns#"
   xmlns:rdf="http://www.w3.org/1999/02/22-rdf-syntax-ns#"
   xmlns:svg="http://www.w3.org/2000/svg"
   xmlns="http://www.w3.org/2000/svg"
   xmlns:xlink="http://www.w3.org/1999/xlink"
   xmlns:sodipodi="http://sodipodi.sourceforge.net/DTD/sodipodi-0.dtd"
   xmlns:inkscape="http://www.inkscape.org/namespaces/inkscape"
   width="210mm"
   height="297mm"
   viewBox="0 0 744.09448819 1052.3622047"
   id="svg3788"
   version="1.1"
   inkscape:version="0.91 r13725"
   sodipodi:docname="json.svg">
  <defs
     id="defs3790">
    <linearGradient
       id="linearGradient3329">
      <stop
         style="stop-color:#c3c3c3;stop-opacity:1;"
         offset="0"
         id="stop3331" />
      <stop
         style="stop-color:#191919;stop-opacity:1;"
         offset="1"
         id="stop3333" />
    </linearGradient>
    <linearGradient
       inkscape:collect="always"
       xlink:href="#linearGradient8385"
       id="linearGradient3397"
       gradientUnits="userSpaceOnUse"
       gradientTransform="matrix(0.99884,0,0,0.998699,156.7836,-139.1912)"
       x1="-642.33075"
       y1="395.76303"
       x2="-570.35742"
       y2="537.68951" />
    <linearGradient
       id="linearGradient8385">
      <stop
         style="stop-color:#000000;stop-opacity:1;"
         offset="0"
         id="stop8387" />
      <stop
         style="stop-color:#ffffff;stop-opacity:1;"
         offset="1"
         id="stop8389" />
    </linearGradient>
    <linearGradient
       inkscape:collect="always"
       xlink:href="#linearGradient8385"
       id="linearGradient3399"
       gradientUnits="userSpaceOnUse"
       gradientTransform="matrix(0.99884,0,0,0.998699,156.7836,-139.1912)"
       x1="-564.26062"
       y1="535.61951"
       x2="-578.36444"
       y2="376.52051" />
  </defs>
  <sodipodi:namedview
     id="base"
     pagecolor="#ffffff"
     bordercolor="#666666"
     borderopacity="1.0"
     inkscape:pageopacity="0.0"
     inkscape:pageshadow="2"
     inkscape:zoom="7.3431373"
     inkscape:cx="372.04724"
     inkscape:cy="526.1811"
     inkscape:document-units="px"
     inkscape:current-layer="layer1"
     showgrid="false"
     inkscape:window-width="1280"
     inkscape:window-height="987"
     inkscape:window-x="0"
     inkscape:window-y="0"
     inkscape:window-maximized="1" />
  <metadata
     id="metadata3793">
    <rdf:RDF>
      <cc:Work
         rdf:about="">
        <dc:format>image/svg+xml</dc:format>
        <dc:type
           rdf:resource="http://purl.org/dc/dcmitype/StillImage" />
        <dc:title />
      </cc:Work>
    </rdf:RDF>
  </metadata>
  <g
     inkscape:label="Layer 1"
     inkscape:groupmode="layer"
     id="layer1">
    <g
       transform="translate(419.63992,314.80694)"
       id="g4835"
       inkscape:export-filename="/home/kerb/dev/icons/ambit-flaticon/json.png"
       inkscape:export-xdpi="46.220001"
       inkscape:export-ydpi="46.220001">
      <g
         inkscape:export-ydpi="46.220001"
         inkscape:export-xdpi="46.220001"
         inkscape:export-filename="/home/kerb/dev/icons/text3093.png"
         id="g3383"
         transform="matrix(0.33986109,0,0,0.33986109,105.60421,84.42017)">
        <path
           inkscape:connector-curvature="0"
           id="path3385"
           style="color:#000000;display:inline;overflow:visible;visibility:visible;fill:url(#linearGradient3397);fill-opacity:1;fill-rule:evenodd;stroke:none;stroke-width:0.5;marker:none"
           d="m -452.35954,368.75213 c 23.21169,9.13191 53.06862,-13.63189 53.06862,-50.58675 0,-43.88609 -27.62085,-68.41369 -53.09762,-68.41369 -40.89242,0 -79.8356,33.79608 -79.8356,80.03589 0,51.396 44.64038,79.86497 79.8356,79.86497 -7.96447,-1.14675 -51.64906,-6.83395 -52.00578,-67.96677 -0.23987,-41.3466 30.63043,-57.86551 51.94813,-50.59905 0.47743,0.17707 23.51392,9.26451 23.51392,38.95053 0,29.55992 -23.42727,38.71487 -23.42727,38.71487 z"
           sodipodi:nodetypes="cssscccsc" />
        <path
           id="path3387"
           style="color:#000000;display:inline;overflow:visible;visibility:visible;fill:url(#linearGradient3399);fill-opacity:1;fill-rule:evenodd;stroke:none;stroke-width:0.5;marker:none"
           d="m -452.40087,291.05337 c -23.39005,-8.06188 -52.04302,11.21581 -52.04302,49.82881 0,63.04798 46.72055,68.77037 52.38416,68.77037 40.89242,0 79.83559,-33.79608 79.83559,-80.03589 0,-51.396 -44.64038,-79.86497 -79.83559,-79.86497 9.74811,-1.35 52.54087,10.54991 52.54087,69.0368 0,38.14117 -31.95286,58.90496 -52.73547,50.03344 -0.47743,-0.17707 -23.51392,-9.26451 -23.51392,-38.95053 0,-29.55992 23.36738,-38.81803 23.36738,-38.81803 z"
           sodipodi:nodetypes="cssscccsc"
           inkscape:connector-curvature="0" />
      </g>
      <g
         transform="translate(-110.59268,148.36816)"
         id="g3389"
         inkscape:export-filename="/home/kerb/dev/icons/text3093.png"
         inkscape:export-xdpi="46.220001"
         inkscape:export-ydpi="46.220001">
        <path
           sodipodi:nodetypes="ccccccccssssssssccccssccc"
           d="M 99.98,36.45 C 99.974,35.982 99.826,35.52 99.505,35.155 L 79.838,12.69 C 79.834,12.684 79.828,12.682 79.822,12.676 79.705,12.545 79.57,12.437 79.426,12.342 79.383,12.314 79.34,12.289 79.295,12.264 79.168,12.196 79.037,12.14 78.9,12.099 78.863,12.088 78.83,12.073 78.793,12.063 78.643,12.028 78.49,12.006 78.334,12.006 l -48.334,0 c -2.205,0 -4,1.795 -4,4 l 0,94 c 0,2.206 1.795,4 4,4 l 66,0 c 2.207,0 4,-1.794 4,-4 l 0,-73.332 c 0,-0.075 -0.012,-0.15 -0.02,-0.224 z M 30,79.924 l 0,-63.917 46.334,0 0,20.466 c 0,1.104 0.895,2 2,2 l 17.666,0 0.002,41.451 z"
           id="path3391"
           inkscape:connector-curvature="0" />
      </g>
      <text
         inkscape:export-filename="/home/kerb/dev/icons/text3093.png"
         xml:space="preserve"
         style="font-style:normal;font-weight:normal;font-size:34.14974213px;line-height:125%;font-family:Sans;letter-spacing:0px;word-spacing:0px;fill:#ffffff;fill-opacity:1;stroke:none"
         x="-42.929893"
         y="268.64539"
         id="text3393"
         sodipodi:linespacing="125%"
         transform="scale(1.0671794,0.93704957)"
         inkscape:export-xdpi="46.220001"
         inkscape:export-ydpi="46.220001"><tspan
           sodipodi:role="line"
           id="tspan3395"
           x="-43.679893"
           y="268.64539"
           style="font-style:normal;font-variant:normal;font-weight:bold;font-stretch:normal;font-size:24px;font-family:'DejaVu Sans';-inkscape-font-specification:'DejaVu Sans Bold';text-align:center;letter-spacing:-1.5px;text-anchor:middle">JSON</tspan></text>
    </g>
  </g>
</svg>
