<?xml version="1.0" encoding="UTF-8" standalone="no"?>
<!-- Created with Inkscape (http://www.inkscape.org/) -->

<svg
   xmlns:dc="http://purl.org/dc/elements/1.1/"
   xmlns:cc="http://creativecommons.org/ns#"
   xmlns:rdf="http://www.w3.org/1999/02/22-rdf-syntax-ns#"
   xmlns:svg="http://www.w3.org/2000/svg"
   xmlns="http://www.w3.org/2000/svg"
   xmlns:sodipodi="http://sodipodi.sourceforge.net/DTD/sodipodi-0.dtd"
   xmlns:inkscape="http://www.inkscape.org/namespaces/inkscape"
   width="20.884445mm"
   height="28.786667mm"
   viewBox="0 0 74.000003 102"
   id="svg4484"
   version="1.1"
   inkscape:version="0.91 r13725"
   sodipodi:docname="json-ld.svg">
  <defs
     id="defs4486" />
  <sodipodi:namedview
     id="base"
     pagecolor="#ffffff"
     bordercolor="#666666"
     borderopacity="1.0"
     inkscape:pageopacity="0.0"
     inkscape:pageshadow="2"
     inkscape:zoom="4.9067308"
     inkscape:cx="37.142857"
     inkscape:cy="48.571429"
     inkscape:document-units="px"
     inkscape:current-layer="layer1"
     showgrid="false"
     fit-margin-top="0"
     fit-margin-left="0"
     fit-margin-right="0"
     fit-margin-bottom="0"
     inkscape:window-width="1280"
     inkscape:window-height="960"
     inkscape:window-x="0"
     inkscape:window-y="27"
     inkscape:window-maximized="1" />
  <metadata
     id="metadata4489">
    <rdf:RDF>
      <cc:Work
         rdf:about="">
        <dc:format>image/svg+xml</dc:format>
        <dc:type
           rdf:resource="http://purl.org/dc/dcmitype/StillImage" />
        <dc:title></dc:title>
      </cc:Work>
    </rdf:RDF>
  </metadata>
  <g
     inkscape:label="Layer 1"
     inkscape:groupmode="layer"
     id="layer1"
     transform="translate(77,-407.07649)">
    <g
       id="g4064"
       transform="translate(7.59268,130.06226)">
      <g
         transform="matrix(0.3035118,0,0,0.30368286,62.894688,335.14299)"
         id="g4044">
        <text
           sodipodi:linespacing="125%"
           x="-471.35803"
           y="-29.51531"
           id="obj-start"
           xml:space="preserve"
           style="font-style:normal;font-variant:normal;font-weight:normal;font-stretch:normal;font-size:144px;line-height:125%;font-family:'Bitstream Vera Sans Mono';-inkscape-font-specification:'Bitstream Vera Sans Mono';letter-spacing:0px;word-spacing:0px;overflow:visible;fill:#000000;fill-opacity:1;stroke:none"><tspan
             x="-471.35803"
             y="-29.51531"
             id="tspan3093">{</tspan></text>
        <text
           sodipodi:linespacing="125%"
           x="-345.858"
           y="-29.51531"
           id="obj-end"
           xml:space="preserve"
           style="font-style:normal;font-variant:normal;font-weight:normal;font-stretch:normal;font-size:144px;line-height:125%;font-family:'Bitstream Vera Sans';-inkscape-font-specification:'Bitstream Vera Sans';text-align:start;letter-spacing:0px;word-spacing:0px;writing-mode:lr-tb;text-anchor:start;overflow:visible;fill:#000000;fill-opacity:1;stroke:none"><tspan
             x="-345.858"
             y="-29.51531"
             id="tspan3097"
             style="font-style:normal;font-variant:normal;font-weight:normal;font-stretch:normal;font-size:144px;line-height:125%;font-family:'Bitstream Vera Sans';-inkscape-font-specification:'Bitstream Vera Sans';text-align:start;writing-mode:lr-tb;text-anchor:start">}</tspan></text>
        <g
           id="g4031">
          <g
             id="g4019">
            <g
               id="g4008">
              <path
                 style="fill:#1a1a1a"
                 id="path3188"
                 inkscape:connector-curvature="0"
                 d="m -331.13082,-56.58137 c -0.636,-0.337 -1.284,-0.624 -1.936,-0.879 l 0.466,-0.038 c 0,0 -4.151,-1.838 -4.514,-15.18 -0.359,-13.344 3.957,-15.62 3.957,-15.62 l -0.62,0.027 c 3.261,-1.673 6.066,-4.316 7.917,-7.804 4.823,-9.072 1.372,-20.341 -7.702,-25.165 -9.078,-4.818 -20.344,-1.375 -25.164,7.706 -1.982,3.725 -2.545,7.817 -1.919,11.683 l -0.212,-0.326 c 0,0 1.093,4.842 -10.258,11.888 -11.349,7.05 -16.469,3.54 -16.469,3.54 l 0.326,0.48 c -0.325,-0.201 -0.636,-0.406 -0.975,-0.583 -9.078,-4.824 -20.347,-1.377 -25.169,7.701 -4.82,9.077 -1.372,20.341 7.703,25.167 6.766,3.591 14.744,2.59 20.365,-1.914 l -0.122,0.236 c 0,0 4.132,-3.399 16.04,2.994 9.4,5.044 10.796,9.988 10.975,11.846 -0.246,6.893 3.347,13.654 9.847,17.107 9.075,4.825 20.344,1.375 25.164,-7.701 4.824,-9.075 1.378,-20.345 -7.7,-25.165 z m -20.984,2.446 c -1.504,0.532 -5.801,1.121 -14.847,-3.73 -9.797,-5.26 -11.251,-9.654 -11.464,-10.973 0.139,-1.6 0.05,-3.197 -0.223,-4.755 l 0.06,0.09 c 0,0 -0.798,-4.274 10.412,-11.235 10.033,-6.228 14.594,-4.989 15.443,-4.664 0.546,0.371 1.112,0.717 1.706,1.033 1.129,0.6 2.293,1.07 3.472,1.418 1.38,1.314 3.92,5.045 4.184,14.854 0.27,9.883 -2.634,13.694 -4.217,15.042 -1.63,0.738 -3.156,1.723 -4.526,2.92 z" />
              <g
                 transform="translate(-415.58082,-123.41737)"
                 id="g3190">
                <path
                   style="fill:#ffffff"
                   id="path3192"
                   inkscape:connector-curvature="0"
                   d="m 62.239,8.1 c -5.415,5.923 -5.529,14.636 -0.312,19.566 -2.579,-2.483 -2.523,-7.651 0.083,-12.597 0.335,-0.443 1.306,-1.49 2.725,-1.014 0.143,0.049 0.237,0.062 0.292,0.053 0.321,0.069 0.65,0.11 0.99,0.095 2.155,-0.098 3.822,-1.921 3.725,-4.077 C 69.698,9.159 69.297,8.303 68.677,7.646 73.679,4.369 79.419,3.994 81.771,6.142 l 0.09,0.006 C 76.488,1.242 67.705,2.119 62.239,8.1 Z" />
              </g>
              <g
                 transform="translate(-415.58082,-123.41737)"
                 id="g3194">
                <path
                   style="fill:#ffffff"
                   id="path3196"
                   inkscape:connector-curvature="0"
                   d="M 7.632,62.845 C 7.586,62.798 7.539,62.743 7.491,62.697 c 0.03,0.031 0.059,0.069 0.095,0.102 l 0.046,0.046 z" />
                <path
                   style="fill:#ffffff"
                   id="path3198"
                   inkscape:connector-curvature="0"
                   d="M 7.805,43.13 C 2.389,49.054 2.276,57.765 7.492,62.696 4.914,60.212 4.969,55.044 7.575,50.098 c 0.336,-0.444 1.308,-1.49 2.727,-1.014 0.141,0.049 0.236,0.061 0.292,0.054 0.321,0.069 0.651,0.11 0.99,0.095 2.156,-0.099 3.822,-1.922 3.725,-4.076 -0.045,-0.967 -0.445,-1.824 -1.063,-2.48 4.999,-3.276 10.74,-3.654 13.092,-1.505 l 0.089,0.008 C 22.054,36.271 13.269,37.147 7.805,43.13 Z" />
              </g>
              <g
                 transform="translate(-415.58082,-123.41737)"
                 id="g3200">
                <path
                   style="fill:#ffffff"
                   id="path3202"
                   inkscape:connector-curvature="0"
                   d="m 65.256,92.504 c -0.047,-0.048 -0.094,-0.102 -0.141,-0.148 0.029,0.031 0.059,0.069 0.094,0.101 l 0.047,0.047 z" />
                <path
                   style="fill:#ffffff"
                   id="path3204"
                   inkscape:connector-curvature="0"
                   d="m 65.428,72.786 c -5.416,5.926 -5.529,14.639 -0.313,19.569 -2.58,-2.483 -2.523,-7.653 0.082,-12.597 0.336,-0.445 1.307,-1.49 2.727,-1.014 0.143,0.047 0.235,0.061 0.292,0.053 0.32,0.069 0.651,0.11 0.99,0.096 2.154,-0.1 3.82,-1.924 3.723,-4.08 -0.044,-0.966 -0.445,-1.822 -1.063,-2.479 5,-3.275 10.739,-3.652 13.093,-1.504 l 0.088,0.007 c -5.37,-4.907 -14.156,-4.03 -19.619,1.949 z" />
              </g>
            </g>
          </g>
        </g>
      </g>
      <g
         inkscape:export-ydpi="46.220001"
         inkscape:export-xdpi="46.220001"
         inkscape:export-filename="/home/kerb/dev/icons/text3093.png"
         id="g3946"
         transform="translate(-110.59268,265.00823)">
        <path
           inkscape:connector-curvature="0"
           id="path3948"
           d="M 99.98,36.45 C 99.974,35.982 99.826,35.52 99.505,35.155 L 79.838,12.69 C 79.834,12.684 79.828,12.682 79.822,12.676 79.705,12.545 79.57,12.437 79.426,12.342 79.383,12.314 79.34,12.289 79.295,12.264 79.168,12.196 79.037,12.14 78.9,12.099 78.863,12.088 78.83,12.073 78.793,12.063 78.643,12.028 78.49,12.006 78.334,12.006 l -48.334,0 c -2.205,0 -4,1.795 -4,4 l 0,94 c 0,2.206 1.795,4 4,4 l 66,0 c 2.207,0 4,-1.794 4,-4 l 0,-73.332 c 0,-0.075 -0.012,-0.15 -0.02,-0.224 z M 30,79.924 l 0,-63.917 46.334,0 0,20.466 c 0,1.104 0.895,2 2,2 l 17.666,0 0.002,41.451 z"
           sodipodi:nodetypes="ccccccccssssssssccccssccc" />
      </g>
      <text
         inkscape:export-ydpi="46.220001"
         inkscape:export-xdpi="46.220001"
         transform="scale(0.91015967,1.0987083)"
         sodipodi:linespacing="125%"
         id="text3950"
         y="335.27927"
         x="-51.374043"
         style="font-style:normal;font-weight:normal;font-size:29.12510872px;line-height:125%;font-family:Sans;letter-spacing:0px;word-spacing:0px;fill:#ffffff;fill-opacity:1;stroke:none"
         xml:space="preserve"
         inkscape:export-filename="/home/kerb/dev/icons/text3093.png"><tspan
           style="font-style:normal;font-variant:normal;font-weight:bold;font-stretch:normal;font-size:17.05729294px;font-family:'DejaVu Sans';-inkscape-font-specification:'DejaVu Sans Bold';text-align:center;letter-spacing:-1.27929711px;text-anchor:middle"
           y="335.27927"
           x="-52.013691"
           id="tspan3952"
           sodipodi:role="line">JSON-LD</tspan></text>
    </g>
  </g>
</svg>
