<?xml version="1.0" encoding="UTF-8" standalone="no"?>
<!-- Created with Inkscape (http://www.inkscape.org/) -->

<svg
   xmlns:dc="http://purl.org/dc/elements/1.1/"
   xmlns:cc="http://creativecommons.org/ns#"
   xmlns:rdf="http://www.w3.org/1999/02/22-rdf-syntax-ns#"
   xmlns:svg="http://www.w3.org/2000/svg"
   xmlns="http://www.w3.org/2000/svg"
   xmlns:sodipodi="http://sodipodi.sourceforge.net/DTD/sodipodi-0.dtd"
   xmlns:inkscape="http://www.inkscape.org/namespaces/inkscape"
   width="20.884445mm"
   height="28.786667mm"
   viewBox="0 0 74.000003 102"
   id="svg7651"
   version="1.1"
   inkscape:version="0.91 r13725"
   inkscape:export-filename="/home/kerb/dev/idea/ambit-flaticon/export/json-ld.png"
   inkscape:export-xdpi="46.220001"
   inkscape:export-ydpi="46.220001"
   sodipodi:docname="json-ld.svg">
  <defs
     id="defs7653" />
  <sodipodi:namedview
     id="base"
     pagecolor="#ffffff"
     bordercolor="#666666"
     borderopacity="1.0"
     inkscape:pageopacity="0.0"
     inkscape:pageshadow="2"
     inkscape:zoom="7.1470588"
     inkscape:cx="13.353911"
     inkscape:cy="51"
     inkscape:document-units="px"
     inkscape:current-layer="layer1"
     showgrid="false"
     fit-margin-top="0"
     fit-margin-left="0"
     fit-margin-right="0"
     fit-margin-bottom="0"
     inkscape:window-width="1280"
     inkscape:window-height="960"
     inkscape:window-x="0"
     inkscape:window-y="27"
     inkscape:window-maximized="1" />
  <metadata
     id="metadata7656">
    <rdf:RDF>
      <cc:Work
         rdf:about="">
        <dc:format>image/svg+xml</dc:format>
        <dc:type
           rdf:resource="http://purl.org/dc/dcmitype/StillImage" />
        <dc:title></dc:title>
      </cc:Work>
    </rdf:RDF>
  </metadata>
  <g
     inkscape:label="Layer 1"
     inkscape:groupmode="layer"
     id="layer1"
     transform="translate(-325.85714,-447.07649)">
    <g
       transform="translate(-57.816687,167.42415)"
       id="g6567">
      <g
         id="g6560">
        <text
           style="font-style:normal;font-variant:normal;font-weight:normal;font-stretch:normal;font-size:43.71801376px;line-height:125%;font-family:'Bitstream Vera Sans Mono';-inkscape-font-specification:'Bitstream Vera Sans Mono';letter-spacing:0px;word-spacing:0px;overflow:visible;fill:#000000;fill-opacity:1;stroke:none"
           xml:space="preserve"
           id="text5841"
           y="328.72577"
           x="388.20844"
           sodipodi:linespacing="125%"
           transform="scale(0.99971832,1.0002818)"><tspan
             id="tspan5843"
             y="328.72577"
             x="388.20844">{</tspan></text>
        <text
           style="font-style:normal;font-variant:normal;font-weight:normal;font-stretch:normal;font-size:43.71801376px;line-height:125%;font-family:'Bitstream Vera Sans';-inkscape-font-specification:'Bitstream Vera Sans';text-align:start;letter-spacing:0px;word-spacing:0px;writing-mode:lr-tb;text-anchor:start;overflow:visible;fill:#000000;fill-opacity:1;stroke:none"
           xml:space="preserve"
           id="text5845"
           y="328.72577"
           x="426.30991"
           sodipodi:linespacing="125%"
           transform="scale(0.99971832,1.0002818)"><tspan
             style="font-style:normal;font-variant:normal;font-weight:normal;font-stretch:normal;font-size:43.71801376px;line-height:125%;font-family:'Bitstream Vera Sans';-inkscape-font-specification:'Bitstream Vera Sans';text-align:start;writing-mode:lr-tb;text-anchor:start"
             id="tspan5847"
             y="328.72577"
             x="426.30991">}</tspan></text>
        <path
           inkscape:connector-curvature="0"
           style="fill:#1a1a1a"
           d="m 427.22461,300.30273 c -2.00367,0.0186 -3.93565,1.10405 -4.94141,3 -0.60156,1.13122 -0.77203,2.3748 -0.58203,3.54883 l -0.0644,-0.0996 c 0,0 0.33188,1.46963 -3.11328,3.60938 -3.44456,2.14096 -4.99805,1.07617 -4.99805,1.07617 l 0.0996,0.14453 c -0.0986,-0.061 -0.19396,-0.12202 -0.29688,-0.17578 -2.75528,-1.46496 -6.17514,-0.41895 -7.63867,2.33789 -1.46293,2.75652 -0.41648,6.17701 2.33789,7.64258 2.05356,1.09053 4.4756,0.78771 6.18164,-0.58008 l -0.0371,0.0703 c 0,0 1.25296,-1.03129 4.86718,0.91016 2.85301,1.53178 3.2777,3.03341 3.33203,3.59766 -0.0747,2.09328 1.01544,4.14669 2.98829,5.19531 2.75436,1.46527 6.17378,0.41637 7.63671,-2.33985 1.46414,-2.75593 0.41935,-6.17687 -2.33593,-7.64062 -0.19303,-0.10234 -0.39,-0.19014 -0.58789,-0.26758 l 0.14062,-0.0117 c 0,0 -1.25896,-0.55763 -1.36914,-4.60937 -0.10896,-4.05234 1.20117,-4.74414 1.20117,-4.74414 l -0.18945,0.008 c 0.98976,-0.50806 1.8425,-1.3099 2.4043,-2.36914 1.46383,-2.75501 0.41615,-6.17762 -2.33789,-7.64258 -0.86103,-0.45723 -1.78651,-0.6686 -2.69727,-0.66016 z m -0.0137,0.90235 c 0.16796,-0.005 0.33438,0.002 0.5,0.0176 0.79495,0.0756 1.55057,0.38856 2.16211,0.94726 l -0.0273,-0.002 c -0.71386,-0.65231 -2.45448,-0.54009 -3.97265,0.45508 0.18818,0.19952 0.30886,0.46024 0.32226,0.7539 0.0294,0.65474 -0.47679,1.20848 -1.13086,1.23828 -0.1032,0.005 -0.20338,-0.008 -0.30078,-0.0293 -0.0167,0.003 -0.0445,-7.3e-4 -0.0879,-0.0156 -0.43069,-0.14455 -0.7245,0.17407 -0.82617,0.3086 -0.79097,1.50201 -0.80815,3.07019 -0.0254,3.82421 -1.58342,-1.49716 -1.54977,-4.14269 0.0937,-5.9414 0.90726,-0.99331 2.11726,-1.52415 3.29297,-1.55664 z m -3.90235,9.33203 c 0.44167,-0.0191 0.6983,0.0567 0.79493,0.0937 0.16572,0.11267 0.33729,0.21848 0.51757,0.31445 0.34267,0.18221 0.6949,0.32596 1.05274,0.43164 0.41884,0.39904 1.19135,1.53095 1.27148,4.50977 0.082,3.0013 -0.80079,4.159 -1.28125,4.56836 -0.49472,0.22412 -0.95723,0.52321 -1.37304,0.88672 -0.45648,0.16156 -1.76029,0.34034 -4.50586,-1.13282 -2.97351,-1.59737 -3.41582,-2.93148 -3.48047,-3.33203 0.0422,-0.4859 0.0165,-0.97022 -0.0664,-1.44336 l 0.0176,0.0254 c 0,0 -0.24221,-1.29621 3.16016,-3.41015 1.9032,-1.18209 3.15646,-1.47982 3.89257,-1.51172 z m -12.61914,1.30469 c 0.16798,-0.005 0.33437,0.002 0.5,0.0176 0.79503,0.0758 1.55057,0.38822 2.16211,0.94726 l -0.0254,-0.002 c -0.71386,-0.65261 -2.45736,-0.53783 -3.97461,0.45703 0.18757,0.19922 0.30857,0.46027 0.32227,0.7539 0.0294,0.65414 -0.47454,1.20819 -1.12891,1.23829 -0.10289,0.005 -0.20338,-0.008 -0.30078,-0.0293 -0.017,0.002 -0.047,-0.003 -0.0898,-0.0176 -0.43068,-0.14455 -0.72418,0.17376 -0.82618,0.30859 -0.79095,1.50202 -0.80784,3.07183 -0.0254,3.82618 -1.58312,-1.49746 -1.55007,-4.14239 0.0937,-5.94141 l 0,-0.002 c 0.90694,-0.99363 2.11714,-1.52434 3.29297,-1.55664 z m 17.98828,9.02539 c 0.79494,0.0757 1.55287,0.38845 2.16407,0.94726 l -0.0273,-0.002 c -0.71447,-0.65231 -2.45705,-0.53949 -3.97461,0.45508 0.18757,0.19952 0.30887,0.46054 0.32227,0.7539 0.0294,0.65474 -0.47515,1.20789 -1.12891,1.23829 -0.10289,0.004 -0.20368,-0.008 -0.30078,-0.0293 -0.0173,0.002 -0.0445,-10e-4 -0.0879,-0.0156 -0.43099,-0.14455 -0.72614,0.17346 -0.82812,0.3086 -0.79066,1.50141 -0.80845,3.07018 -0.0254,3.82422 -1.58312,-1.49716 -1.54812,-4.14178 0.0957,-5.94141 1.03631,-1.13483 2.46612,-1.66526 3.79101,-1.53906 z"
           id="path5855" />
      </g>
      <path
         inkscape:connector-curvature="0"
         id="path5875"
         d="m 387.67383,279.65234 c -2.205,0 -4,1.795 -4,4 l 0,94 c 0,2.206 1.795,4 4,4 l 66,0 c 2.207,0 4,-1.794 4,-4 l 0,-73.33203 c 0,-0.075 -0.0115,-0.14865 -0.0195,-0.22265 -0.006,-0.468 -0.15361,-0.92993 -0.47461,-1.29493 l -19.66797,-22.46484 c -0.004,-0.006 -0.01,-0.01 -0.0156,-0.0156 -0.117,-0.131 -0.25248,-0.23899 -0.39648,-0.33399 -0.043,-0.028 -0.0859,-0.0531 -0.13086,-0.0781 -0.127,-0.068 -0.25753,-0.12307 -0.39453,-0.16407 -0.037,-0.011 -0.0704,-0.0271 -0.10742,-0.0371 -0.15,-0.035 -0.30299,-0.0566 -0.45899,-0.0566 l -48.33398,0 z m 0,4.00196 46.33398,0 0,20.46484 c 0,1.104 0.895,2 2,2 l 17.66602,0 0.002,41.45117 -66.00195,0 0,-63.91601 z m 11.0957,73.44922 c 0.6216,0 1.25904,0.0579 1.91602,0.17382 0.65697,0.10981 1.3366,0.27819 2.03906,0.50391 l 0,2.89063 c -0.6216,-0.33554 -1.22708,-0.58895 -1.81836,-0.75977 -0.59128,-0.17082 -1.1502,-0.25586 -1.67578,-0.25586 -0.69741,0 -1.21333,0.11583 -1.54688,0.34766 -0.33354,0.23182 -0.5,0.59203 -0.5,1.08007 0,0.36604 0.11163,0.65196 0.33399,0.85938 0.22741,0.20132 0.63723,0.37702 1.22851,0.52344 l 1.24219,0.30078 c 1.25836,0.30503 2.15296,0.76836 2.6836,1.39062 0.53063,0.62226 0.79687,1.50739 0.79687,2.6543 0,1.50684 -0.37235,2.62902 -1.11523,3.36719 -0.73784,0.73207 -1.86752,1.09765 -3.38868,1.09765 -0.71762,0 -1.43748,-0.0814 -2.16015,-0.24609 -0.72268,-0.16472 -1.4453,-0.40909 -2.16797,-0.73242 l 0,-2.97461 c 0.72267,0.46364 1.41966,0.81481 2.0918,1.05273 0.67719,0.23183 1.33037,0.34766 1.95703,0.34766 0.63676,0 1.12429,-0.12854 1.46289,-0.38477 0.33859,-0.25622 0.50781,-0.62181 0.50781,-1.09765 0,-0.42704 -0.11714,-0.75646 -0.34961,-0.98828 -0.22741,-0.23183 -0.68379,-0.43808 -1.37109,-0.6211 l -1.12891,-0.30273 c -1.13202,-0.29283 -1.96075,-0.75983 -2.48633,-1.40039 -0.52053,-0.64056 -0.78125,-1.50394 -0.78125,-2.58985 0,-1.36043 0.36407,-2.4066 1.0918,-3.13867 0.72773,-0.73207 1.77418,-1.09765 3.13867,-1.09765 z m 11.27344,0 c 1.81932,0 3.24444,0.62804 4.27539,1.88476 1.03095,1.25672 1.54687,2.99252 1.54687,5.20703 0,2.20841 -0.51592,3.94055 -1.54687,5.19727 -1.03095,1.25672 -2.45607,1.88476 -4.27539,1.88476 -1.81427,0 -3.23939,-0.62804 -4.27539,-1.88476 -1.03095,-1.25672 -1.54492,-2.98886 -1.54492,-5.19727 0,-2.21451 0.51397,-3.95031 1.54492,-5.20703 1.036,-1.25672 2.46112,-1.88476 4.27539,-1.88476 z m -19.82031,0.24609 2.91796,0 0,12.33594 c 0,1.70206 -0.38418,2.97452 -1.15234,3.8164 -0.7631,0.84188 -1.91923,1.26367 -3.4707,1.26367 l -0.5918,0 0,-2.66406 0.45508,0 c 0.60644,0 1.06282,-0.20454 1.37109,-0.61328 0.31333,-0.40874 0.47071,-1.00966 0.47071,-1.80273 l 0,-12.33594 z m 26.67773,0 3.25977,0 4.11523,9.37109 0,-9.37109 2.76758,0 0,13.66406 -3.25977,0 -4.11718,-9.37109 0,9.37109 -2.76563,0 0,-13.66406 z m 17.13672,0 2.91992,0 0,11 5.12305,0 0,2.66406 -8.04297,0 0,-13.66406 z m 8.7207,0 3.07813,0 c 1.71824,0 2.99703,0.15029 3.83594,0.44922 0.84396,0.29283 1.56658,0.79233 2.16796,1.5 0.53064,0.61616 0.92391,1.32753 1.18164,2.13281 0.25774,0.80528 0.38672,1.71753 0.38672,2.73633 0,1.031 -0.12898,1.95229 -0.38672,2.76367 -0.25773,0.80528 -0.651,1.51665 -1.18164,2.13281 -0.60644,0.70767 -1.33457,1.21084 -2.18359,1.50977 -0.84902,0.29283 -2.12228,0.43945 -3.82031,0.43945 l -3.07813,0 0,-13.66406 z m -32.71484,2.30664 c -0.88945,0 -1.57816,0.39638 -2.06836,1.18945 -0.49021,0.79308 -0.73633,1.90988 -0.73633,3.34961 0,1.43364 0.24612,2.54677 0.73633,3.33985 0.4902,0.79307 1.17891,1.18945 2.06836,1.18945 0.8945,0 1.58792,-0.39638 2.07812,-1.18945 0.49021,-0.79308 0.73438,-1.90621 0.73438,-3.33985 0,-1.43973 -0.24417,-2.55653 -0.73438,-3.34961 -0.4902,-0.79307 -1.18362,-1.18945 -2.07812,-1.18945 z m 35.63281,0.35742 0,8.33594 1.04688,0 c 1.19266,0 2.10186,-0.35654 2.72851,-1.07031 0.63171,-0.71377 0.94727,-1.7509 0.94727,-3.11133 0,-1.35433 -0.3128,-2.38608 -0.93946,-3.09375 -0.62665,-0.70767 -1.53861,-1.06055 -2.73632,-1.06055 l -1.04688,0 z m -17.51562,4.27344 4.75976,0 0,2.66211 -4.75976,0 0,-2.66211 z" />
    </g>
  </g>
</svg>
