<?xml version="1.0" encoding="UTF-8" standalone="no"?>
<!-- Created with Inkscape (http://www.inkscape.org/) -->

<svg
   xmlns:dc="http://purl.org/dc/elements/1.1/"
   xmlns:cc="http://creativecommons.org/ns#"
   xmlns:rdf="http://www.w3.org/1999/02/22-rdf-syntax-ns#"
   xmlns:svg="http://www.w3.org/2000/svg"
   xmlns="http://www.w3.org/2000/svg"
   xmlns:sodipodi="http://sodipodi.sourceforge.net/DTD/sodipodi-0.dtd"
   xmlns:inkscape="http://www.inkscape.org/namespaces/inkscape"
   width="20.884445mm"
   height="28.786667mm"
   viewBox="0 0 74.000003 102"
   id="svg6941"
   version="1.1"
   inkscape:version="0.91 r13725"
   inkscape:export-filename="/home/kerb/dev/idea/ambit-flaticon/export/rdf.png"
   inkscape:export-xdpi="46.220001"
   inkscape:export-ydpi="46.220001"
   sodipodi:docname="rdf.svg">
  <defs
     id="defs6943" />
  <sodipodi:namedview
     id="base"
     pagecolor="#ffffff"
     bordercolor="#666666"
     borderopacity="1.0"
     inkscape:pageopacity="0.0"
     inkscape:pageshadow="2"
     inkscape:zoom="7.1470588"
     inkscape:cx="13.353911"
     inkscape:cy="51"
     inkscape:document-units="px"
     inkscape:current-layer="layer1"
     showgrid="false"
     fit-margin-top="0"
     fit-margin-left="0"
     fit-margin-right="0"
     fit-margin-bottom="0"
     inkscape:window-width="1280"
     inkscape:window-height="960"
     inkscape:window-x="0"
     inkscape:window-y="27"
     inkscape:window-maximized="1" />
  <metadata
     id="metadata6946">
    <rdf:RDF>
      <cc:Work
         rdf:about="">
        <dc:format>image/svg+xml</dc:format>
        <dc:type
           rdf:resource="http://purl.org/dc/dcmitype/StillImage" />
        <dc:title></dc:title>
      </cc:Work>
    </rdf:RDF>
  </metadata>
  <g
     inkscape:label="Layer 1"
     inkscape:groupmode="layer"
     id="layer1"
     transform="translate(-325.85714,-492.79078)">
    <g
       transform="translate(679.75753,214.49976)"
       id="g6439">
      <path
         inkscape:connector-curvature="0"
         id="path6233"
         d="m -349.90039,278.29102 c -2.205,0 -4,1.795 -4,4 l 0,94 c 0,2.206 1.795,4 4,4 l 66,0 c 2.207,0 4,-1.794 4,-4 l 0,-73.33204 c 0,-0.075 -0.0135,-0.1506 -0.0215,-0.2246 -0.006,-0.46801 -0.1536,-0.92993 -0.4746,-1.29493 l -19.66602,-22.46484 c -0.004,-0.006 -0.0116,-0.008 -0.0176,-0.0137 -0.117,-0.131 -0.25053,-0.23899 -0.39453,-0.33399 -0.043,-0.028 -0.0859,-0.0531 -0.13086,-0.0781 -0.127,-0.068 -0.25948,-0.12502 -0.39648,-0.16602 -0.037,-0.011 -0.0685,-0.0251 -0.10547,-0.0351 -0.15,-0.035 -0.30299,-0.0566 -0.45899,-0.0566 l -48.33398,0 z m 0,4 46.33398,0 0,20.46679 c 0,1.104 0.895,2 2,2 l 17.66602,0 0.002,41.45117 -66.00195,0 0,-63.91796 z m 1.81641,69.21679 8.68554,0 c 2.90536,0 5.03355,0.51154 6.38282,1.53516 1.35911,1.02362 2.0371,2.64279 2.0371,4.85547 0,1.53026 -0.35339,2.78531 -1.0625,3.76758 -0.69925,0.98226 -1.75757,1.70659 -3.17578,2.17187 0.77805,0.18611 1.47142,0.60975 2.08203,1.27149 0.62047,0.65139 1.24664,1.6447 1.87696,2.97851 l 3.08593,6.57617 -6.05664,0 -2.6875,-5.7539 c -0.54167,-1.15804 -1.09292,-1.94913 -1.65429,-2.37305 -0.55153,-0.42392 -1.29103,-0.63672 -2.2168,-0.63672 l -1.60937,0 0,8.76367 -5.6875,0 0,-23.15625 z m 22.20703,0 5.99804,0 c 3.34855,0 5.83974,0.25313 7.47461,0.75977 1.64473,0.4963 3.05458,1.34357 4.22657,2.54297 1.0341,1.0443 1.8024,2.2504 2.30468,3.61523 0.50228,1.36483 0.75196,2.91001 0.75196,4.63672 0,1.74739 -0.24968,3.30843 -0.75196,4.68359 -0.50228,1.36483 -1.27058,2.56898 -2.30468,3.61329 -1.18184,1.19939 -2.60129,2.0539 -4.25586,2.56054 -1.65458,0.4963 -4.13617,0.74414 -7.44532,0.74414 l -5.99804,0 0,-23.15625 z m 24.04101,0 15.34961,0 0,4.51367 -9.66211,0 0,4.31055 9.08594,0 0,4.51367 -9.08594,0 0,9.81836 -5.6875,0 0,-23.15625 z m -40.56054,4.32813 0,5.93945 2.39257,0 c 1.19169,0 2.04256,-0.23198 2.55469,-0.69727 0.52198,-0.46528 0.7832,-1.23189 0.7832,-2.29687 0,-1.05464 -0.26122,-1.80873 -0.7832,-2.26367 -0.51213,-0.45494 -1.363,-0.68164 -2.55469,-0.68164 l -2.39257,0 z m 22.20703,0.18554 0,14.12891 2.03906,0 c 2.32428,0 4.09713,-0.60472 5.31836,-1.81445 1.23108,-1.20974 1.84765,-2.96771 1.84765,-5.27344 0,-2.29539 -0.61079,-4.04279 -1.83203,-5.24219 -1.22123,-1.19939 -2.99985,-1.79883 -5.33398,-1.79883 l -2.03906,0 z" />
      <path
         inkscape:connector-curvature="0"
         id="path6241"
         d="m -313.16602,294.30078 c -2.76747,0.0254 -5.43471,1.52533 -6.82421,4.14258 -0.8308,1.56151 -1.06681,3.27812 -0.80469,4.89844 l -0.0879,-0.13672 c 0,0 0.45798,2.03039 -4.30078,4.98437 -4.75792,2.95556 -6.9043,1.48241 -6.9043,1.48243 l 0.13672,0.20312 c -0.13604,-0.0842 -0.26794,-0.17178 -0.41016,-0.24609 -3.80513,-2.02214 -8.52937,-0.57735 -10.55078,3.22851 -2.02078,3.80544 -0.57423,8.52769 3.23047,10.55078 2.8365,1.50545 6.18032,1.08732 8.53711,-0.80078 l -0.0508,0.0977 c 0,0 1.73275,-1.42426 6.72461,1.25586 3.94084,2.1148 4.52662,4.18839 4.60156,4.96679 -0.10303,2.88953 1.40186,5.72397 4.12695,7.17188 3.8046,2.02267 8.52978,0.57619 10.55078,-3.22852 2.02193,-3.8047 0.57703,-8.53 -3.22851,-10.55078 -0.26663,-0.14107 -0.53969,-0.26193 -0.8125,-0.36914 l 0.19531,-0.0156 c 0,0 -1.74071,-0.76995 -1.89258,-6.36328 -0.15071,-5.59376 1.65821,-6.54883 1.65821,-6.54883 l -0.25977,0.0117 c 1.3672,-0.70116 2.54432,-1.80953 3.32031,-3.27149 2.02225,-3.80355 0.57381,-8.52658 -3.23047,-10.54883 -1.18923,-0.63133 -2.46666,-0.92562 -3.72461,-0.91406 z m 0.11914,1.2461 c 1.29653,-0.004 2.55564,0.43202 3.54102,1.33203 l -0.0391,-0.002 c -0.98592,-0.90071 -3.39141,-0.74479 -5.48828,0.62891 0.25992,0.27543 0.42701,0.63562 0.44531,1.04102 0.0409,0.90374 -0.65691,1.66778 -1.56055,1.70898 -0.14243,0.006 -0.27949,-0.0119 -0.41406,-0.041 -0.0229,0.003 -0.0634,-10e-4 -0.12305,-0.0215 -0.59468,-0.19976 -1.00194,0.23985 -1.14257,0.42578 -1.09243,2.07298 -1.11635,4.23804 -0.0352,5.2793 -2.18754,-2.06679 -2.13916,-5.71788 0.13086,-8.20117 1.28885,-1.41042 3.0186,-2.14484 4.68554,-2.15039 z m -5.52539,12.88476 c 0.61003,-0.0264 0.96227,0.0777 1.09571,0.12891 0.229,0.15564 0.46592,0.30111 0.71484,0.43359 0.47352,0.25132 0.96102,0.44817 1.45508,0.59375 0.57853,0.55097 1.64334,2.11446 1.75391,6.22656 0.11298,4.14354 -1.10394,5.74184 -1.76758,6.30664 -0.68397,0.30981 -1.32215,0.7228 -1.89649,1.22461 -0.63073,0.22314 -2.43207,0.46964 -6.22461,-1.56445 -4.10707,-2.20514 -4.71755,-4.04665 -4.80664,-4.59961 0.0584,-0.67087 0.0208,-1.33935 -0.0937,-1.99219 l 0.0254,0.0371 c 0,0 -0.3342,-1.79237 4.36524,-4.71094 2.62889,-1.63157 4.36219,-2.03994 5.3789,-2.08398 z m -17.29492,1.80078 c 1.29656,-0.004 2.55398,0.43189 3.53907,1.33203 l -0.0371,-0.004 c -0.98592,-0.90092 -3.39267,-0.74285 -5.48829,0.63086 0.25887,0.27501 0.42652,0.63572 0.44532,1.04101 0.0408,0.90333 -0.6568,1.66789 -1.56055,1.70899 -0.14212,0.007 -0.27959,-0.0122 -0.41406,-0.041 -0.0231,0.003 -0.0639,-10e-4 -0.12305,-0.0215 -0.59478,-0.19976 -1.00162,0.23944 -1.14258,0.42578 -1.09241,2.07298 -1.11602,4.23804 -0.0351,5.27929 -2.18658,-2.0671 -2.13958,-5.71787 0.13086,-8.20117 1.28855,-1.41071 3.01854,-2.14485 4.68554,-2.15039 z m 24.15625,12.4336 c 1.29655,-0.004 2.55596,0.43189 3.54102,1.33203 l -0.0371,-0.004 c -0.98633,-0.90071 -3.39193,-0.74242 -5.48828,0.63086 0.25898,0.27554 0.42691,0.63409 0.44531,1.03906 0.0408,0.90428 -0.65743,1.66944 -1.56055,1.71094 -0.14233,0.006 -0.28165,-0.0101 -0.41601,-0.0391 -0.0236,0.003 -0.0636,-0.004 -0.12305,-0.0234 -0.5952,-0.19986 -1.00172,0.23911 -1.14258,0.42578 -1.0922,2.07276 -1.11644,4.23999 -0.0351,5.28125 -2.18669,-2.06711 -2.13794,-5.72074 0.13281,-8.20508 1.2882,-1.41012 3.0166,-2.14292 4.68359,-2.14843 z"
         style="fill:#000000" />
    </g>
  </g>
</svg>
