<?xml version="1.0" encoding="UTF-8" standalone="no"?>
<!-- Created with Inkscape (http://www.inkscape.org/) -->

<svg
   xmlns:dc="http://purl.org/dc/elements/1.1/"
   xmlns:cc="http://creativecommons.org/ns#"
   xmlns:rdf="http://www.w3.org/1999/02/22-rdf-syntax-ns#"
   xmlns:svg="http://www.w3.org/2000/svg"
   xmlns="http://www.w3.org/2000/svg"
   xmlns:sodipodi="http://sodipodi.sourceforge.net/DTD/sodipodi-0.dtd"
   xmlns:inkscape="http://www.inkscape.org/namespaces/inkscape"
   width="210mm"
   height="297mm"
   viewBox="0 0 744.09448819 1052.3622047"
   id="svg3788"
   version="1.1"
   inkscape:version="0.91 r13725"
   sodipodi:docname="rdf.svg">
  <defs
     id="defs3790">
    <linearGradient
       id="linearGradient3329">
      <stop
         style="stop-color:#c3c3c3;stop-opacity:1;"
         offset="0"
         id="stop3331" />
      <stop
         style="stop-color:#191919;stop-opacity:1;"
         offset="1"
         id="stop3333" />
    </linearGradient>
  </defs>
  <sodipodi:namedview
     id="base"
     pagecolor="#ffffff"
     bordercolor="#666666"
     borderopacity="1.0"
     inkscape:pageopacity="0.0"
     inkscape:pageshadow="2"
     inkscape:zoom="7.3431373"
     inkscape:cx="372.04724"
     inkscape:cy="526.1811"
     inkscape:document-units="px"
     inkscape:current-layer="layer1"
     showgrid="false"
     inkscape:window-width="1280"
     inkscape:window-height="987"
     inkscape:window-x="0"
     inkscape:window-y="0"
     inkscape:window-maximized="1" />
  <metadata
     id="metadata3793">
    <rdf:RDF>
      <cc:Work
         rdf:about="">
        <dc:format>image/svg+xml</dc:format>
        <dc:type
           rdf:resource="http://purl.org/dc/dcmitype/StillImage" />
        <dc:title />
      </cc:Work>
    </rdf:RDF>
  </metadata>
  <g
     inkscape:label="Layer 1"
     inkscape:groupmode="layer"
     id="layer1">
    <g
       transform="translate(686.52004,313.45125)"
       id="g4758"
       inkscape:export-filename="/home/kerb/dev/icons/ambit-flaticon/export/rdf.png"
       inkscape:export-xdpi="46.220001"
       inkscape:export-ydpi="46.220001">
      <g
         transform="translate(-377.4728,149.72385)"
         id="g4730"
         inkscape:export-filename="/home/kerb/dev/icons/text3092.png"
         inkscape:export-xdpi="46.220001"
         inkscape:export-ydpi="46.220001">
        <path
           sodipodi:nodetypes="ccccccccssssssssccccssccc"
           d="M 99.98,36.45 C 99.974,35.982 99.826,35.52 99.505,35.155 L 79.838,12.69 C 79.834,12.684 79.828,12.682 79.822,12.676 79.705,12.545 79.57,12.437 79.426,12.342 79.383,12.314 79.34,12.289 79.295,12.264 79.168,12.196 79.037,12.14 78.9,12.099 78.863,12.088 78.83,12.073 78.793,12.063 78.643,12.028 78.49,12.006 78.334,12.006 l -48.334,0 c -2.205,0 -4,1.795 -4,4 l 0,94 c 0,2.206 1.795,4 4,4 l 66,0 c 2.207,0 4,-1.794 4,-4 l 0,-73.332 c 0,-0.075 -0.012,-0.15 -0.02,-0.224 z M 30,79.924 l 0,-63.917 46.334,0 0,20.466 c 0,1.104 0.895,2 2,2 l 17.666,0 0.002,41.451 z"
           id="path4732"
           inkscape:connector-curvature="0" />
      </g>
      <text
         xml:space="preserve"
         style="font-style:normal;font-weight:normal;font-size:35.96525955px;line-height:125%;font-family:Sans;letter-spacing:-1.10000002px;word-spacing:0px;fill:#ffffff;fill-opacity:1;stroke:none"
         x="-322.72339"
         y="251.90053"
         id="text4734"
         sodipodi:linespacing="125%"
         transform="scale(0.97596976,1.0246219)"
         inkscape:export-xdpi="46.220001"
         inkscape:export-ydpi="46.220001"><tspan
           sodipodi:role="line"
           id="tspan4736"
           x="-323.27338"
           y="251.90053"
           style="font-style:normal;font-variant:normal;font-weight:bold;font-stretch:normal;font-size:31px;font-family:'DejaVu Sans';-inkscape-font-specification:'DejaVu Sans Bold';text-align:center;letter-spacing:-1.10000002px;text-anchor:middle">RDF</tspan></text>
      <g
         id="g4738"
         transform="matrix(0.10480698,0,0,0.10480698,-313.48135,145.72431)">
        <path
           style="fill:#000000"
           inkscape:connector-curvature="0"
           d="m 71.45504,572.81784 c -2.544,-1.346 -5.14,-2.493 -7.743,-3.516 l 1.863,-0.15 c 0,0 -16.608,-7.354 -18.057,-60.722 -1.438,-53.372 15.828,-62.478 15.828,-62.478 l -2.48,0.109 c 13.045,-6.69 24.265,-17.267 31.669,-31.216 19.295,-36.291 5.488,-81.362 -30.81,-100.657 -36.31,-19.276 -81.372,-5.506 -100.656,30.817 -7.927,14.899 -10.178,31.273 -7.677,46.733 l -0.851,-1.306 c 0,0 4.373,19.365 -41.032,47.55 -45.397,28.2 -65.877,14.159 -65.877,14.159 l 1.302,1.925 c -1.298,-0.803 -2.544,-1.624 -3.901,-2.333 -36.306,-19.294 -81.38,-5.509 -100.667,30.804 -19.281,36.309 -5.489,81.365 30.813,100.668 27.064,14.364 58.974,10.36 81.461,-7.655 l -0.487,0.946 c 0,0 16.531,-13.599 64.16,11.973 37.601,20.178 43.184,39.956 43.899,47.383 -0.983,27.57 13.388,54.618 39.389,68.433 36.301,19.299 81.374,5.498 100.657,-30.804 19.292,-36.302 5.507,-81.382 -30.803,-100.663 z m -83.934,9.785 c -6.018,2.129 -23.203,4.487 -59.389,-14.921 -39.187,-21.04 -45.005,-38.615 -45.855,-43.891 0.557,-6.401 0.202,-12.791 -0.891,-19.02 l 0.239,0.359 c 0,0 -3.189,-17.096 41.65,-44.943 40.133,-24.908 58.376,-19.955 61.771,-18.653 2.185,1.485 4.45,2.867 6.825,4.131 4.518,2.398 9.174,4.283 13.888,5.672 5.52,5.257 15.678,20.178 16.733,59.413 1.078,39.535 -10.533,54.779 -16.865,60.168 -6.526,2.956 -12.626,6.897 -18.106,11.685 z"
           id="path4740" />
        <g
           transform="translate(-312.02096,305.47484)"
           id="g4742">
          <path
             style="fill:#ffffff"
             inkscape:connector-curvature="0"
             d="m 294.631,32.4 c -21.659,23.694 -22.118,58.544 -1.246,78.264 -10.316,-9.935 -10.093,-30.608 0.33,-50.387 1.342,-1.774 5.224,-5.961 10.898,-4.055 0.569,0.194 0.951,0.245 1.17,0.213 1.284,0.278 2.601,0.439 3.96,0.381 8.622,-0.393 15.288,-7.684 14.898,-16.307 -0.175,-3.868 -1.78,-7.292 -4.26,-9.92 20.007,-13.107 42.968,-14.61 52.375,-6.016 l 0.359,0.025 C 351.625,4.97 316.493,8.476 294.631,32.4 Z"
             id="path4744" />
        </g>
        <g
           transform="translate(-312.02096,305.47484)"
           id="g4746">
          <path
             style="fill:#ffffff"
             inkscape:connector-curvature="0"
             d="m 76.205,251.381 c -0.184,-0.19 -0.371,-0.406 -0.562,-0.598 0.121,0.125 0.235,0.279 0.378,0.407 l 0.184,0.191 z"
             id="path4748" />
          <path
             style="fill:#ffffff"
             inkscape:connector-curvature="0"
             d="m 76.894,172.52 c -21.663,23.694 -22.114,58.541 -1.251,78.264 -10.313,-9.935 -10.092,-30.608 0.331,-50.387 1.345,-1.778 5.231,-5.961 10.906,-4.055 0.565,0.195 0.946,0.242 1.167,0.212 1.283,0.275 2.603,0.44 3.959,0.377 8.623,-0.392 15.288,-7.684 14.899,-16.303 -0.179,-3.867 -1.782,-7.296 -4.252,-9.92 19.995,-13.107 42.959,-14.617 52.366,-6.021 l 0.355,0.03 c -21.483,-19.631 -56.623,-16.126 -78.48,7.803 z"
             id="path4750" />
        </g>
        <g
           transform="translate(-312.02096,305.47484)"
           id="g4752">
          <path
             style="fill:#ffffff"
             inkscape:connector-curvature="0"
             d="m 306.701,370.015 c -0.187,-0.191 -0.374,-0.404 -0.564,-0.594 0.117,0.125 0.237,0.279 0.378,0.402 l 0.186,0.192 z"
             id="path4754" />
          <path
             style="fill:#ffffff"
             inkscape:connector-curvature="0"
             d="m 307.39,291.145 c -21.666,23.704 -22.118,58.553 -1.254,78.276 -10.317,-9.935 -10.09,-30.611 0.331,-50.388 1.344,-1.781 5.227,-5.96 10.906,-4.053 0.568,0.189 0.941,0.242 1.166,0.212 1.282,0.277 2.605,0.44 3.963,0.381 8.617,-0.396 15.28,-7.692 14.891,-16.32 -0.176,-3.864 -1.781,-7.288 -4.252,-9.917 20.002,-13.103 42.959,-14.61 52.37,-6.016 l 0.355,0.029 c -21.483,-19.631 -56.625,-16.123 -78.476,7.796 z"
             id="path4756" />
        </g>
      </g>
    </g>
  </g>
</svg>
