<?xml version="1.0" encoding="UTF-8" standalone="no"?>
<!-- Created with Inkscape (http://www.inkscape.org/) -->

<svg
   xmlns:dc="http://purl.org/dc/elements/1.1/"
   xmlns:cc="http://creativecommons.org/ns#"
   xmlns:rdf="http://www.w3.org/1999/02/22-rdf-syntax-ns#"
   xmlns:svg="http://www.w3.org/2000/svg"
   xmlns="http://www.w3.org/2000/svg"
   xmlns:sodipodi="http://sodipodi.sourceforge.net/DTD/sodipodi-0.dtd"
   xmlns:inkscape="http://www.inkscape.org/namespaces/inkscape"
   width="210mm"
   height="297mm"
   viewBox="0 0 744.09448819 1052.3622047"
   id="svg3788"
   version="1.1"
   inkscape:version="0.91 r13725"
   sodipodi:docname="xlsx.svg">
  <defs
     id="defs3790" />
  <sodipodi:namedview
     id="base"
     pagecolor="#ffffff"
     bordercolor="#666666"
     borderopacity="1.0"
     inkscape:pageopacity="0.0"
     inkscape:pageshadow="2"
     inkscape:zoom="7.3431373"
     inkscape:cx="372.04724"
     inkscape:cy="526.1811"
     inkscape:document-units="px"
     inkscape:current-layer="layer1"
     showgrid="false"
     inkscape:window-width="1280"
     inkscape:window-height="987"
     inkscape:window-x="0"
     inkscape:window-y="0"
     inkscape:window-maximized="1" />
  <metadata
     id="metadata3793">
    <rdf:RDF>
      <cc:Work
         rdf:about="">
        <dc:format>image/svg+xml</dc:format>
        <dc:type
           rdf:resource="http://purl.org/dc/dcmitype/StillImage" />
        <dc:title />
      </cc:Work>
    </rdf:RDF>
  </metadata>
  <g
     inkscape:label="Layer 1"
     inkscape:groupmode="layer"
     id="layer1">
    <g
       transform="translate(419.63992,314.80694)"
       id="g4948"
       inkscape:export-xdpi="46.220001"
       inkscape:export-ydpi="46.220001">
      <g
         transform="matrix(0.45422356,0,0,0.45422356,-34.249796,49.803927)"
         id="g4938">
        <path
           d="m -29.031201,271.56535 7.425,0 c 0,3.3375 0,6.6625 0,10 12.5125,0 25.025,0.025 37.5375,-0.0375 2.1125,0.0875 4.4375,-0.0625 6.275,1.2 1.2875,1.85 1.1375,4.2 1.225,6.325 -0.0625,21.7 -0.0375,43.3875 -0.025,65.075 -0.0625,3.6375 0.3375,7.35 -0.425,10.9375 -0.5,2.6 -3.625,2.6625 -5.7125,2.75 -12.95,0.0375 -25.9125,-0.025 -38.875,0 0,3.75 0,7.5 0,11.25 l -7.7625,0 c -19.05,-3.4625 -38.1375,-6.6625 -57.2125,-10 0,-29.1625 0,-58.325 0,-87.4875 19.1875,-3.3375 38.375,-6.625 57.55,-10.0125 z"
           id="path10"
           inkscape:connector-curvature="0"
           style="fill:#000000;fill-opacity:1" />
        <path
           d="m -21.606201,285.31535 c 13.75,0 27.5,0 41.25,0 0,26.25 0,52.5 0,78.75 -13.75,0 -27.5,0 -41.25,0 0,-2.5 0,-5 0,-7.5 3.3375,0 6.6625,0 10,0 0,-2.9125 0,-5.8375 0,-8.75 -3.3375,0 -6.6625,0 -10,0 0,-1.6625 0,-3.3375 0,-5 3.3375,0 6.6625,0 10,0 0,-2.9125 0,-5.8375 0,-8.75 -3.3375,0 -6.6625,0 -10,0 0,-1.6625 0,-3.3375 0,-5 3.3375,0 6.6625,0 10,0 0,-2.9125 0,-5.8375 0,-8.75 -3.3375,0 -6.6625,0 -10,0 0,-1.6625 0,-3.3375 0,-5 3.3375,0 6.6625,0 10,0 0,-2.9125 0,-5.8375 0,-8.75 -3.3375,0 -6.6625,0 -10,0 0,-1.6625 0,-3.3375 0,-5 3.3375,0 6.6625,0 10,0 0,-2.9125 0,-5.8375 0,-8.75 -3.3375,0 -6.6625,0 -10,0 0,-2.5 0,-5 0,-7.5 z"
           id="path48"
           inkscape:connector-curvature="0"
           style="fill:#ffffff" />
        <path
           d="m -6.606201,292.81535 c 5.8375,0 11.6625,0 17.5,0 0,2.9125 0,5.8375 0,8.75 -5.8375,0 -11.6625,0 -17.5,0 0,-2.9125 0,-5.8375 0,-8.75 z"
           id="path58"
           inkscape:connector-curvature="0"
           style="fill:#000000;fill-opacity:1" />
        <path
           d="m -49.556201,304.52785 c 2.825,-0.2 5.6625,-0.375 8.5,-0.5125 -3.3375,6.8375 -6.6875,13.675 -10.0875,20.4875 3.4375,7 6.95,13.95 10.4,20.95 -3.0125,-0.175 -6.0125,-0.3625 -9.025,-0.575 -2.125,-5.2125 -4.7125,-10.25 -6.2375,-15.7 -1.7,5.075 -4.125,9.8625 -6.075,14.8375 -2.7375,-0.0375 -5.475,-0.15 -8.2125,-0.2625 3.2125,-6.2875 6.3125,-12.625 9.625,-18.875 -2.8125,-6.4375 -5.9,-12.75 -8.8,-19.15 2.75,-0.1625 5.5,-0.325 8.25,-0.475 1.8625,4.8875 3.9,9.7125 5.4375,14.725 1.65,-5.3125 4.1125,-10.3125 6.225,-15.45 z"
           id="path72"
           inkscape:connector-curvature="0"
           style="fill:#ffffff" />
        <path
           d="m -6.606201,306.56535 c 5.8375,0 11.6625,0 17.5,0 0,2.9125 0,5.8375 0,8.75 -5.8375,0 -11.6625,0 -17.5,0 0,-2.9125 0,-5.8375 0,-8.75 z"
           id="path90"
           inkscape:connector-curvature="0"
           style="fill:#000000;fill-opacity:1" />
        <path
           d="m -6.606201,320.31535 c 5.8375,0 11.6625,0 17.5,0 0,2.9125 0,5.8375 0,8.75 -5.8375,0 -11.6625,0 -17.5,0 0,-2.9125 0,-5.8375 0,-8.75 z"
           id="path108"
           inkscape:connector-curvature="0"
           style="fill:#000000;fill-opacity:1" />
        <path
           d="m -6.606201,334.06535 c 5.8375,0 11.6625,0 17.5,0 0,2.9125 0,5.8375 0,8.75 -5.8375,0 -11.6625,0 -17.5,0 0,-2.9125 0,-5.8375 0,-8.75 z"
           id="path114"
           inkscape:connector-curvature="0"
           style="fill:#000000;fill-opacity:1" />
        <path
           d="m -6.606201,347.81535 c 5.8375,0 11.6625,0 17.5,0 0,2.9125 0,5.8375 0,8.75 -5.8375,0 -11.6625,0 -17.5,0 0,-2.9125 0,-5.8375 0,-8.75 z"
           id="path120"
           inkscape:connector-curvature="0"
           style="fill:#000000;fill-opacity:1" />
      </g>
      <path
         inkscape:connector-curvature="0"
         id="path4839"
         d="m -10.61268,184.81816 c -0.006,-0.468 -0.154,-0.93 -0.475,-1.295 l -19.667,-22.465 c -0.004,-0.006 -0.01,-0.008 -0.016,-0.014 -0.117,-0.131 -0.252,-0.239 -0.396,-0.334 -0.043,-0.028 -0.086,-0.053 -0.131,-0.078 -0.127,-0.068 -0.258,-0.124 -0.395,-0.165 -0.037,-0.011 -0.07,-0.026 -0.107,-0.036 -0.15,-0.035 -0.303,-0.057 -0.459,-0.057 l -48.334,0 c -2.205,0 -4,1.795 -4,4 l 0,94 c 0,2.206 1.795,4 4,4 l 66,0 c 2.207,0 4,-1.794 4,-4 l 0,-73.332 c 0,-0.075 -0.012,-0.15 -0.02,-0.224 z m -69.98,43.474 0,-63.917 46.334,0 0,20.466 c 0,1.104 0.895,2 2,2 l 17.666,0 0.002,41.451 z"
         sodipodi:nodetypes="ccccccccssssssssccccssccc" />
      <text
         inkscape:export-filename="/home/kerb/dev/icons/text3093.png"
         xml:space="preserve"
         style="font-style:normal;font-weight:normal;font-size:36.86276245px;line-height:125%;font-family:Sans;letter-spacing:0px;word-spacing:0px;fill:#ffffff;fill-opacity:1;stroke:none"
         x="-49.59515"
         y="244.0089"
         id="text4841"
         sodipodi:linespacing="125%"
         transform="scale(0.95634174,1.0456513)"
         inkscape:export-xdpi="46.220001"
         inkscape:export-ydpi="46.220001"><tspan
           sodipodi:role="line"
           id="tspan4843"
           x="-50.404732"
           y="244.0089"
           style="font-style:normal;font-variant:normal;font-weight:bold;font-stretch:normal;font-size:25.90667534px;font-family:'DejaVu Sans';-inkscape-font-specification:'DejaVu Sans Bold';text-align:center;letter-spacing:-1.61916721px;text-anchor:middle">XLSX</tspan></text>
    </g>
  </g>
</svg>
