<?xml version="1.0" encoding="UTF-8" standalone="no"?>
<!-- Created with Inkscape (http://www.inkscape.org/) -->

<svg
   xmlns:dc="http://purl.org/dc/elements/1.1/"
   xmlns:cc="http://creativecommons.org/ns#"
   xmlns:rdf="http://www.w3.org/1999/02/22-rdf-syntax-ns#"
   xmlns:svg="http://www.w3.org/2000/svg"
   xmlns="http://www.w3.org/2000/svg"
   xmlns:sodipodi="http://sodipodi.sourceforge.net/DTD/sodipodi-0.dtd"
   xmlns:inkscape="http://www.inkscape.org/namespaces/inkscape"
   width="20.884445mm"
   height="28.786667mm"
   viewBox="0 0 74.000003 102"
   id="svg6597"
   version="1.1"
   inkscape:version="0.91 r13725"
   sodipodi:docname="xlsx.svg"
   inkscape:export-filename="/home/kerb/dev/idea/ambit-flaticon/export/xlsx.png"
   inkscape:export-xdpi="46.220001"
   inkscape:export-ydpi="46.220001">
  <defs
     id="defs6599" />
  <sodipodi:namedview
     id="base"
     pagecolor="#ffffff"
     bordercolor="#666666"
     borderopacity="1.0"
     inkscape:pageopacity="0.0"
     inkscape:pageshadow="2"
     inkscape:zoom="7.1470588"
     inkscape:cx="13.353911"
     inkscape:cy="51"
     inkscape:document-units="px"
     inkscape:current-layer="layer1"
     showgrid="false"
     fit-margin-top="0"
     fit-margin-left="0"
     fit-margin-right="0"
     fit-margin-bottom="0"
     inkscape:window-width="1280"
     inkscape:window-height="960"
     inkscape:window-x="0"
     inkscape:window-y="27"
     inkscape:window-maximized="1" />
  <metadata
     id="metadata6602">
    <rdf:RDF>
      <cc:Work
         rdf:about="">
        <dc:format>image/svg+xml</dc:format>
        <dc:type
           rdf:resource="http://purl.org/dc/dcmitype/StillImage" />
        <dc:title />
      </cc:Work>
    </rdf:RDF>
  </metadata>
  <g
     inkscape:label="Layer 1"
     inkscape:groupmode="layer"
     id="layer1"
     transform="translate(682.71429,187.20922)">
    <g
       transform="translate(-156.69867,-463.05688)"
       id="g6418">
      <g
         id="g6410">
        <path
           inkscape:connector-curvature="0"
           style="fill:#000000;fill-opacity:1"
           d="m -488.85938,288.62891 c -8.70973,1.53868 -17.42521,3.0309 -26.14062,4.54687 l 0,39.74024 c 8.66431,1.51597 17.33338,2.96826 25.98633,4.54101 l 3.52734,0 0,-5.10937 c 5.88788,-0.0114 11.77405,0.017 17.65625,0 0.94819,-0.0398 2.36861,-0.069 2.5957,-1.25 0.34635,-1.62952 0.16496,-3.31456 0.19336,-4.9668 -0.006,-9.85097 -0.0167,-19.70193 0.0117,-29.55859 -0.0398,-0.96522 0.0282,-2.03274 -0.55664,-2.87305 -0.83463,-0.57347 -1.89201,-0.50512 -2.85156,-0.54492 -5.68347,0.0283 -11.36535,0.0176 -17.04883,0.0176 l 0,-4.54297 -3.37305,0 z m 3.37305,6.24609 18.73633,0 0,35.76953 -18.73633,0 0,-3.40625 4.54102,0 0,-3.97461 -4.54102,0 0,-2.27148 4.54102,0 0,-3.97461 -4.54102,0 0,-2.27149 4.54102,0 0,-3.97461 -4.54102,0 0,-2.27148 4.54102,0 0,-3.97266 -4.54102,0 0,-2.27148 4.54102,0 0,-3.97461 -4.54102,0 0,-3.40625 z m -8.83594,8.49414 c -1.51597,3.10576 -3.03767,6.21029 -4.58203,9.30469 1.56139,3.17956 3.15754,6.33606 4.72461,9.51562 -1.36835,-0.0795 -2.73126,-0.16323 -4.09961,-0.25976 -0.96522,-2.36764 -2.14129,-4.6573 -2.83398,-7.13281 -0.77218,2.30518 -1.87208,4.48046 -2.75781,6.74023 -1.24344,-0.017 -2.48703,-0.068 -3.73047,-0.11914 1.4592,-2.85593 2.86647,-5.73532 4.37109,-8.57422 -1.27751,-2.92406 -2.67884,-5.79024 -3.99609,-8.69727 1.24911,-0.0738 2.49698,-0.14866 3.74609,-0.21679 0.846,2.22001 1.77234,4.41265 2.4707,6.68945 0.74947,-2.41306 1.86663,-4.684 2.82618,-7.01758 1.28318,-0.0908 2.57246,-0.16996 3.86132,-0.23242 z"
           id="path6352" />
        <path
           d="m -478.67375,298.28094 c 2.65153,0 5.29738,0 7.94891,0 0,1.32293 0,2.65153 0,3.97446 -2.65153,0 -5.29738,0 -7.94891,0 0,-1.32293 0,-2.65153 0,-3.97446 z"
           id="path6356"
           inkscape:connector-curvature="0"
           style="fill:#000000;fill-opacity:1" />
        <path
           d="m -478.67375,304.52651 c 2.65153,0 5.29738,0 7.94891,0 0,1.32293 0,2.65153 0,3.97446 -2.65153,0 -5.29738,0 -7.94891,0 0,-1.32293 0,-2.65153 0,-3.97446 z"
           id="path6360"
           inkscape:connector-curvature="0"
           style="fill:#000000;fill-opacity:1" />
        <path
           d="m -478.67375,310.77209 c 2.65153,0 5.29738,0 7.94891,0 0,1.32292 0,2.65153 0,3.97445 -2.65153,0 -5.29738,0 -7.94891,0 0,-1.32292 0,-2.65153 0,-3.97445 z"
           id="path6362"
           inkscape:connector-curvature="0"
           style="fill:#000000;fill-opacity:1" />
        <path
           d="m -478.67375,317.01766 c 2.65153,0 5.29738,0 7.94891,0 0,1.32293 0,2.65153 0,3.97446 -2.65153,0 -5.29738,0 -7.94891,0 0,-1.32293 0,-2.65153 0,-3.97446 z"
           id="path6364"
           inkscape:connector-curvature="0"
           style="fill:#000000;fill-opacity:1" />
        <path
           d="m -478.67375,323.26324 c 2.65153,0 5.29738,0 7.94891,0 0,1.32292 0,2.65153 0,3.97445 -2.65153,0 -5.29738,0 -7.94891,0 0,-1.32292 0,-2.65153 0,-3.97445 z"
           id="path6366"
           inkscape:connector-curvature="0"
           style="fill:#000000;fill-opacity:1" />
      </g>
      <path
         inkscape:connector-curvature="0"
         id="path6368"
         d="m -522.01562,275.84766 c -2.20501,0 -4,1.795 -4,4 l 0,94 c 0,2.206 1.79499,4 4,4 l 66,0 c 2.20699,0 4,-1.794 4,-4 l 0,-73.33204 c 0,-0.075 -0.0115,-0.1506 -0.0195,-0.2246 -0.006,-0.468 -0.15556,-0.92993 -0.47656,-1.29493 l -19.66601,-22.46484 c -0.004,-0.006 -0.01,-0.008 -0.0156,-0.0137 -0.117,-0.131 -0.25248,-0.23899 -0.39648,-0.33399 -0.043,-0.028 -0.0859,-0.0531 -0.13086,-0.0781 -0.127,-0.068 -0.25753,-0.12306 -0.39453,-0.16406 -0.037,-0.011 -0.0704,-0.0271 -0.10743,-0.0371 -0.15,-0.035 -0.30298,-0.0566 -0.45898,-0.0566 l -48.33398,0 z m 0,4 46.33398,0 0,20.46679 c 0,1.104 0.895,2 2,2 l 17.66602,0 0.002,41.45117 -66.00195,0 0,-63.91796 z m 39.87695,70.66796 c 0.99199,0 2.0121,0.0844 3.06055,0.25196 1.04844,0.15872 2.13287,0.40029 3.2539,0.72656 l 0,4.18164 c -0.99199,-0.485 -1.96069,-0.8527 -2.9043,-1.09961 -0.9436,-0.24691 -1.83311,-0.36914 -2.67187,-0.36914 -1.11297,0 -1.93646,0.16686 -2.46875,0.50195 -0.53229,0.33509 -0.79883,0.8551 -0.79883,1.56055 0,0.52909 0.17835,0.94432 0.5332,1.24414 0.36293,0.291 1.01539,0.54227 1.95899,0.75391 l 1.98437,0.43554 c 2.00819,0.44091 3.43638,1.11227 4.28321,2.01172 0.84682,0.89945 1.26953,2.17813 1.26953,3.83594 0,2.17808 -0.59179,3.80019 -1.77735,4.86719 -1.17748,1.05818 -2.98064,1.58789 -5.4082,1.58789 -1.14523,0 -2.29397,-0.11933 -3.44726,-0.35742 -1.1533,-0.23809 -2.30765,-0.59123 -3.46094,-1.0586 l 0,-4.29882 c 1.15329,0.67017 2.2672,1.17757 3.33984,1.52148 1.08071,0.33509 2.12104,0.50195 3.1211,0.50195 1.01618,0 1.79363,-0.18432 2.33398,-0.55468 0.54035,-0.37037 0.81055,-0.90008 0.81055,-1.58789 0,-0.61728 -0.18565,-1.09265 -0.55664,-1.42774 -0.36293,-0.33509 -1.09262,-0.63585 -2.18946,-0.90039 l -1.80273,-0.43555 c -1.80656,-0.42327 -3.12804,-1.09948 -3.9668,-2.02539 -0.83069,-0.9259 -1.24609,-2.17255 -1.24609,-3.74219 0,-1.96644 0.58083,-3.47893 1.74219,-4.5371 1.16135,-1.05818 2.83026,-1.58789 5.00781,-1.5879 z m -39.60742,0.35743 4.86328,0 3.95508,6.36328 3.94531,-6.36328 4.88672,0 -6.02539,9.66992 6.26757,10.07812 -4.85156,0 -4.22265,-6.74609 -4.18555,6.74609 -4.875,0 6.26758,-10.07812 -6.02539,-9.66992 z m 19.12695,0 4.65625,0 0,15.90039 8.17773,0 0,3.84765 -12.83398,0 0,-19.74804 z m 28.97266,0 4.86328,0 3.95508,6.36328 3.94335,-6.36328 4.88868,0 -6.02539,9.66992 6.26757,10.07812 -4.85156,0 -4.22265,-6.74609 -4.18555,6.74609 -4.875,0 6.26562,-10.07812 -6.02343,-9.66992 z" />
    </g>
  </g>
</svg>
